<?xml version="1.0" encoding="UTF-8" standalone="no"?>
<!DOCTYPE svg PUBLIC "-//W3C//DTD SVG 1.1//EN"
 "http://www.w3.org/Graphics/SVG/1.1/DTD/svg11.dtd">
<!-- Generated by graphviz version 2.44.1 (20200629.0846)
 -->
<!-- Title: Tree234::TryRightRotate Pages: 1 -->
<svg width="279pt" height="66pt"
 viewBox="0.00 0.00 279.00 66.00" xmlns="http://www.w3.org/2000/svg" xmlns:xlink="http://www.w3.org/1999/xlink">
<g id="graph0" class="graph" transform="scale(1 1) rotate(0) translate(4 62)">
<title>Tree234::TryRightRotate</title>
<polygon fill="white" stroke="transparent" points="-4,4 -4,-62 275,-62 275,4 -4,4"/>
<!-- Node1 -->
<g id="node1" class="node">
<title>Node1</title>
<g id="a_node1"><a xlink:title="A handy function to try if we can do a right rotate to the target node.">
<polygon fill="#bfbfbf" stroke="black" points="0,-19.5 0,-38.5 125,-38.5 125,-19.5 0,-19.5"/>
<text text-anchor="middle" x="62.5" y="-26.5" font-family="Helvetica,sans-Serif" font-size="10.00">Tree234::TryRightRotate</text>
</a>
</g>
</g>
<!-- Node2 -->
<g id="node2" class="node">
<title>Node2</title>
<g id="a_node2"><a xlink:href="../../db/d8b/struct_node.html#a6e5f4f2091b10b1821b655fde157a74c" target="_top" xlink:title="Check if node is a 2&#45;node.">
<polygon fill="white" stroke="black" points="174.5,-38.5 174.5,-57.5 257.5,-57.5 257.5,-38.5 174.5,-38.5"/>
<text text-anchor="middle" x="216" y="-45.5" font-family="Helvetica,sans-Serif" font-size="10.00">Node::Is2Node</text>
</a>
</g>
</g>
<!-- Node1&#45;&gt;Node2 -->
<g id="edge1" class="edge">
<title>Node1&#45;&gt;Node2</title>
<path fill="none" stroke="midnightblue" d="M125.12,-36.73C138.05,-38.35 151.55,-40.04 164.03,-41.61"/>
<polygon fill="midnightblue" stroke="midnightblue" points="163.89,-45.12 174.25,-42.89 164.76,-38.17 163.89,-45.12"/>
</g>
<!-- Node3 -->
<g id="node3" class="node">
<title>Node3</title>
<g id="a_node3"><a xlink:href="../../db/d25/class_tree234.html#af34ba346c5c5ec3a9e0e3ac802be852b" target="_top" xlink:title="Do the actual right rotate operation.">
<polygon fill="white" stroke="black" points="161,-0.5 161,-19.5 271,-19.5 271,-0.5 161,-0.5"/>
<text text-anchor="middle" x="216" y="-7.5" font-family="Helvetica,sans-Serif" font-size="10.00">Tree234::RightRotate</text>
</a>
</g>
</g>
<!-- Node1&#45;&gt;Node3 -->
<g id="edge2" class="edge">
<title>Node1&#45;&gt;Node3</title>
<path fill="none" stroke="midnightblue" d="M125.12,-21.27C133.51,-20.22 142.13,-19.14 150.57,-18.08"/>
<polygon fill="midnightblue" stroke="midnightblue" points="151.25,-21.52 160.73,-16.81 150.38,-14.58 151.25,-21.52"/>
</g>
</g>
</svg>
