<?xml version="1.0" encoding="UTF-8" standalone="no"?>
<!DOCTYPE svg PUBLIC "-//W3C//DTD SVG 1.1//EN"
 "http://www.w3.org/Graphics/SVG/1.1/DTD/svg11.dtd">
<!-- Generated by graphviz version 2.44.1 (20200629.0846)
 -->
<!-- Title: Tree234::Merge Pages: 1 -->
<svg width="216pt" height="218pt"
 viewBox="0.00 0.00 216.00 218.00" xmlns="http://www.w3.org/2000/svg" xmlns:xlink="http://www.w3.org/1999/xlink">
<g id="graph0" class="graph" transform="scale(1 1) rotate(0) translate(4 214)">
<title>Tree234::Merge</title>
<polygon fill="white" stroke="transparent" points="-4,4 -4,-214 212,-214 212,4 -4,4"/>
<!-- Node1 -->
<g id="node1" class="node">
<title>Node1</title>
<g id="a_node1"><a xlink:title="Merge the item at index of the parent node, and its left and right child.">
<polygon fill="#bfbfbf" stroke="black" points="0,-95.5 0,-114.5 85,-114.5 85,-95.5 0,-95.5"/>
<text text-anchor="middle" x="42.5" y="-102.5" font-family="Helvetica,sans-Serif" font-size="10.00">Tree234::Merge</text>
</a>
</g>
</g>
<!-- Node2 -->
<g id="node2" class="node">
<title>Node2</title>
<g id="a_node2"><a xlink:href="../../db/d8b/struct_node.html#aec3cbfe34973f0752071599afe34939b" target="_top" xlink:title="Get the child pointer at position of index.">
<polygon fill="white" stroke="black" points="122.5,-190.5 122.5,-209.5 206.5,-209.5 206.5,-190.5 122.5,-190.5"/>
<text text-anchor="middle" x="164.5" y="-197.5" font-family="Helvetica,sans-Serif" font-size="10.00">Node::GetChild</text>
</a>
</g>
</g>
<!-- Node1&#45;&gt;Node2 -->
<g id="edge1" class="edge">
<title>Node1&#45;&gt;Node2</title>
<path fill="none" stroke="midnightblue" d="M51.22,-114.51C64.25,-130.09 92.03,-161.27 121,-181 123.52,-182.72 126.23,-184.34 129,-185.87"/>
<polygon fill="midnightblue" stroke="midnightblue" points="127.48,-189.02 137.99,-190.36 130.61,-182.76 127.48,-189.02"/>
</g>
<!-- Node3 -->
<g id="node3" class="node">
<title>Node3</title>
<g id="a_node3"><a xlink:href="../../db/d8b/struct_node.html#a711e6d7e2c0318df0842e0caad4cad05" target="_top" xlink:title="Get item of the \index index.">
<polygon fill="white" stroke="black" points="124,-152.5 124,-171.5 205,-171.5 205,-152.5 124,-152.5"/>
<text text-anchor="middle" x="164.5" y="-159.5" font-family="Helvetica,sans-Serif" font-size="10.00">Node::GetItem</text>
</a>
</g>
</g>
<!-- Node1&#45;&gt;Node3 -->
<g id="edge2" class="edge">
<title>Node1&#45;&gt;Node3</title>
<path fill="none" stroke="midnightblue" d="M62.52,-114.56C78.15,-122.36 100.92,-133.59 121,-143 124.68,-144.73 128.56,-146.51 132.41,-148.25"/>
<polygon fill="midnightblue" stroke="midnightblue" points="131.26,-151.57 141.81,-152.48 134.13,-145.19 131.26,-151.57"/>
</g>
<!-- Node4 -->
<g id="node4" class="node">
<title>Node4</title>
<g id="a_node4"><a xlink:href="../../db/d8b/struct_node.html#a6e5f4f2091b10b1821b655fde157a74c" target="_top" xlink:title="Check if node is a 2&#45;node.">
<polygon fill="white" stroke="black" points="123,-114.5 123,-133.5 206,-133.5 206,-114.5 123,-114.5"/>
<text text-anchor="middle" x="164.5" y="-121.5" font-family="Helvetica,sans-Serif" font-size="10.00">Node::Is2Node</text>
</a>
</g>
</g>
<!-- Node1&#45;&gt;Node4 -->
<g id="edge3" class="edge">
<title>Node1&#45;&gt;Node4</title>
<path fill="none" stroke="midnightblue" d="M85.13,-111.59C93.99,-112.99 103.43,-114.49 112.58,-115.94"/>
<polygon fill="midnightblue" stroke="midnightblue" points="112.33,-119.44 122.75,-117.55 113.42,-112.53 112.33,-119.44"/>
</g>
<!-- Node5 -->
<g id="node5" class="node">
<title>Node5</title>
<g id="a_node5"><a xlink:href="../../db/d8b/struct_node.html#a40a68c94b39a93cfbcfbf3c9a34a110c" target="_top" xlink:title="Set child pointer to the position of index.">
<polygon fill="white" stroke="black" points="123,-76.5 123,-95.5 206,-95.5 206,-76.5 123,-76.5"/>
<text text-anchor="middle" x="164.5" y="-83.5" font-family="Helvetica,sans-Serif" font-size="10.00">Node::SetChild</text>
</a>
</g>
</g>
<!-- Node1&#45;&gt;Node5 -->
<g id="edge4" class="edge">
<title>Node1&#45;&gt;Node5</title>
<path fill="none" stroke="midnightblue" d="M85.13,-98.41C93.99,-97.01 103.43,-95.51 112.58,-94.06"/>
<polygon fill="midnightblue" stroke="midnightblue" points="113.42,-97.47 122.75,-92.45 112.33,-90.56 113.42,-97.47"/>
</g>
<!-- Node6 -->
<g id="node6" class="node">
<title>Node6</title>
<g id="a_node6"><a xlink:href="../../db/d8b/struct_node.html#ab5fbabd89ce8e89ccaa9e7371bc37a3d" target="_top" xlink:title="Set the item count of the node.">
<polygon fill="white" stroke="black" points="121,-38.5 121,-57.5 208,-57.5 208,-38.5 121,-38.5"/>
<text text-anchor="middle" x="164.5" y="-45.5" font-family="Helvetica,sans-Serif" font-size="10.00">Node::SetCount</text>
</a>
</g>
</g>
<!-- Node1&#45;&gt;Node6 -->
<g id="edge5" class="edge">
<title>Node1&#45;&gt;Node6</title>
<path fill="none" stroke="midnightblue" d="M62.52,-95.44C78.15,-87.64 100.92,-76.41 121,-67 124.68,-65.27 128.56,-63.49 132.41,-61.75"/>
<polygon fill="midnightblue" stroke="midnightblue" points="134.13,-64.81 141.81,-57.52 131.26,-58.43 134.13,-64.81"/>
</g>
<!-- Node7 -->
<g id="node7" class="node">
<title>Node7</title>
<g id="a_node7"><a xlink:href="../../db/d8b/struct_node.html#a2850fd257fe00ea2e1539325db18947c" target="_top" xlink:title="Set item value at position of index.">
<polygon fill="white" stroke="black" points="124.5,-0.5 124.5,-19.5 204.5,-19.5 204.5,-0.5 124.5,-0.5"/>
<text text-anchor="middle" x="164.5" y="-7.5" font-family="Helvetica,sans-Serif" font-size="10.00">Node::SetItem</text>
</a>
</g>
</g>
<!-- Node1&#45;&gt;Node7 -->
<g id="edge6" class="edge">
<title>Node1&#45;&gt;Node7</title>
<path fill="none" stroke="midnightblue" d="M51.22,-95.49C64.25,-79.91 92.03,-48.73 121,-29 123.52,-27.28 126.23,-25.66 129,-24.13"/>
<polygon fill="midnightblue" stroke="midnightblue" points="130.61,-27.24 137.99,-19.64 127.48,-20.98 130.61,-27.24"/>
</g>
</g>
</svg>
