<?xml version="1.0" encoding="UTF-8" standalone="no"?>
<!DOCTYPE svg PUBLIC "-//W3C//DTD SVG 1.1//EN"
 "http://www.w3.org/Graphics/SVG/1.1/DTD/svg11.dtd">
<!-- Generated by graphviz version 2.44.1 (20200629.0846)
 -->
<!-- Title: Tree234::InsertPreSplit Pages: 1 -->
<svg width="589pt" height="142pt"
 viewBox="0.00 0.00 589.00 142.00" xmlns="http://www.w3.org/2000/svg" xmlns:xlink="http://www.w3.org/1999/xlink">
<g id="graph0" class="graph" transform="scale(1 1) rotate(0) translate(4 138)">
<title>Tree234::InsertPreSplit</title>
<polygon fill="white" stroke="transparent" points="-4,4 -4,-138 585,-138 585,4 -4,4"/>
<!-- Node1 -->
<g id="node1" class="node">
<title>Node1</title>
<g id="a_node1"><a xlink:title="A insert implementation of pre&#45;split.">
<polygon fill="#bfbfbf" stroke="black" points="0,-38.5 0,-57.5 117,-57.5 117,-38.5 0,-38.5"/>
<text text-anchor="middle" x="58.5" y="-45.5" font-family="Helvetica,sans-Serif" font-size="10.00">Tree234::InsertPreSplit</text>
</a>
</g>
</g>
<!-- Node2 -->
<g id="node2" class="node">
<title>Node2</title>
<g id="a_node2"><a target="_blank" xlink:href="http://en.cppreference.com/w/cpp/memory/unique_ptr/get.html#" target="_top" xlink:title=" ">
<polygon fill="white" stroke="black" points="172.5,-76.5 172.5,-95.5 273.5,-95.5 273.5,-76.5 172.5,-76.5"/>
<text text-anchor="middle" x="223" y="-83.5" font-family="Helvetica,sans-Serif" font-size="10.00">std::unique_ptr::get</text>
</a>
</g>
</g>
<!-- Node1&#45;&gt;Node2 -->
<g id="edge1" class="edge">
<title>Node1&#45;&gt;Node2</title>
<path fill="none" stroke="midnightblue" d="M100.51,-57.59C122.05,-62.63 148.63,-68.84 171.44,-74.18"/>
<polygon fill="midnightblue" stroke="midnightblue" points="170.75,-77.61 181.29,-76.48 172.35,-70.79 170.75,-77.61"/>
</g>
<!-- Node3 -->
<g id="node3" class="node">
<title>Node3</title>
<g id="a_node3"><a xlink:href="../../db/d25/class_tree234.html#a5ceb8cd694a3edb6e70ed3dd54ee4521" target="_top" xlink:title="Merge node to a not&#45;full target node.">
<polygon fill="white" stroke="black" points="153,-38.5 153,-57.5 293,-57.5 293,-38.5 153,-38.5"/>
<text text-anchor="middle" x="223" y="-45.5" font-family="Helvetica,sans-Serif" font-size="10.00">Tree234::MergeNodeNotFull</text>
</a>
</g>
</g>
<!-- Node1&#45;&gt;Node3 -->
<g id="edge2" class="edge">
<title>Node1&#45;&gt;Node3</title>
<path fill="none" stroke="midnightblue" d="M117.25,-48C125.51,-48 134.13,-48 142.71,-48"/>
<polygon fill="midnightblue" stroke="midnightblue" points="142.76,-51.5 152.76,-48 142.76,-44.5 142.76,-51.5"/>
</g>
<!-- Node9 -->
<g id="node9" class="node">
<title>Node9</title>
<g id="a_node9"><a xlink:href="../../db/d25/class_tree234.html#ae36a2684ad2d5cea087cbb5c7d94e96c" target="_top" xlink:title="Split a 4&#45;node to 1 parent and 2 children, and return the parent node.">
<polygon fill="white" stroke="black" points="172.5,-0.5 172.5,-19.5 273.5,-19.5 273.5,-0.5 172.5,-0.5"/>
<text text-anchor="middle" x="223" y="-7.5" font-family="Helvetica,sans-Serif" font-size="10.00">Tree234::SplitNode</text>
</a>
</g>
</g>
<!-- Node1&#45;&gt;Node9 -->
<g id="edge9" class="edge">
<title>Node1&#45;&gt;Node9</title>
<path fill="none" stroke="midnightblue" d="M100.51,-38.41C122.05,-33.37 148.63,-27.16 171.44,-21.82"/>
<polygon fill="midnightblue" stroke="midnightblue" points="172.35,-25.21 181.29,-19.52 170.75,-18.39 172.35,-25.21"/>
</g>
<!-- Node4 -->
<g id="node4" class="node">
<title>Node4</title>
<g id="a_node4"><a xlink:href="../../db/d8b/struct_node.html#a477404e67bd9114bf8203b47e2a2db20" target="_top" xlink:title="Insert item to the proper position of the node and return the position index.">
<polygon fill="white" stroke="black" points="329,-76.5 329,-95.5 419,-95.5 419,-76.5 329,-76.5"/>
<text text-anchor="middle" x="374" y="-83.5" font-family="Helvetica,sans-Serif" font-size="10.00">Node::InsertItem</text>
</a>
</g>
</g>
<!-- Node3&#45;&gt;Node4 -->
<g id="edge3" class="edge">
<title>Node3&#45;&gt;Node4</title>
<path fill="none" stroke="midnightblue" d="M261.6,-57.59C281.08,-62.56 305.07,-68.68 325.8,-73.96"/>
<polygon fill="midnightblue" stroke="midnightblue" points="325.12,-77.4 335.67,-76.48 326.85,-70.62 325.12,-77.4"/>
</g>
<!-- Node7 -->
<g id="node7" class="node">
<title>Node7</title>
<g id="a_node7"><a xlink:href="../../db/d8b/struct_node.html#a5cb5234ccefa82c8cc49842898131cb6" target="_top" xlink:title="Check if node is a full (4&#45;node)">
<polygon fill="white" stroke="black" points="483,-38.5 483,-57.5 553,-57.5 553,-38.5 483,-38.5"/>
<text text-anchor="middle" x="518" y="-45.5" font-family="Helvetica,sans-Serif" font-size="10.00">Node::IsFull</text>
</a>
</g>
</g>
<!-- Node3&#45;&gt;Node7 -->
<g id="edge7" class="edge">
<title>Node3&#45;&gt;Node7</title>
<path fill="none" stroke="midnightblue" d="M293.07,-48C348.71,-48 425.26,-48 472.9,-48"/>
<polygon fill="midnightblue" stroke="midnightblue" points="472.9,-51.5 482.9,-48 472.9,-44.5 472.9,-51.5"/>
</g>
<!-- Node8 -->
<g id="node8" class="node">
<title>Node8</title>
<g id="a_node8"><a xlink:href="../../db/d8b/struct_node.html#aee5fda5fc04b45a6b287aae043a6c3c9" target="_top" xlink:title="Set child pointer to the position of index.">
<polygon fill="white" stroke="black" points="332.5,-0.5 332.5,-19.5 415.5,-19.5 415.5,-0.5 332.5,-0.5"/>
<text text-anchor="middle" x="374" y="-7.5" font-family="Helvetica,sans-Serif" font-size="10.00">Node::SetChild</text>
</a>
</g>
</g>
<!-- Node3&#45;&gt;Node8 -->
<g id="edge8" class="edge">
<title>Node3&#45;&gt;Node8</title>
<path fill="none" stroke="midnightblue" d="M261.6,-38.41C281.08,-33.44 305.07,-27.32 325.8,-22.04"/>
<polygon fill="midnightblue" stroke="midnightblue" points="326.85,-25.38 335.67,-19.52 325.12,-18.6 326.85,-25.38"/>
</g>
<!-- Node5 -->
<g id="node5" class="node">
<title>Node5</title>
<g id="a_node5"><a xlink:href="../../db/d8b/struct_node.html#ad7920ac641adfec1510768d5504db1a6" target="_top" xlink:title="Check if item is in the node.">
<polygon fill="white" stroke="black" points="475.5,-114.5 475.5,-133.5 560.5,-133.5 560.5,-114.5 475.5,-114.5"/>
<text text-anchor="middle" x="518" y="-121.5" font-family="Helvetica,sans-Serif" font-size="10.00">Node::Contains</text>
</a>
</g>
</g>
<!-- Node4&#45;&gt;Node5 -->
<g id="edge4" class="edge">
<title>Node4&#45;&gt;Node5</title>
<path fill="none" stroke="midnightblue" d="M410.83,-95.59C429.16,-100.49 451.68,-106.52 471.25,-111.76"/>
<polygon fill="midnightblue" stroke="midnightblue" points="470.61,-115.21 481.18,-114.41 472.42,-108.45 470.61,-115.21"/>
</g>
<!-- Node6 -->
<g id="node6" class="node">
<title>Node6</title>
<g id="a_node6"><a xlink:href="../../db/d8b/struct_node.html#a08fe20a013c96ec8a12b70b1399f24ed" target="_top" xlink:title="Insert a value to the index position.">
<polygon fill="white" stroke="black" points="455,-76.5 455,-95.5 581,-95.5 581,-76.5 455,-76.5"/>
<text text-anchor="middle" x="518" y="-83.5" font-family="Helvetica,sans-Serif" font-size="10.00">Node::InsertItemByIndex</text>
</a>
</g>
</g>
<!-- Node4&#45;&gt;Node6 -->
<g id="edge5" class="edge">
<title>Node4&#45;&gt;Node6</title>
<path fill="none" stroke="midnightblue" d="M419.15,-86C427.29,-86 435.97,-86 444.68,-86"/>
<polygon fill="midnightblue" stroke="midnightblue" points="444.89,-89.5 454.89,-86 444.89,-82.5 444.89,-89.5"/>
</g>
<!-- Node4&#45;&gt;Node7 -->
<g id="edge6" class="edge">
<title>Node4&#45;&gt;Node7</title>
<path fill="none" stroke="midnightblue" d="M410.83,-76.41C429.67,-71.37 452.92,-65.15 472.86,-59.81"/>
<polygon fill="midnightblue" stroke="midnightblue" points="473.89,-63.16 482.65,-57.19 472.08,-56.4 473.89,-63.16"/>
</g>
</g>
</svg>
