<?xml version="1.0" encoding="UTF-8" standalone="no"?>
<!DOCTYPE svg PUBLIC "-//W3C//DTD SVG 1.1//EN"
 "http://www.w3.org/Graphics/SVG/1.1/DTD/svg11.dtd">
<!-- Generated by graphviz version 2.44.1 (20200629.0846)
 -->
<!-- Title: Tree234::DeleteNode Pages: 1 -->
<svg width="242pt" height="66pt"
 viewBox="0.00 0.00 242.00 66.00" xmlns="http://www.w3.org/2000/svg" xmlns:xlink="http://www.w3.org/1999/xlink">
<g id="graph0" class="graph" transform="scale(1 1) rotate(0) translate(4 62)">
<title>Tree234::DeleteNode</title>
<polygon fill="white" stroke="transparent" points="-4,4 -4,-62 238,-62 238,4 -4,4"/>
<!-- Node1 -->
<g id="node1" class="node">
<title>Node1</title>
<g id="a_node1"><a xlink:title="Recursive release the tree.">
<polygon fill="#bfbfbf" stroke="black" points="0,-19.5 0,-38.5 110,-38.5 110,-19.5 0,-19.5"/>
<text text-anchor="middle" x="55" y="-26.5" font-family="Helvetica,sans-Serif" font-size="10.00">Tree234::DeleteNode</text>
</a>
</g>
</g>
<!-- Node2 -->
<g id="node2" class="node">
<title>Node2</title>
<g id="a_node2"><a xlink:href="../../db/d8b/struct_node.html#aed57badf844a6298f225260fea386668" target="_top" xlink:title="Get the child pointer at position of index.">
<polygon fill="white" stroke="black" points="148,-38.5 148,-57.5 232,-57.5 232,-38.5 148,-38.5"/>
<text text-anchor="middle" x="190" y="-45.5" font-family="Helvetica,sans-Serif" font-size="10.00">Node::GetChild</text>
</a>
</g>
</g>
<!-- Node1&#45;&gt;Node2 -->
<g id="edge1" class="edge">
<title>Node1&#45;&gt;Node2</title>
<path fill="none" stroke="midnightblue" d="M110.1,-36.73C119.19,-38.03 128.6,-39.37 137.62,-40.66"/>
<polygon fill="midnightblue" stroke="midnightblue" points="137.21,-44.14 147.6,-42.09 138.2,-37.21 137.21,-44.14"/>
</g>
<!-- Node3 -->
<g id="node3" class="node">
<title>Node3</title>
<g id="a_node3"><a xlink:href="../../db/d8b/struct_node.html#a708eb56fa7b54cccb96b8a635276be84" target="_top" xlink:title="Get the item count that current saved in the node.">
<polygon fill="white" stroke="black" points="146,-0.5 146,-19.5 234,-19.5 234,-0.5 146,-0.5"/>
<text text-anchor="middle" x="190" y="-7.5" font-family="Helvetica,sans-Serif" font-size="10.00">Node::GetCount</text>
</a>
</g>
</g>
<!-- Node1&#45;&gt;Node3 -->
<g id="edge2" class="edge">
<title>Node1&#45;&gt;Node3</title>
<path fill="none" stroke="midnightblue" d="M110.1,-21.27C118.58,-20.06 127.35,-18.81 135.82,-17.6"/>
<polygon fill="midnightblue" stroke="midnightblue" points="136.55,-21.03 145.96,-16.15 135.56,-14.1 136.55,-21.03"/>
</g>
</g>
</svg>
