<?xml version="1.0" encoding="UTF-8" standalone="no"?>
<!DOCTYPE svg PUBLIC "-//W3C//DTD SVG 1.1//EN"
 "http://www.w3.org/Graphics/SVG/1.1/DTD/svg11.dtd">
<!-- Generated by graphviz version 2.44.1 (20200629.0846)
 -->
<!-- Title: Tree234::Remove Pages: 1 -->
<svg width="608pt" height="522pt"
 viewBox="0.00 0.00 608.00 522.00" xmlns="http://www.w3.org/2000/svg" xmlns:xlink="http://www.w3.org/1999/xlink">
<g id="graph0" class="graph" transform="scale(1 1) rotate(0) translate(4 518)">
<title>Tree234::Remove</title>
<polygon fill="white" stroke="transparent" points="-4,4 -4,-518 604,-518 604,4 -4,4"/>
<!-- Node1 -->
<g id="node1" class="node">
<title>Node1</title>
<g id="a_node1"><a xlink:title="Remove item from tree.">
<polygon fill="#bfbfbf" stroke="black" points="0,-152.5 0,-171.5 95,-171.5 95,-152.5 0,-152.5"/>
<text text-anchor="middle" x="47.5" y="-159.5" font-family="Helvetica,sans-Serif" font-size="10.00">Tree234::Remove</text>
</a>
</g>
</g>
<!-- Node2 -->
<g id="node2" class="node">
<title>Node2</title>
<g id="a_node2"><a xlink:href="../../db/d25/class_tree234.html#a5e94a9b2c31a18e155e301ddead9a543" target="_top" xlink:title="Main function implement the pre&#45;merge remove operation.">
<polygon fill="white" stroke="black" points="131,-152.5 131,-171.5 268,-171.5 268,-152.5 131,-152.5"/>
<text text-anchor="middle" x="199.5" y="-159.5" font-family="Helvetica,sans-Serif" font-size="10.00">Tree234::RemovePreMerge</text>
</a>
</g>
</g>
<!-- Node1&#45;&gt;Node2 -->
<g id="edge1" class="edge">
<title>Node1&#45;&gt;Node2</title>
<path fill="none" stroke="midnightblue" d="M95.14,-162C103.3,-162 111.98,-162 120.72,-162"/>
<polygon fill="midnightblue" stroke="midnightblue" points="120.97,-165.5 130.97,-162 120.97,-158.5 120.97,-165.5"/>
</g>
<!-- Node3 -->
<g id="node3" class="node">
<title>Node3</title>
<g id="a_node3"><a xlink:href="../../db/d25/class_tree234.html#a75fde49a2a57da1f234361181ea78183" target="_top" xlink:title="Get the max item of the tree.">
<polygon fill="white" stroke="black" points="304,-456.5 304,-475.5 435,-475.5 435,-456.5 304,-456.5"/>
<text text-anchor="middle" x="369.5" y="-463.5" font-family="Helvetica,sans-Serif" font-size="10.00">Tree234::GetTreeMaxItem</text>
</a>
</g>
</g>
<!-- Node2&#45;&gt;Node3 -->
<g id="edge2" class="edge">
<title>Node2&#45;&gt;Node3</title>
<path fill="none" stroke="midnightblue" d="M202.88,-171.74C211.72,-206.54 245.22,-327 304,-409 315.5,-425.04 332.3,-439.7 345.87,-450.14"/>
<polygon fill="midnightblue" stroke="midnightblue" points="344.12,-453.2 354.24,-456.36 348.3,-447.58 344.12,-453.2"/>
</g>
<!-- Node6 -->
<g id="node6" class="node">
<title>Node6</title>
<g id="a_node6"><a xlink:href="../../db/d25/class_tree234.html#a66c20ef9cefbe058bdfc3e49180ef77d" target="_top" xlink:title="Get the min item of the tree.">
<polygon fill="white" stroke="black" points="305.5,-380.5 305.5,-399.5 433.5,-399.5 433.5,-380.5 305.5,-380.5"/>
<text text-anchor="middle" x="369.5" y="-387.5" font-family="Helvetica,sans-Serif" font-size="10.00">Tree234::GetTreeMinItem</text>
</a>
</g>
</g>
<!-- Node2&#45;&gt;Node6 -->
<g id="edge5" class="edge">
<title>Node2&#45;&gt;Node6</title>
<path fill="none" stroke="midnightblue" d="M207.5,-171.51C233.12,-206.27 321.96,-326.84 355.52,-372.39"/>
<polygon fill="midnightblue" stroke="midnightblue" points="352.72,-374.48 361.47,-380.45 358.35,-370.33 352.72,-374.48"/>
</g>
<!-- Node9 -->
<g id="node9" class="node">
<title>Node9</title>
<g id="a_node9"><a xlink:href="../../db/d8b/struct_node.html#a6e5f4f2091b10b1821b655fde157a74c" target="_top" xlink:title="Check if node is a 2&#45;node.">
<polygon fill="white" stroke="black" points="494,-152.5 494,-171.5 577,-171.5 577,-152.5 494,-152.5"/>
<text text-anchor="middle" x="535.5" y="-159.5" font-family="Helvetica,sans-Serif" font-size="10.00">Node::Is2Node</text>
</a>
</g>
</g>
<!-- Node2&#45;&gt;Node9 -->
<g id="edge8" class="edge">
<title>Node2&#45;&gt;Node9</title>
<path fill="none" stroke="midnightblue" d="M242.56,-171.51C261.27,-175.28 283.62,-179.15 304,-181 361.98,-186.28 377.04,-186.48 435,-181 451.09,-179.48 468.44,-176.6 484.08,-173.54"/>
<polygon fill="midnightblue" stroke="midnightblue" points="484.98,-176.93 494.08,-171.51 483.59,-170.07 484.98,-176.93"/>
</g>
<!-- Node10 -->
<g id="node10" class="node">
<title>Node10</title>
<g id="a_node10"><a xlink:href="../../db/d8b/struct_node.html#ae4c28fa9b7efdb560563104fcb9dfb45" target="_top" xlink:title="Check if node is a 3&#45;node or 4&#45;node, this is useful when we delete item from 2&#45;3&#45;4 tree.">
<polygon fill="white" stroke="black" points="325.5,-0.5 325.5,-19.5 413.5,-19.5 413.5,-0.5 325.5,-0.5"/>
<text text-anchor="middle" x="369.5" y="-7.5" font-family="Helvetica,sans-Serif" font-size="10.00">Node::Is34Node</text>
</a>
</g>
</g>
<!-- Node2&#45;&gt;Node10 -->
<g id="edge9" class="edge">
<title>Node2&#45;&gt;Node10</title>
<path fill="none" stroke="midnightblue" d="M205.92,-152.17C219.42,-128.51 256.9,-67.87 304,-34 309.73,-29.88 316.26,-26.38 322.91,-23.43"/>
<polygon fill="midnightblue" stroke="midnightblue" points="324.68,-26.49 332.65,-19.51 322.07,-20 324.68,-26.49"/>
</g>
<!-- Node11 -->
<g id="node11" class="node">
<title>Node11</title>
<g id="a_node11"><a xlink:href="../../db/d25/class_tree234.html#ab3733ff7bf637266d77820a49d4999bc" target="_top" xlink:title="Do the actual left rotate operation.">
<polygon fill="white" stroke="black" points="483.5,-114.5 483.5,-133.5 587.5,-133.5 587.5,-114.5 483.5,-114.5"/>
<text text-anchor="middle" x="535.5" y="-121.5" font-family="Helvetica,sans-Serif" font-size="10.00">Tree234::LeftRotate</text>
</a>
</g>
</g>
<!-- Node2&#45;&gt;Node11 -->
<g id="edge10" class="edge">
<title>Node2&#45;&gt;Node11</title>
<path fill="none" stroke="midnightblue" d="M246.97,-152.45C264.75,-149.07 285.26,-145.49 304,-143 360.99,-135.44 426.33,-130.39 472.85,-127.41"/>
<polygon fill="midnightblue" stroke="midnightblue" points="473.31,-130.89 483.08,-126.77 472.88,-123.9 473.31,-130.89"/>
</g>
<!-- Node12 -->
<g id="node12" class="node">
<title>Node12</title>
<g id="a_node12"><a xlink:href="../../db/d25/class_tree234.html#ae3ff8c703d85c4c5d0abd13c08c72151" target="_top" xlink:title="Merge the item at index of the parent node, and its left and right child.">
<polygon fill="white" stroke="black" points="327,-228.5 327,-247.5 412,-247.5 412,-228.5 327,-228.5"/>
<text text-anchor="middle" x="369.5" y="-235.5" font-family="Helvetica,sans-Serif" font-size="10.00">Tree234::Merge</text>
</a>
</g>
</g>
<!-- Node2&#45;&gt;Node12 -->
<g id="edge11" class="edge">
<title>Node2&#45;&gt;Node12</title>
<path fill="none" stroke="midnightblue" d="M218.17,-171.62C238.55,-182.54 273.21,-200.59 304,-214 312.77,-217.82 322.36,-221.6 331.4,-224.99"/>
<polygon fill="midnightblue" stroke="midnightblue" points="330.34,-228.32 340.93,-228.49 332.76,-221.76 330.34,-228.32"/>
</g>
<!-- Node18 -->
<g id="node18" class="node">
<title>Node18</title>
<g id="a_node18"><a xlink:href="../../db/d25/class_tree234.html#a59494707db877098d0ffb770437d6a10" target="_top" xlink:title="Do the actual right rotate operation.">
<polygon fill="white" stroke="black" points="480.5,-57.5 480.5,-76.5 590.5,-76.5 590.5,-57.5 480.5,-57.5"/>
<text text-anchor="middle" x="535.5" y="-64.5" font-family="Helvetica,sans-Serif" font-size="10.00">Tree234::RightRotate</text>
</a>
</g>
</g>
<!-- Node2&#45;&gt;Node18 -->
<g id="edge18" class="edge">
<title>Node2&#45;&gt;Node18</title>
<path fill="none" stroke="midnightblue" d="M207.1,-152.28C221.69,-131.77 259,-84.52 304,-67 360.4,-45.04 430.61,-49.03 478.63,-55.97"/>
<polygon fill="midnightblue" stroke="midnightblue" points="478.11,-59.43 488.52,-57.49 479.17,-52.51 478.11,-59.43"/>
</g>
<!-- Node19 -->
<g id="node19" class="node">
<title>Node19</title>
<g id="a_node19"><a xlink:href="../../db/d25/class_tree234.html#ad5b21cf04d1fab3d088ac00582c521c7" target="_top" xlink:title="A handy function to try if we can do a left rotate to the target node.">
<polygon fill="white" stroke="black" points="310.5,-152.5 310.5,-171.5 428.5,-171.5 428.5,-152.5 310.5,-152.5"/>
<text text-anchor="middle" x="369.5" y="-159.5" font-family="Helvetica,sans-Serif" font-size="10.00">Tree234::TryLeftRotate</text>
</a>
</g>
</g>
<!-- Node2&#45;&gt;Node19 -->
<g id="edge19" class="edge">
<title>Node2&#45;&gt;Node19</title>
<path fill="none" stroke="midnightblue" d="M268.35,-162C278.8,-162 289.59,-162 300.06,-162"/>
<polygon fill="midnightblue" stroke="midnightblue" points="300.38,-165.5 310.38,-162 300.38,-158.5 300.38,-165.5"/>
</g>
<!-- Node20 -->
<g id="node20" class="node">
<title>Node20</title>
<g id="a_node20"><a xlink:href="../../db/d25/class_tree234.html#added89278e7bb87417a73918682a985e" target="_top" xlink:title="A handy function to try if we can do a right rotate to the target node.">
<polygon fill="white" stroke="black" points="307,-76.5 307,-95.5 432,-95.5 432,-76.5 307,-76.5"/>
<text text-anchor="middle" x="369.5" y="-83.5" font-family="Helvetica,sans-Serif" font-size="10.00">Tree234::TryRightRotate</text>
</a>
</g>
</g>
<!-- Node2&#45;&gt;Node20 -->
<g id="edge22" class="edge">
<title>Node2&#45;&gt;Node20</title>
<path fill="none" stroke="midnightblue" d="M218.17,-152.38C238.55,-141.46 273.21,-123.41 304,-110 312.77,-106.18 322.36,-102.4 331.4,-99.01"/>
<polygon fill="midnightblue" stroke="midnightblue" points="332.76,-102.24 340.93,-95.51 330.34,-95.68 332.76,-102.24"/>
</g>
<!-- Node4 -->
<g id="node4" class="node">
<title>Node4</title>
<g id="a_node4"><a xlink:href="../../db/d8b/struct_node.html#a9b1b0f38e06f2be2f3287f737882d422" target="_top" xlink:title="Get max item (rightmost) in the current node.">
<polygon fill="white" stroke="black" points="485.5,-494.5 485.5,-513.5 585.5,-513.5 585.5,-494.5 485.5,-494.5"/>
<text text-anchor="middle" x="535.5" y="-501.5" font-family="Helvetica,sans-Serif" font-size="10.00">Node::GetMaxItem</text>
</a>
</g>
</g>
<!-- Node3&#45;&gt;Node4 -->
<g id="edge3" class="edge">
<title>Node3&#45;&gt;Node4</title>
<path fill="none" stroke="midnightblue" d="M411.88,-475.59C433.62,-480.63 460.46,-486.84 483.47,-492.18"/>
<polygon fill="midnightblue" stroke="midnightblue" points="482.88,-495.63 493.41,-494.48 484.46,-488.81 482.88,-495.63"/>
</g>
<!-- Node5 -->
<g id="node5" class="node">
<title>Node5</title>
<g id="a_node5"><a xlink:href="../../db/d8b/struct_node.html#a1e2c6a52b704f81caced187e5dc7735e" target="_top" xlink:title="Get rightmose child of the current node.">
<polygon fill="white" stroke="black" points="471,-456.5 471,-475.5 600,-475.5 600,-456.5 471,-456.5"/>
<text text-anchor="middle" x="535.5" y="-463.5" font-family="Helvetica,sans-Serif" font-size="10.00">Node::GetRightmostChild</text>
</a>
</g>
</g>
<!-- Node3&#45;&gt;Node5 -->
<g id="edge4" class="edge">
<title>Node3&#45;&gt;Node5</title>
<path fill="none" stroke="midnightblue" d="M435.32,-466C443.66,-466 452.24,-466 460.71,-466"/>
<polygon fill="midnightblue" stroke="midnightblue" points="460.96,-469.5 470.96,-466 460.96,-462.5 460.96,-469.5"/>
</g>
<!-- Node7 -->
<g id="node7" class="node">
<title>Node7</title>
<g id="a_node7"><a xlink:href="../../db/d8b/struct_node.html#aa1b7794370f98b1e5b5b8190ea7d7b67" target="_top" xlink:title="Get leftmose child of the current node.">
<polygon fill="white" stroke="black" points="474.5,-418.5 474.5,-437.5 596.5,-437.5 596.5,-418.5 474.5,-418.5"/>
<text text-anchor="middle" x="535.5" y="-425.5" font-family="Helvetica,sans-Serif" font-size="10.00">Node::GetLeftmostChild</text>
</a>
</g>
</g>
<!-- Node6&#45;&gt;Node7 -->
<g id="edge6" class="edge">
<title>Node6&#45;&gt;Node7</title>
<path fill="none" stroke="midnightblue" d="M411.88,-399.59C433.62,-404.63 460.46,-410.84 483.47,-416.18"/>
<polygon fill="midnightblue" stroke="midnightblue" points="482.88,-419.63 493.41,-418.48 484.46,-412.81 482.88,-419.63"/>
</g>
<!-- Node8 -->
<g id="node8" class="node">
<title>Node8</title>
<g id="a_node8"><a xlink:href="../../db/d8b/struct_node.html#a3cbce1931da13d8db8f1d350ae841db5" target="_top" xlink:title="get min item (leftmost) in the current node">
<polygon fill="white" stroke="black" points="487,-380.5 487,-399.5 584,-399.5 584,-380.5 487,-380.5"/>
<text text-anchor="middle" x="535.5" y="-387.5" font-family="Helvetica,sans-Serif" font-size="10.00">Node::GetMinItem</text>
</a>
</g>
</g>
<!-- Node6&#45;&gt;Node8 -->
<g id="edge7" class="edge">
<title>Node6&#45;&gt;Node8</title>
<path fill="none" stroke="midnightblue" d="M433.91,-390C447.91,-390 462.68,-390 476.46,-390"/>
<polygon fill="midnightblue" stroke="midnightblue" points="476.78,-393.5 486.78,-390 476.78,-386.5 476.78,-393.5"/>
</g>
<!-- Node12&#45;&gt;Node9 -->
<g id="edge14" class="edge">
<title>Node12&#45;&gt;Node9</title>
<path fill="none" stroke="midnightblue" d="M403.46,-228.49C413.94,-224.76 425.32,-219.92 435,-214 453.51,-202.67 452.12,-191.72 471,-181 475.16,-178.64 479.64,-176.54 484.23,-174.69"/>
<polygon fill="midnightblue" stroke="midnightblue" points="485.55,-177.94 493.74,-171.22 483.15,-171.36 485.55,-177.94"/>
</g>
<!-- Node13 -->
<g id="node13" class="node">
<title>Node13</title>
<g id="a_node13"><a xlink:href="../../db/d8b/struct_node.html#aec3cbfe34973f0752071599afe34939b" target="_top" xlink:title="Get the child pointer at position of index.">
<polygon fill="white" stroke="black" points="493.5,-304.5 493.5,-323.5 577.5,-323.5 577.5,-304.5 493.5,-304.5"/>
<text text-anchor="middle" x="535.5" y="-311.5" font-family="Helvetica,sans-Serif" font-size="10.00">Node::GetChild</text>
</a>
</g>
</g>
<!-- Node12&#45;&gt;Node13 -->
<g id="edge12" class="edge">
<title>Node12&#45;&gt;Node13</title>
<path fill="none" stroke="midnightblue" d="M384.95,-247.58C404.01,-259.89 438.9,-281.3 471,-295 476.36,-297.29 482.08,-299.41 487.81,-301.35"/>
<polygon fill="midnightblue" stroke="midnightblue" points="486.81,-304.7 497.4,-304.43 488.95,-298.04 486.81,-304.7"/>
</g>
<!-- Node14 -->
<g id="node14" class="node">
<title>Node14</title>
<g id="a_node14"><a xlink:href="../../db/d8b/struct_node.html#a711e6d7e2c0318df0842e0caad4cad05" target="_top" xlink:title="Get item of the \index index.">
<polygon fill="white" stroke="black" points="495,-266.5 495,-285.5 576,-285.5 576,-266.5 495,-266.5"/>
<text text-anchor="middle" x="535.5" y="-273.5" font-family="Helvetica,sans-Serif" font-size="10.00">Node::GetItem</text>
</a>
</g>
</g>
<!-- Node12&#45;&gt;Node14 -->
<g id="edge13" class="edge">
<title>Node12&#45;&gt;Node14</title>
<path fill="none" stroke="midnightblue" d="M411.88,-247.59C434.04,-252.72 461.48,-259.08 484.78,-264.48"/>
<polygon fill="midnightblue" stroke="midnightblue" points="484.29,-267.96 494.83,-266.81 485.87,-261.14 484.29,-267.96"/>
</g>
<!-- Node15 -->
<g id="node15" class="node">
<title>Node15</title>
<g id="a_node15"><a xlink:href="../../db/d8b/struct_node.html#a40a68c94b39a93cfbcfbf3c9a34a110c" target="_top" xlink:title="Set child pointer to the position of index.">
<polygon fill="white" stroke="black" points="494,-228.5 494,-247.5 577,-247.5 577,-228.5 494,-228.5"/>
<text text-anchor="middle" x="535.5" y="-235.5" font-family="Helvetica,sans-Serif" font-size="10.00">Node::SetChild</text>
</a>
</g>
</g>
<!-- Node12&#45;&gt;Node15 -->
<g id="edge15" class="edge">
<title>Node12&#45;&gt;Node15</title>
<path fill="none" stroke="midnightblue" d="M412.31,-238C434.03,-238 460.76,-238 483.67,-238"/>
<polygon fill="midnightblue" stroke="midnightblue" points="483.9,-241.5 493.9,-238 483.9,-234.5 483.9,-241.5"/>
</g>
<!-- Node16 -->
<g id="node16" class="node">
<title>Node16</title>
<g id="a_node16"><a xlink:href="../../db/d8b/struct_node.html#ab5fbabd89ce8e89ccaa9e7371bc37a3d" target="_top" xlink:title="Set the item count of the node.">
<polygon fill="white" stroke="black" points="492,-190.5 492,-209.5 579,-209.5 579,-190.5 492,-190.5"/>
<text text-anchor="middle" x="535.5" y="-197.5" font-family="Helvetica,sans-Serif" font-size="10.00">Node::SetCount</text>
</a>
</g>
</g>
<!-- Node12&#45;&gt;Node16 -->
<g id="edge16" class="edge">
<title>Node12&#45;&gt;Node16</title>
<path fill="none" stroke="midnightblue" d="M411.88,-228.41C433.62,-223.37 460.46,-217.16 483.47,-211.82"/>
<polygon fill="midnightblue" stroke="midnightblue" points="484.46,-215.19 493.41,-209.52 482.88,-208.37 484.46,-215.19"/>
</g>
<!-- Node17 -->
<g id="node17" class="node">
<title>Node17</title>
<g id="a_node17"><a xlink:href="../../db/d8b/struct_node.html#a2850fd257fe00ea2e1539325db18947c" target="_top" xlink:title="Set item value at position of index.">
<polygon fill="white" stroke="black" points="495.5,-342.5 495.5,-361.5 575.5,-361.5 575.5,-342.5 495.5,-342.5"/>
<text text-anchor="middle" x="535.5" y="-349.5" font-family="Helvetica,sans-Serif" font-size="10.00">Node::SetItem</text>
</a>
</g>
</g>
<!-- Node12&#45;&gt;Node17 -->
<g id="edge17" class="edge">
<title>Node12&#45;&gt;Node17</title>
<path fill="none" stroke="midnightblue" d="M377.99,-247.62C393.37,-266.72 430.46,-309.57 471,-333 475.55,-335.63 480.51,-337.93 485.57,-339.93"/>
<polygon fill="midnightblue" stroke="midnightblue" points="484.77,-343.36 495.36,-343.41 487.12,-336.76 484.77,-343.36"/>
</g>
<!-- Node19&#45;&gt;Node9 -->
<g id="edge20" class="edge">
<title>Node19&#45;&gt;Node9</title>
<path fill="none" stroke="midnightblue" d="M428.78,-162C446.62,-162 466.1,-162 483.43,-162"/>
<polygon fill="midnightblue" stroke="midnightblue" points="483.9,-165.5 493.9,-162 483.9,-158.5 483.9,-165.5"/>
</g>
<!-- Node19&#45;&gt;Node11 -->
<g id="edge21" class="edge">
<title>Node19&#45;&gt;Node11</title>
<path fill="none" stroke="midnightblue" d="M411.88,-152.41C433.62,-147.37 460.46,-141.16 483.47,-135.82"/>
<polygon fill="midnightblue" stroke="midnightblue" points="484.46,-139.19 493.41,-133.52 482.88,-132.37 484.46,-139.19"/>
</g>
<!-- Node20&#45;&gt;Node9 -->
<g id="edge23" class="edge">
<title>Node20&#45;&gt;Node9</title>
<path fill="none" stroke="midnightblue" d="M384.95,-95.58C404.01,-107.89 438.9,-129.3 471,-143 476.36,-145.29 482.08,-147.41 487.81,-149.35"/>
<polygon fill="midnightblue" stroke="midnightblue" points="486.81,-152.7 497.4,-152.43 488.95,-146.04 486.81,-152.7"/>
</g>
<!-- Node20&#45;&gt;Node18 -->
<g id="edge24" class="edge">
<title>Node20&#45;&gt;Node18</title>
<path fill="none" stroke="midnightblue" d="M432.03,-78.87C444.58,-77.42 457.82,-75.88 470.45,-74.42"/>
<polygon fill="midnightblue" stroke="midnightblue" points="470.9,-77.89 480.44,-73.26 470.1,-70.94 470.9,-77.89"/>
</g>
</g>
</svg>
