<?xml version="1.0" encoding="UTF-8" standalone="no"?>
<!DOCTYPE svg PUBLIC "-//W3C//DTD SVG 1.1//EN"
 "http://www.w3.org/Graphics/SVG/1.1/DTD/svg11.dtd">
<!-- Generated by graphviz version 2.44.1 (20200629.0846)
 -->
<!-- Title: Tree234::RemovePreMerge Pages: 1 -->
<!--zoomable 522 -->
<svg id="main" version="1.1" xmlns="http://www.w3.org/2000/svg" xmlns:xlink="http://www.w3.org/1999/xlink" xml:space="preserve" onload="init(evt)">
<style type="text/css"><![CDATA[
.edge:hover path { stroke: red; }
.edge:hover polygon { stroke: red; fill: red; }
]]></style>
<script type="text/javascript"><![CDATA[
var edges = document.getElementsByTagName('g');
if (edges && edges.length) {
  for (var i=0;i<edges.length;i++) {
    if (edges[i].id.substr(0,4)=='edge') {
      edges[i].setAttribute('class','edge');
    }
  }
}
]]></script>
        <defs>
                <circle id="rim" cx="0" cy="0" r="7"/>
                <circle id="rim2" cx="0" cy="0" r="3.5"/>
                <g id="zoomPlus">
                        <use xlink:href="#rim" fill="#404040">
                                <set attributeName="fill" to="#808080" begin="zoomplus.mouseover" end="zoomplus.mouseout"/>
                        </use>
                        <path d="M-4,0h8M0,-4v8" fill="none" stroke="white" stroke-width="1.5" pointer-events="none"/>
                </g>
                <g id="zoomMin">
                        <use xlink:href="#rim" fill="#404040">
                                <set attributeName="fill" to="#808080" begin="zoomminus.mouseover" end="zoomminus.mouseout"/>
                        </use>
                        <path d="M-4,0h8" fill="none" stroke="white" stroke-width="1.5" pointer-events="none"/>
                </g>
                <g id="dirArrow">
                        <path fill="none" stroke="white" stroke-width="1.5" d="M0,-3.0v7 M-2.5,-0.5L0,-3.0L2.5,-0.5"/>
                </g>
               <g id="resetDef">
                       <use xlink:href="#rim2" fill="#404040">
                               <set attributeName="fill" to="#808080" begin="reset.mouseover" end="reset.mouseout"/>
                       </use>
               </g>
        </defs>

<script type="text/javascript">
var viewWidth = 477;
var viewHeight = 522;
var sectionId = 'dynsection-6';
</script>
<script xlink:href="../../svgpan.js"/>
<svg id="graph" class="graph">
<g id="viewport">
<title>Tree234::RemovePreMerge</title>
<polygon fill="white" stroke="transparent" points="-4,4 -4,-518 473,-518 473,4 -4,4"/>
<!-- Node1 -->
<g id="node1" class="node">
<title>Node1</title>
<g id="a_node1"><a xlink:title="main function implement the pre&#45;merge remove operation">
<polygon fill="#bfbfbf" stroke="black" points="0,-152.5 0,-171.5 137,-171.5 137,-152.5 0,-152.5"/>
<text text-anchor="middle" x="68.5" y="-159.5" font-family="Helvetica,sans-Serif" font-size="10.00">Tree234::RemovePreMerge</text>
</a>
</g>
</g>
<!-- Node2 -->
<g id="node2" class="node">
<title>Node2</title>
<g id="a_node2"><a xlink:href="../../db/d25/class_tree234.html#a75fde49a2a57da1f234361181ea78183" target="_top" xlink:title="get the max item of the tree">
<polygon fill="white" stroke="black" points="173,-456.5 173,-475.5 304,-475.5 304,-456.5 173,-456.5"/>
<text text-anchor="middle" x="238.5" y="-463.5" font-family="Helvetica,sans-Serif" font-size="10.00">Tree234::GetTreeMaxItem</text>
</a>
</g>
</g>
<!-- Node1&#45;&gt;Node2 -->
<g id="edge1" class="edge">
<title>Node1&#45;&gt;Node2</title>
<path fill="none" stroke="midnightblue" d="M71.88,-171.74C80.72,-206.54 114.22,-327 173,-409 184.5,-425.04 201.3,-439.7 214.87,-450.14"/>
<polygon fill="midnightblue" stroke="midnightblue" points="213.12,-453.2 223.24,-456.36 217.3,-447.58 213.12,-453.2"/>
</g>
<!-- Node5 -->
<g id="node5" class="node">
<title>Node5</title>
<g id="a_node5"><a xlink:href="../../db/d25/class_tree234.html#a66c20ef9cefbe058bdfc3e49180ef77d" target="_top" xlink:title="get the min item of the tree">
<polygon fill="white" stroke="black" points="174.5,-380.5 174.5,-399.5 302.5,-399.5 302.5,-380.5 174.5,-380.5"/>
<text text-anchor="middle" x="238.5" y="-387.5" font-family="Helvetica,sans-Serif" font-size="10.00">Tree234::GetTreeMinItem</text>
</a>
</g>
</g>
<!-- Node1&#45;&gt;Node5 -->
<g id="edge4" class="edge">
<title>Node1&#45;&gt;Node5</title>
<path fill="none" stroke="midnightblue" d="M76.5,-171.51C102.12,-206.27 190.96,-326.84 224.52,-372.39"/>
<polygon fill="midnightblue" stroke="midnightblue" points="221.72,-374.48 230.47,-380.45 227.35,-370.33 221.72,-374.48"/>
</g>
<!-- Node8 -->
<g id="node8" class="node">
<title>Node8</title>
<g id="a_node8"><a xlink:href="../../db/d8b/struct_node.html#a6e5f4f2091b10b1821b655fde157a74c" target="_top" xlink:title="check if node is a 2&#45;node">
<polygon fill="white" stroke="black" points="363,-152.5 363,-171.5 446,-171.5 446,-152.5 363,-152.5"/>
<text text-anchor="middle" x="404.5" y="-159.5" font-family="Helvetica,sans-Serif" font-size="10.00">Node::Is2Node</text>
</a>
</g>
</g>
<!-- Node1&#45;&gt;Node8 -->
<g id="edge7" class="edge">
<title>Node1&#45;&gt;Node8</title>
<path fill="none" stroke="midnightblue" d="M111.56,-171.51C130.27,-175.28 152.62,-179.15 173,-181 230.98,-186.28 246.04,-186.48 304,-181 320.09,-179.48 337.44,-176.6 353.08,-173.54"/>
<polygon fill="midnightblue" stroke="midnightblue" points="353.98,-176.93 363.08,-171.51 352.59,-170.07 353.98,-176.93"/>
</g>
<!-- Node9 -->
<g id="node9" class="node">
<title>Node9</title>
<g id="a_node9"><a xlink:href="../../db/d8b/struct_node.html#ae4c28fa9b7efdb560563104fcb9dfb45" target="_top" xlink:title="check if node is a 3&#45;node or 4&#45;node, this is useful when we delete item from 2&#45;3&#45;4 tree">
<polygon fill="white" stroke="black" points="194.5,-0.5 194.5,-19.5 282.5,-19.5 282.5,-0.5 194.5,-0.5"/>
<text text-anchor="middle" x="238.5" y="-7.5" font-family="Helvetica,sans-Serif" font-size="10.00">Node::Is34Node</text>
</a>
</g>
</g>
<!-- Node1&#45;&gt;Node9 -->
<g id="edge8" class="edge">
<title>Node1&#45;&gt;Node9</title>
<path fill="none" stroke="midnightblue" d="M74.92,-152.17C88.42,-128.51 125.9,-67.87 173,-34 178.73,-29.88 185.26,-26.38 191.91,-23.43"/>
<polygon fill="midnightblue" stroke="midnightblue" points="193.68,-26.49 201.65,-19.51 191.07,-20 193.68,-26.49"/>
</g>
<!-- Node10 -->
<g id="node10" class="node">
<title>Node10</title>
<g id="a_node10"><a xlink:href="../../db/d25/class_tree234.html#ab3733ff7bf637266d77820a49d4999bc" target="_top" xlink:title="do the actual left rotate operation">
<polygon fill="white" stroke="black" points="352.5,-114.5 352.5,-133.5 456.5,-133.5 456.5,-114.5 352.5,-114.5"/>
<text text-anchor="middle" x="404.5" y="-121.5" font-family="Helvetica,sans-Serif" font-size="10.00">Tree234::LeftRotate</text>
</a>
</g>
</g>
<!-- Node1&#45;&gt;Node10 -->
<g id="edge9" class="edge">
<title>Node1&#45;&gt;Node10</title>
<path fill="none" stroke="midnightblue" d="M115.97,-152.45C133.75,-149.07 154.26,-145.49 173,-143 229.99,-135.44 295.33,-130.39 341.85,-127.41"/>
<polygon fill="midnightblue" stroke="midnightblue" points="342.31,-130.89 352.08,-126.77 341.88,-123.9 342.31,-130.89"/>
</g>
<!-- Node11 -->
<g id="node11" class="node">
<title>Node11</title>
<g id="a_node11"><a xlink:href="../../db/d25/class_tree234.html#ae3ff8c703d85c4c5d0abd13c08c72151" target="_top" xlink:title="merge the item at index of the parent node, and its left and right child">
<polygon fill="white" stroke="black" points="196,-228.5 196,-247.5 281,-247.5 281,-228.5 196,-228.5"/>
<text text-anchor="middle" x="238.5" y="-235.5" font-family="Helvetica,sans-Serif" font-size="10.00">Tree234::Merge</text>
</a>
</g>
</g>
<!-- Node1&#45;&gt;Node11 -->
<g id="edge10" class="edge">
<title>Node1&#45;&gt;Node11</title>
<path fill="none" stroke="midnightblue" d="M87.17,-171.62C107.55,-182.54 142.21,-200.59 173,-214 181.77,-217.82 191.36,-221.6 200.4,-224.99"/>
<polygon fill="midnightblue" stroke="midnightblue" points="199.34,-228.32 209.93,-228.49 201.76,-221.76 199.34,-228.32"/>
</g>
<!-- Node17 -->
<g id="node17" class="node">
<title>Node17</title>
<g id="a_node17"><a xlink:href="../../db/d25/class_tree234.html#a59494707db877098d0ffb770437d6a10" target="_top" xlink:title="do the actual right rotate operation">
<polygon fill="white" stroke="black" points="349.5,-57.5 349.5,-76.5 459.5,-76.5 459.5,-57.5 349.5,-57.5"/>
<text text-anchor="middle" x="404.5" y="-64.5" font-family="Helvetica,sans-Serif" font-size="10.00">Tree234::RightRotate</text>
</a>
</g>
</g>
<!-- Node1&#45;&gt;Node17 -->
<g id="edge17" class="edge">
<title>Node1&#45;&gt;Node17</title>
<path fill="none" stroke="midnightblue" d="M76.1,-152.28C90.69,-131.77 128,-84.52 173,-67 229.4,-45.04 299.61,-49.03 347.63,-55.97"/>
<polygon fill="midnightblue" stroke="midnightblue" points="347.11,-59.43 357.52,-57.49 348.17,-52.51 347.11,-59.43"/>
</g>
<!-- Node18 -->
<g id="node18" class="node">
<title>Node18</title>
<g id="a_node18"><a xlink:href="../../db/d25/class_tree234.html#ad5b21cf04d1fab3d088ac00582c521c7" target="_top" xlink:title="a handy function to try if we can do a left rotate to the target node">
<polygon fill="white" stroke="black" points="179.5,-152.5 179.5,-171.5 297.5,-171.5 297.5,-152.5 179.5,-152.5"/>
<text text-anchor="middle" x="238.5" y="-159.5" font-family="Helvetica,sans-Serif" font-size="10.00">Tree234::TryLeftRotate</text>
</a>
</g>
</g>
<!-- Node1&#45;&gt;Node18 -->
<g id="edge18" class="edge">
<title>Node1&#45;&gt;Node18</title>
<path fill="none" stroke="midnightblue" d="M137.35,-162C147.8,-162 158.59,-162 169.06,-162"/>
<polygon fill="midnightblue" stroke="midnightblue" points="169.38,-165.5 179.38,-162 169.38,-158.5 169.38,-165.5"/>
</g>
<!-- Node19 -->
<g id="node19" class="node">
<title>Node19</title>
<g id="a_node19"><a xlink:href="../../db/d25/class_tree234.html#added89278e7bb87417a73918682a985e" target="_top" xlink:title="a handy function to try if we can do a right rotate to the target node">
<polygon fill="white" stroke="black" points="176,-76.5 176,-95.5 301,-95.5 301,-76.5 176,-76.5"/>
<text text-anchor="middle" x="238.5" y="-83.5" font-family="Helvetica,sans-Serif" font-size="10.00">Tree234::TryRightRotate</text>
</a>
</g>
</g>
<!-- Node1&#45;&gt;Node19 -->
<g id="edge21" class="edge">
<title>Node1&#45;&gt;Node19</title>
<path fill="none" stroke="midnightblue" d="M87.17,-152.38C107.55,-141.46 142.21,-123.41 173,-110 181.77,-106.18 191.36,-102.4 200.4,-99.01"/>
<polygon fill="midnightblue" stroke="midnightblue" points="201.76,-102.24 209.93,-95.51 199.34,-95.68 201.76,-102.24"/>
</g>
<!-- Node3 -->
<g id="node3" class="node">
<title>Node3</title>
<g id="a_node3"><a xlink:href="../../db/d8b/struct_node.html#a9b1b0f38e06f2be2f3287f737882d422" target="_top" xlink:title="get max item (rightmost) in the current node">
<polygon fill="white" stroke="black" points="354.5,-494.5 354.5,-513.5 454.5,-513.5 454.5,-494.5 354.5,-494.5"/>
<text text-anchor="middle" x="404.5" y="-501.5" font-family="Helvetica,sans-Serif" font-size="10.00">Node::GetMaxItem</text>
</a>
</g>
</g>
<!-- Node2&#45;&gt;Node3 -->
<g id="edge2" class="edge">
<title>Node2&#45;&gt;Node3</title>
<path fill="none" stroke="midnightblue" d="M280.88,-475.59C302.62,-480.63 329.46,-486.84 352.47,-492.18"/>
<polygon fill="midnightblue" stroke="midnightblue" points="351.88,-495.63 362.41,-494.48 353.46,-488.81 351.88,-495.63"/>
</g>
<!-- Node4 -->
<g id="node4" class="node">
<title>Node4</title>
<g id="a_node4"><a xlink:href="../../db/d8b/struct_node.html#a1e2c6a52b704f81caced187e5dc7735e" target="_top" xlink:title="get rightmose child of the current node">
<polygon fill="white" stroke="black" points="340,-456.5 340,-475.5 469,-475.5 469,-456.5 340,-456.5"/>
<text text-anchor="middle" x="404.5" y="-463.5" font-family="Helvetica,sans-Serif" font-size="10.00">Node::GetRightmostChild</text>
</a>
</g>
</g>
<!-- Node2&#45;&gt;Node4 -->
<g id="edge3" class="edge">
<title>Node2&#45;&gt;Node4</title>
<path fill="none" stroke="midnightblue" d="M304.32,-466C312.66,-466 321.24,-466 329.71,-466"/>
<polygon fill="midnightblue" stroke="midnightblue" points="329.96,-469.5 339.96,-466 329.96,-462.5 329.96,-469.5"/>
</g>
<!-- Node6 -->
<g id="node6" class="node">
<title>Node6</title>
<g id="a_node6"><a xlink:href="../../db/d8b/struct_node.html#aa1b7794370f98b1e5b5b8190ea7d7b67" target="_top" xlink:title="get leftmose child of the current node">
<polygon fill="white" stroke="black" points="343.5,-418.5 343.5,-437.5 465.5,-437.5 465.5,-418.5 343.5,-418.5"/>
<text text-anchor="middle" x="404.5" y="-425.5" font-family="Helvetica,sans-Serif" font-size="10.00">Node::GetLeftmostChild</text>
</a>
</g>
</g>
<!-- Node5&#45;&gt;Node6 -->
<g id="edge5" class="edge">
<title>Node5&#45;&gt;Node6</title>
<path fill="none" stroke="midnightblue" d="M280.88,-399.59C302.62,-404.63 329.46,-410.84 352.47,-416.18"/>
<polygon fill="midnightblue" stroke="midnightblue" points="351.88,-419.63 362.41,-418.48 353.46,-412.81 351.88,-419.63"/>
</g>
<!-- Node7 -->
<g id="node7" class="node">
<title>Node7</title>
<g id="a_node7"><a xlink:href="../../db/d8b/struct_node.html#a3cbce1931da13d8db8f1d350ae841db5" target="_top" xlink:title="get min item (leftmost) in the current node">
<polygon fill="white" stroke="black" points="356,-380.5 356,-399.5 453,-399.5 453,-380.5 356,-380.5"/>
<text text-anchor="middle" x="404.5" y="-387.5" font-family="Helvetica,sans-Serif" font-size="10.00">Node::GetMinItem</text>
</a>
</g>
</g>
<!-- Node5&#45;&gt;Node7 -->
<g id="edge6" class="edge">
<title>Node5&#45;&gt;Node7</title>
<path fill="none" stroke="midnightblue" d="M302.91,-390C316.91,-390 331.68,-390 345.46,-390"/>
<polygon fill="midnightblue" stroke="midnightblue" points="345.78,-393.5 355.78,-390 345.78,-386.5 345.78,-393.5"/>
</g>
<!-- Node11&#45;&gt;Node8 -->
<g id="edge13" class="edge">
<title>Node11&#45;&gt;Node8</title>
<path fill="none" stroke="midnightblue" d="M272.46,-228.49C282.94,-224.76 294.32,-219.92 304,-214 322.51,-202.67 321.12,-191.72 340,-181 344.16,-178.64 348.64,-176.54 353.23,-174.69"/>
<polygon fill="midnightblue" stroke="midnightblue" points="354.55,-177.94 362.74,-171.22 352.15,-171.36 354.55,-177.94"/>
</g>
<!-- Node12 -->
<g id="node12" class="node">
<title>Node12</title>
<g id="a_node12"><a xlink:href="../../db/d8b/struct_node.html#aec3cbfe34973f0752071599afe34939b" target="_top" xlink:title="get the child pointer at position of index">
<polygon fill="white" stroke="black" points="362.5,-304.5 362.5,-323.5 446.5,-323.5 446.5,-304.5 362.5,-304.5"/>
<text text-anchor="middle" x="404.5" y="-311.5" font-family="Helvetica,sans-Serif" font-size="10.00">Node::GetChild</text>
</a>
</g>
</g>
<!-- Node11&#45;&gt;Node12 -->
<g id="edge11" class="edge">
<title>Node11&#45;&gt;Node12</title>
<path fill="none" stroke="midnightblue" d="M253.95,-247.58C273.01,-259.89 307.9,-281.3 340,-295 345.36,-297.29 351.08,-299.41 356.81,-301.35"/>
<polygon fill="midnightblue" stroke="midnightblue" points="355.81,-304.7 366.4,-304.43 357.95,-298.04 355.81,-304.7"/>
</g>
<!-- Node13 -->
<g id="node13" class="node">
<title>Node13</title>
<g id="a_node13"><a xlink:href="../../db/d8b/struct_node.html#a711e6d7e2c0318df0842e0caad4cad05" target="_top" xlink:title="get item of the \index index">
<polygon fill="white" stroke="black" points="364,-266.5 364,-285.5 445,-285.5 445,-266.5 364,-266.5"/>
<text text-anchor="middle" x="404.5" y="-273.5" font-family="Helvetica,sans-Serif" font-size="10.00">Node::GetItem</text>
</a>
</g>
</g>
<!-- Node11&#45;&gt;Node13 -->
<g id="edge12" class="edge">
<title>Node11&#45;&gt;Node13</title>
<path fill="none" stroke="midnightblue" d="M280.88,-247.59C303.04,-252.72 330.48,-259.08 353.78,-264.48"/>
<polygon fill="midnightblue" stroke="midnightblue" points="353.29,-267.96 363.83,-266.81 354.87,-261.14 353.29,-267.96"/>
</g>
<!-- Node14 -->
<g id="node14" class="node">
<title>Node14</title>
<g id="a_node14"><a xlink:href="../../db/d8b/struct_node.html#a40a68c94b39a93cfbcfbf3c9a34a110c" target="_top" xlink:title="set child pointer to the position of index">
<polygon fill="white" stroke="black" points="363,-228.5 363,-247.5 446,-247.5 446,-228.5 363,-228.5"/>
<text text-anchor="middle" x="404.5" y="-235.5" font-family="Helvetica,sans-Serif" font-size="10.00">Node::SetChild</text>
</a>
</g>
</g>
<!-- Node11&#45;&gt;Node14 -->
<g id="edge14" class="edge">
<title>Node11&#45;&gt;Node14</title>
<path fill="none" stroke="midnightblue" d="M281.31,-238C303.03,-238 329.76,-238 352.67,-238"/>
<polygon fill="midnightblue" stroke="midnightblue" points="352.9,-241.5 362.9,-238 352.9,-234.5 352.9,-241.5"/>
</g>
<!-- Node15 -->
<g id="node15" class="node">
<title>Node15</title>
<g id="a_node15"><a xlink:href="../../db/d8b/struct_node.html#ab5fbabd89ce8e89ccaa9e7371bc37a3d" target="_top" xlink:title="set the item count of the node">
<polygon fill="white" stroke="black" points="361,-190.5 361,-209.5 448,-209.5 448,-190.5 361,-190.5"/>
<text text-anchor="middle" x="404.5" y="-197.5" font-family="Helvetica,sans-Serif" font-size="10.00">Node::SetCount</text>
</a>
</g>
</g>
<!-- Node11&#45;&gt;Node15 -->
<g id="edge15" class="edge">
<title>Node11&#45;&gt;Node15</title>
<path fill="none" stroke="midnightblue" d="M280.88,-228.41C302.62,-223.37 329.46,-217.16 352.47,-211.82"/>
<polygon fill="midnightblue" stroke="midnightblue" points="353.46,-215.19 362.41,-209.52 351.88,-208.37 353.46,-215.19"/>
</g>
<!-- Node16 -->
<g id="node16" class="node">
<title>Node16</title>
<g id="a_node16"><a xlink:href="../../db/d8b/struct_node.html#a2850fd257fe00ea2e1539325db18947c" target="_top" xlink:title="set item value at position of index">
<polygon fill="white" stroke="black" points="364.5,-342.5 364.5,-361.5 444.5,-361.5 444.5,-342.5 364.5,-342.5"/>
<text text-anchor="middle" x="404.5" y="-349.5" font-family="Helvetica,sans-Serif" font-size="10.00">Node::SetItem</text>
</a>
</g>
</g>
<!-- Node11&#45;&gt;Node16 -->
<g id="edge16" class="edge">
<title>Node11&#45;&gt;Node16</title>
<path fill="none" stroke="midnightblue" d="M246.99,-247.62C262.37,-266.72 299.46,-309.57 340,-333 344.55,-335.63 349.51,-337.93 354.57,-339.93"/>
<polygon fill="midnightblue" stroke="midnightblue" points="353.77,-343.36 364.36,-343.41 356.12,-336.76 353.77,-343.36"/>
</g>
<!-- Node18&#45;&gt;Node8 -->
<g id="edge19" class="edge">
<title>Node18&#45;&gt;Node8</title>
<path fill="none" stroke="midnightblue" d="M297.78,-162C315.62,-162 335.1,-162 352.43,-162"/>
<polygon fill="midnightblue" stroke="midnightblue" points="352.9,-165.5 362.9,-162 352.9,-158.5 352.9,-165.5"/>
</g>
<!-- Node18&#45;&gt;Node10 -->
<g id="edge20" class="edge">
<title>Node18&#45;&gt;Node10</title>
<path fill="none" stroke="midnightblue" d="M280.88,-152.41C302.62,-147.37 329.46,-141.16 352.47,-135.82"/>
<polygon fill="midnightblue" stroke="midnightblue" points="353.46,-139.19 362.41,-133.52 351.88,-132.37 353.46,-139.19"/>
</g>
<!-- Node19&#45;&gt;Node8 -->
<g id="edge22" class="edge">
<title>Node19&#45;&gt;Node8</title>
<path fill="none" stroke="midnightblue" d="M253.95,-95.58C273.01,-107.89 307.9,-129.3 340,-143 345.36,-145.29 351.08,-147.41 356.81,-149.35"/>
<polygon fill="midnightblue" stroke="midnightblue" points="355.81,-152.7 366.4,-152.43 357.95,-146.04 355.81,-152.7"/>
</g>
<!-- Node19&#45;&gt;Node17 -->
<g id="edge23" class="edge">
<title>Node19&#45;&gt;Node17</title>
<path fill="none" stroke="midnightblue" d="M301.03,-78.87C313.58,-77.42 326.82,-75.88 339.45,-74.42"/>
<polygon fill="midnightblue" stroke="midnightblue" points="339.9,-77.89 349.44,-73.26 339.1,-70.94 339.9,-77.89"/>
</g>
</g>
</svg>
        <g id="navigator" transform="translate(0 0)" fill="#404254">
                <rect fill="#f2f5e9" fill-opacity="0.5" stroke="#606060" stroke-width=".5" x="0" y="0" width="60" height="60"/>
                <use id="zoomplus" xlink:href="#zoomPlus" x="17" y="9" onmousedown="handleZoom(evt,'in')"/>
                <use id="zoomminus" xlink:href="#zoomMin" x="42" y="9" onmousedown="handleZoom(evt,'out')"/>
                <use id="reset" xlink:href="#resetDef" x="30" y="36" onmousedown="handleReset()"/>
                <g id="arrowUp" xlink:href="#dirArrow" transform="translate(30 24)" onmousedown="handlePan(0,-1)">
                  <use xlink:href="#rim" fill="#404040">
                        <set attributeName="fill" to="#808080" begin="arrowUp.mouseover" end="arrowUp.mouseout"/>
                  </use>
                  <path fill="none" stroke="white" stroke-width="1.5" d="M0,-3.0v7 M-2.5,-0.5L0,-3.0L2.5,-0.5"/>
                </g>
                <g id="arrowRight" xlink:href="#dirArrow" transform="rotate(90) translate(36 -43)" onmousedown="handlePan(1,0)">
                  <use xlink:href="#rim" fill="#404040">
                        <set attributeName="fill" to="#808080" begin="arrowRight.mouseover" end="arrowRight.mouseout"/>
                  </use>
                  <path fill="none" stroke="white" stroke-width="1.5" d="M0,-3.0v7 M-2.5,-0.5L0,-3.0L2.5,-0.5"/>
                </g>
                <g id="arrowDown" xlink:href="#dirArrow" transform="rotate(180) translate(-30 -48)" onmousedown="handlePan(0,1)">
                  <use xlink:href="#rim" fill="#404040">
                        <set attributeName="fill" to="#808080" begin="arrowDown.mouseover" end="arrowDown.mouseout"/>
                  </use>
                  <path fill="none" stroke="white" stroke-width="1.5" d="M0,-3.0v7 M-2.5,-0.5L0,-3.0L2.5,-0.5"/>
                </g>
                <g id="arrowLeft" xlink:href="#dirArrow" transform="rotate(270) translate(-36 17)" onmousedown="handlePan(-1,0)">
                  <use xlink:href="#rim" fill="#404040">
                        <set attributeName="fill" to="#808080" begin="arrowLeft.mouseover" end="arrowLeft.mouseout"/>
                  </use>
                  <path fill="none" stroke="white" stroke-width="1.5" d="M0,-3.0v7 M-2.5,-0.5L0,-3.0L2.5,-0.5"/>
                </g>
        </g>
        <svg viewBox="0 0 15 15" width="100%" height="30px" preserveAspectRatio="xMaxYMin meet">
         <g id="arrow_out" transform="scale(0.3 0.3)">
          <a xlink:href="class_tree234_a5e94a9b2c31a18e155e301ddead9a543_cgraph_org.svg" target="_base">
           <rect id="button" ry="5" rx="5" y="6" x="6" height="38" width="38"
                fill="#f2f5e9" fill-opacity="0.5" stroke="#606060" stroke-width="1.0"/>
           <path id="arrow"
             d="M 11.500037,31.436501 C 11.940474,20.09759 22.043105,11.32322 32.158766,21.979434 L 37.068811,17.246167 C 37.068811,17.246167 37.088388,32 37.088388,32 L 22.160133,31.978069 C 22.160133,31.978069 26.997745,27.140456 26.997745,27.140456 C 18.528582,18.264221 13.291696,25.230495 11.500037,31.436501 z"
             style="fill:#404040;"/>
          </a>
         </g>
        </svg>
</svg>
