<?xml version="1.0" encoding="UTF-8" standalone="no"?>
<!DOCTYPE svg PUBLIC "-//W3C//DTD SVG 1.1//EN"
 "http://www.w3.org/Graphics/SVG/1.1/DTD/svg11.dtd">
<!-- Generated by graphviz version 2.44.1 (20200629.0846)
 -->
<!-- Title: Tree234::TryLeftRotate Pages: 1 -->
<svg width="266pt" height="66pt"
 viewBox="0.00 0.00 266.00 66.00" xmlns="http://www.w3.org/2000/svg" xmlns:xlink="http://www.w3.org/1999/xlink">
<g id="graph0" class="graph" transform="scale(1 1) rotate(0) translate(4 62)">
<title>Tree234::TryLeftRotate</title>
<polygon fill="white" stroke="transparent" points="-4,4 -4,-62 262,-62 262,4 -4,4"/>
<!-- Node1 -->
<g id="node1" class="node">
<title>Node1</title>
<g id="a_node1"><a xlink:title="a handy function to try if we can do a left rotate to the target node">
<polygon fill="#bfbfbf" stroke="black" points="0,-19.5 0,-38.5 118,-38.5 118,-19.5 0,-19.5"/>
<text text-anchor="middle" x="59" y="-26.5" font-family="Helvetica,sans-Serif" font-size="10.00">Tree234::TryLeftRotate</text>
</a>
</g>
</g>
<!-- Node2 -->
<g id="node2" class="node">
<title>Node2</title>
<g id="a_node2"><a xlink:href="../../db/d8b/struct_node.html#a6e5f4f2091b10b1821b655fde157a74c" target="_top" xlink:title="check if node is a 2&#45;node">
<polygon fill="white" stroke="black" points="164.5,-38.5 164.5,-57.5 247.5,-57.5 247.5,-38.5 164.5,-38.5"/>
<text text-anchor="middle" x="206" y="-45.5" font-family="Helvetica,sans-Serif" font-size="10.00">Node::Is2Node</text>
</a>
</g>
</g>
<!-- Node1&#45;&gt;Node2 -->
<g id="edge1" class="edge">
<title>Node1&#45;&gt;Node2</title>
<path fill="none" stroke="midnightblue" d="M118.14,-36.62C130.09,-38.18 142.57,-39.82 154.23,-41.35"/>
<polygon fill="midnightblue" stroke="midnightblue" points="153.86,-44.83 164.23,-42.66 154.77,-37.89 153.86,-44.83"/>
</g>
<!-- Node3 -->
<g id="node3" class="node">
<title>Node3</title>
<g id="a_node3"><a xlink:href="../../db/d25/class_tree234.html#ab3733ff7bf637266d77820a49d4999bc" target="_top" xlink:title="do the actual left rotate operation">
<polygon fill="white" stroke="black" points="154,-0.5 154,-19.5 258,-19.5 258,-0.5 154,-0.5"/>
<text text-anchor="middle" x="206" y="-7.5" font-family="Helvetica,sans-Serif" font-size="10.00">Tree234::LeftRotate</text>
</a>
</g>
</g>
<!-- Node1&#45;&gt;Node3 -->
<g id="edge2" class="edge">
<title>Node1&#45;&gt;Node3</title>
<path fill="none" stroke="midnightblue" d="M118.14,-21.38C126.54,-20.28 135.21,-19.14 143.68,-18.04"/>
<polygon fill="midnightblue" stroke="midnightblue" points="144.4,-21.47 153.86,-16.7 143.49,-14.53 144.4,-21.47"/>
</g>
</g>
</svg>
