<?xml version="1.0" encoding="UTF-8" standalone="no"?>
<!DOCTYPE svg PUBLIC "-//W3C//DTD SVG 1.1//EN"
 "http://www.w3.org/Graphics/SVG/1.1/DTD/svg11.dtd">
<!-- Generated by graphviz version 2.44.1 (20200629.0846)
 -->
<!-- Title: Tree234::InsertPostMerge Pages: 1 -->
<!--zoomable 142 -->
<svg id="main" version="1.1" xmlns="http://www.w3.org/2000/svg" xmlns:xlink="http://www.w3.org/1999/xlink" xml:space="preserve" onload="init(evt)">
<style type="text/css"><![CDATA[
.edge:hover path { stroke: red; }
.edge:hover polygon { stroke: red; fill: red; }
]]></style>
<script type="text/javascript"><![CDATA[
var edges = document.getElementsByTagName('g');
if (edges && edges.length) {
  for (var i=0;i<edges.length;i++) {
    if (edges[i].id.substr(0,4)=='edge') {
      edges[i].setAttribute('class','edge');
    }
  }
}
]]></script>
        <defs>
                <circle id="rim" cx="0" cy="0" r="7"/>
                <circle id="rim2" cx="0" cy="0" r="3.5"/>
                <g id="zoomPlus">
                        <use xlink:href="#rim" fill="#404040">
                                <set attributeName="fill" to="#808080" begin="zoomplus.mouseover" end="zoomplus.mouseout"/>
                        </use>
                        <path d="M-4,0h8M0,-4v8" fill="none" stroke="white" stroke-width="1.5" pointer-events="none"/>
                </g>
                <g id="zoomMin">
                        <use xlink:href="#rim" fill="#404040">
                                <set attributeName="fill" to="#808080" begin="zoomminus.mouseover" end="zoomminus.mouseout"/>
                        </use>
                        <path d="M-4,0h8" fill="none" stroke="white" stroke-width="1.5" pointer-events="none"/>
                </g>
                <g id="dirArrow">
                        <path fill="none" stroke="white" stroke-width="1.5" d="M0,-3.0v7 M-2.5,-0.5L0,-3.0L2.5,-0.5"/>
                </g>
               <g id="resetDef">
                       <use xlink:href="#rim2" fill="#404040">
                               <set attributeName="fill" to="#808080" begin="reset.mouseover" end="reset.mouseout"/>
                       </use>
               </g>
        </defs>

<script type="text/javascript">
var viewWidth = 874;
var viewHeight = 142;
var sectionId = 'dynsection-6';
</script>
<script xlink:href="../../svgpan.js"/>
<svg id="graph" class="graph">
<g id="viewport">
<title>Tree234::InsertPostMerge</title>
<polygon fill="white" stroke="transparent" points="-4,4 -4,-138 870,-138 870,4 -4,4"/>
<!-- Node1 -->
<g id="node1" class="node">
<title>Node1</title>
<g id="a_node1"><a xlink:title="A insert implementation of post&#45;merge.">
<polygon fill="#bfbfbf" stroke="black" points="0,-38.5 0,-57.5 130,-57.5 130,-38.5 0,-38.5"/>
<text text-anchor="middle" x="65" y="-45.5" font-family="Helvetica,sans-Serif" font-size="10.00">Tree234::InsertPostMerge</text>
</a>
</g>
</g>
<!-- Node2 -->
<g id="node2" class="node">
<title>Node2</title>
<g id="a_node2"><a xlink:href="../../db/d25/class_tree234.html#ae690b22acc3e9db55b4a2b458c3da8c8" target="_top" xlink:title="Insert item to tree.">
<polygon fill="white" stroke="black" points="166,-38.5 166,-57.5 249,-57.5 249,-38.5 166,-38.5"/>
<text text-anchor="middle" x="207.5" y="-45.5" font-family="Helvetica,sans-Serif" font-size="10.00">Tree234::Insert</text>
</a>
</g>
</g>
<!-- Node1&#45;&gt;Node2 -->
<g id="edge1" class="edge">
<title>Node1&#45;&gt;Node2</title>
<path fill="none" stroke="midnightblue" d="M130.08,-48C138.63,-48 147.3,-48 155.59,-48"/>
<polygon fill="midnightblue" stroke="midnightblue" points="155.83,-51.5 165.83,-48 155.83,-44.5 155.83,-51.5"/>
</g>
<!-- Node3 -->
<g id="node3" class="node">
<title>Node3</title>
<g id="a_node3"><a xlink:href="../../db/d25/class_tree234.html#a69f55fc18c820aafebbb3e7b0448b551" target="_top" xlink:title="A insert implementation of pre&#45;split.">
<polygon fill="white" stroke="black" points="285,-38.5 285,-57.5 402,-57.5 402,-38.5 285,-38.5"/>
<text text-anchor="middle" x="343.5" y="-45.5" font-family="Helvetica,sans-Serif" font-size="10.00">Tree234::InsertPreSplit</text>
</a>
</g>
</g>
<!-- Node2&#45;&gt;Node3 -->
<g id="edge2" class="edge">
<title>Node2&#45;&gt;Node3</title>
<path fill="none" stroke="midnightblue" d="M249.07,-48C257.15,-48 265.85,-48 274.56,-48"/>
<polygon fill="midnightblue" stroke="midnightblue" points="274.77,-51.5 284.77,-48 274.77,-44.5 274.77,-51.5"/>
</g>
<!-- Node4 -->
<g id="node4" class="node">
<title>Node4</title>
<g id="a_node4"><a target="_blank" xlink:href="http://en.cppreference.com/w/cpp/memory/unique_ptr/get.html#" target="_top" xlink:title=" ">
<polygon fill="white" stroke="black" points="457.5,-76.5 457.5,-95.5 558.5,-95.5 558.5,-76.5 457.5,-76.5"/>
<text text-anchor="middle" x="508" y="-83.5" font-family="Helvetica,sans-Serif" font-size="10.00">std::unique_ptr::get</text>
</a>
</g>
</g>
<!-- Node3&#45;&gt;Node4 -->
<g id="edge3" class="edge">
<title>Node3&#45;&gt;Node4</title>
<path fill="none" stroke="midnightblue" d="M385.51,-57.59C407.05,-62.63 433.63,-68.84 456.44,-74.18"/>
<polygon fill="midnightblue" stroke="midnightblue" points="455.75,-77.61 466.29,-76.48 457.35,-70.79 455.75,-77.61"/>
</g>
<!-- Node5 -->
<g id="node5" class="node">
<title>Node5</title>
<g id="a_node5"><a xlink:href="../../db/d25/class_tree234.html#a5ceb8cd694a3edb6e70ed3dd54ee4521" target="_top" xlink:title="Merge node to a not&#45;full target node.">
<polygon fill="white" stroke="black" points="438,-38.5 438,-57.5 578,-57.5 578,-38.5 438,-38.5"/>
<text text-anchor="middle" x="508" y="-45.5" font-family="Helvetica,sans-Serif" font-size="10.00">Tree234::MergeNodeNotFull</text>
</a>
</g>
</g>
<!-- Node3&#45;&gt;Node5 -->
<g id="edge4" class="edge">
<title>Node3&#45;&gt;Node5</title>
<path fill="none" stroke="midnightblue" d="M402.25,-48C410.51,-48 419.13,-48 427.71,-48"/>
<polygon fill="midnightblue" stroke="midnightblue" points="427.76,-51.5 437.76,-48 427.76,-44.5 427.76,-51.5"/>
</g>
<!-- Node11 -->
<g id="node11" class="node">
<title>Node11</title>
<g id="a_node11"><a xlink:href="../../db/d25/class_tree234.html#ae36a2684ad2d5cea087cbb5c7d94e96c" target="_top" xlink:title="Split a 4&#45;node to 1 parent and 2 children, and return the parent node.">
<polygon fill="white" stroke="black" points="457.5,-0.5 457.5,-19.5 558.5,-19.5 558.5,-0.5 457.5,-0.5"/>
<text text-anchor="middle" x="508" y="-7.5" font-family="Helvetica,sans-Serif" font-size="10.00">Tree234::SplitNode</text>
</a>
</g>
</g>
<!-- Node3&#45;&gt;Node11 -->
<g id="edge11" class="edge">
<title>Node3&#45;&gt;Node11</title>
<path fill="none" stroke="midnightblue" d="M385.51,-38.41C407.05,-33.37 433.63,-27.16 456.44,-21.82"/>
<polygon fill="midnightblue" stroke="midnightblue" points="457.35,-25.21 466.29,-19.52 455.75,-18.39 457.35,-25.21"/>
</g>
<!-- Node6 -->
<g id="node6" class="node">
<title>Node6</title>
<g id="a_node6"><a xlink:href="../../db/d8b/struct_node.html#a477404e67bd9114bf8203b47e2a2db20" target="_top" xlink:title="Insert item to the proper position of the node and return the position index.">
<polygon fill="white" stroke="black" points="614,-76.5 614,-95.5 704,-95.5 704,-76.5 614,-76.5"/>
<text text-anchor="middle" x="659" y="-83.5" font-family="Helvetica,sans-Serif" font-size="10.00">Node::InsertItem</text>
</a>
</g>
</g>
<!-- Node5&#45;&gt;Node6 -->
<g id="edge5" class="edge">
<title>Node5&#45;&gt;Node6</title>
<path fill="none" stroke="midnightblue" d="M546.6,-57.59C566.08,-62.56 590.07,-68.68 610.8,-73.96"/>
<polygon fill="midnightblue" stroke="midnightblue" points="610.12,-77.4 620.67,-76.48 611.85,-70.62 610.12,-77.4"/>
</g>
<!-- Node9 -->
<g id="node9" class="node">
<title>Node9</title>
<g id="a_node9"><a xlink:href="../../db/d8b/struct_node.html#a5cb5234ccefa82c8cc49842898131cb6" target="_top" xlink:title="Check if node is a full (4&#45;node)">
<polygon fill="white" stroke="black" points="768,-38.5 768,-57.5 838,-57.5 838,-38.5 768,-38.5"/>
<text text-anchor="middle" x="803" y="-45.5" font-family="Helvetica,sans-Serif" font-size="10.00">Node::IsFull</text>
</a>
</g>
</g>
<!-- Node5&#45;&gt;Node9 -->
<g id="edge9" class="edge">
<title>Node5&#45;&gt;Node9</title>
<path fill="none" stroke="midnightblue" d="M578.07,-48C633.71,-48 710.26,-48 757.9,-48"/>
<polygon fill="midnightblue" stroke="midnightblue" points="757.9,-51.5 767.9,-48 757.9,-44.5 757.9,-51.5"/>
</g>
<!-- Node10 -->
<g id="node10" class="node">
<title>Node10</title>
<g id="a_node10"><a xlink:href="../../db/d8b/struct_node.html#a40a68c94b39a93cfbcfbf3c9a34a110c" target="_top" xlink:title="Set child pointer to the position of index.">
<polygon fill="white" stroke="black" points="617.5,-0.5 617.5,-19.5 700.5,-19.5 700.5,-0.5 617.5,-0.5"/>
<text text-anchor="middle" x="659" y="-7.5" font-family="Helvetica,sans-Serif" font-size="10.00">Node::SetChild</text>
</a>
</g>
</g>
<!-- Node5&#45;&gt;Node10 -->
<g id="edge10" class="edge">
<title>Node5&#45;&gt;Node10</title>
<path fill="none" stroke="midnightblue" d="M546.6,-38.41C566.08,-33.44 590.07,-27.32 610.8,-22.04"/>
<polygon fill="midnightblue" stroke="midnightblue" points="611.85,-25.38 620.67,-19.52 610.12,-18.6 611.85,-25.38"/>
</g>
<!-- Node7 -->
<g id="node7" class="node">
<title>Node7</title>
<g id="a_node7"><a xlink:href="../../db/d8b/struct_node.html#a13b876e390596e7fef1f914be83c9168" target="_top" xlink:title="Check if item is in the node.">
<polygon fill="white" stroke="black" points="760.5,-114.5 760.5,-133.5 845.5,-133.5 845.5,-114.5 760.5,-114.5"/>
<text text-anchor="middle" x="803" y="-121.5" font-family="Helvetica,sans-Serif" font-size="10.00">Node::Contains</text>
</a>
</g>
</g>
<!-- Node6&#45;&gt;Node7 -->
<g id="edge6" class="edge">
<title>Node6&#45;&gt;Node7</title>
<path fill="none" stroke="midnightblue" d="M695.83,-95.59C714.16,-100.49 736.68,-106.52 756.25,-111.76"/>
<polygon fill="midnightblue" stroke="midnightblue" points="755.61,-115.21 766.18,-114.41 757.42,-108.45 755.61,-115.21"/>
</g>
<!-- Node8 -->
<g id="node8" class="node">
<title>Node8</title>
<g id="a_node8"><a xlink:href="../../db/d8b/struct_node.html#a239621c6f62988c5d50d2c84892f5be9" target="_top" xlink:title="Insert a value to the index position.">
<polygon fill="white" stroke="black" points="740,-76.5 740,-95.5 866,-95.5 866,-76.5 740,-76.5"/>
<text text-anchor="middle" x="803" y="-83.5" font-family="Helvetica,sans-Serif" font-size="10.00">Node::InsertItemByIndex</text>
</a>
</g>
</g>
<!-- Node6&#45;&gt;Node8 -->
<g id="edge7" class="edge">
<title>Node6&#45;&gt;Node8</title>
<path fill="none" stroke="midnightblue" d="M704.15,-86C712.29,-86 720.97,-86 729.68,-86"/>
<polygon fill="midnightblue" stroke="midnightblue" points="729.89,-89.5 739.89,-86 729.89,-82.5 729.89,-89.5"/>
</g>
<!-- Node6&#45;&gt;Node9 -->
<g id="edge8" class="edge">
<title>Node6&#45;&gt;Node9</title>
<path fill="none" stroke="midnightblue" d="M695.83,-76.41C714.67,-71.37 737.92,-65.15 757.86,-59.81"/>
<polygon fill="midnightblue" stroke="midnightblue" points="758.89,-63.16 767.65,-57.19 757.08,-56.4 758.89,-63.16"/>
</g>
</g>
</svg>
        <g id="navigator" transform="translate(0 0)" fill="#404254">
                <rect fill="#f2f5e9" fill-opacity="0.5" stroke="#606060" stroke-width=".5" x="0" y="0" width="60" height="60"/>
                <use id="zoomplus" xlink:href="#zoomPlus" x="17" y="9" onmousedown="handleZoom(evt,'in')"/>
                <use id="zoomminus" xlink:href="#zoomMin" x="42" y="9" onmousedown="handleZoom(evt,'out')"/>
                <use id="reset" xlink:href="#resetDef" x="30" y="36" onmousedown="handleReset()"/>
                <g id="arrowUp" xlink:href="#dirArrow" transform="translate(30 24)" onmousedown="handlePan(0,-1)">
                  <use xlink:href="#rim" fill="#404040">
                        <set attributeName="fill" to="#808080" begin="arrowUp.mouseover" end="arrowUp.mouseout"/>
                  </use>
                  <path fill="none" stroke="white" stroke-width="1.5" d="M0,-3.0v7 M-2.5,-0.5L0,-3.0L2.5,-0.5"/>
                </g>
                <g id="arrowRight" xlink:href="#dirArrow" transform="rotate(90) translate(36 -43)" onmousedown="handlePan(1,0)">
                  <use xlink:href="#rim" fill="#404040">
                        <set attributeName="fill" to="#808080" begin="arrowRight.mouseover" end="arrowRight.mouseout"/>
                  </use>
                  <path fill="none" stroke="white" stroke-width="1.5" d="M0,-3.0v7 M-2.5,-0.5L0,-3.0L2.5,-0.5"/>
                </g>
                <g id="arrowDown" xlink:href="#dirArrow" transform="rotate(180) translate(-30 -48)" onmousedown="handlePan(0,1)">
                  <use xlink:href="#rim" fill="#404040">
                        <set attributeName="fill" to="#808080" begin="arrowDown.mouseover" end="arrowDown.mouseout"/>
                  </use>
                  <path fill="none" stroke="white" stroke-width="1.5" d="M0,-3.0v7 M-2.5,-0.5L0,-3.0L2.5,-0.5"/>
                </g>
                <g id="arrowLeft" xlink:href="#dirArrow" transform="rotate(270) translate(-36 17)" onmousedown="handlePan(-1,0)">
                  <use xlink:href="#rim" fill="#404040">
                        <set attributeName="fill" to="#808080" begin="arrowLeft.mouseover" end="arrowLeft.mouseout"/>
                  </use>
                  <path fill="none" stroke="white" stroke-width="1.5" d="M0,-3.0v7 M-2.5,-0.5L0,-3.0L2.5,-0.5"/>
                </g>
        </g>
        <svg viewBox="0 0 15 15" width="100%" height="30px" preserveAspectRatio="xMaxYMin meet">
         <g id="arrow_out" transform="scale(0.3 0.3)">
          <a xlink:href="class_tree234_a9f7b3f82153f5b7bd98238b821be6f4d_cgraph_org.svg" target="_base">
           <rect id="button" ry="5" rx="5" y="6" x="6" height="38" width="38"
                fill="#f2f5e9" fill-opacity="0.5" stroke="#606060" stroke-width="1.0"/>
           <path id="arrow"
             d="M 11.500037,31.436501 C 11.940474,20.09759 22.043105,11.32322 32.158766,21.979434 L 37.068811,17.246167 C 37.068811,17.246167 37.088388,32 37.088388,32 L 22.160133,31.978069 C 22.160133,31.978069 26.997745,27.140456 26.997745,27.140456 C 18.528582,18.264221 13.291696,25.230495 11.500037,31.436501 z"
             style="fill:#404040;"/>
          </a>
         </g>
        </svg>
</svg>
