<?xml version="1.0" encoding="UTF-8" standalone="no"?>
<!DOCTYPE svg PUBLIC "-//W3C//DTD SVG 1.1//EN"
 "http://www.w3.org/Graphics/SVG/1.1/DTD/svg11.dtd">
<!-- Generated by graphviz version 2.44.1 (20200629.0846)
 -->
<!-- Title: Tree234::Insert Pages: 1 -->
<svg width="708pt" height="142pt"
 viewBox="0.00 0.00 708.00 142.00" xmlns="http://www.w3.org/2000/svg" xmlns:xlink="http://www.w3.org/1999/xlink">
<g id="graph0" class="graph" transform="scale(1 1) rotate(0) translate(4 138)">
<title>Tree234::Insert</title>
<polygon fill="white" stroke="transparent" points="-4,4 -4,-138 704,-138 704,4 -4,4"/>
<!-- Node1 -->
<g id="node1" class="node">
<title>Node1</title>
<g id="a_node1"><a xlink:title="Insert item to tree.">
<polygon fill="#bfbfbf" stroke="black" points="0,-38.5 0,-57.5 83,-57.5 83,-38.5 0,-38.5"/>
<text text-anchor="middle" x="41.5" y="-45.5" font-family="Helvetica,sans-Serif" font-size="10.00">Tree234::Insert</text>
</a>
</g>
</g>
<!-- Node2 -->
<g id="node2" class="node">
<title>Node2</title>
<g id="a_node2"><a xlink:href="../../db/d25/class_tree234.html#a5ac0ec7f8b4e42b9afea294670f758cd" target="_top" xlink:title="A insert implementation of pre&#45;split.">
<polygon fill="white" stroke="black" points="119,-38.5 119,-57.5 236,-57.5 236,-38.5 119,-38.5"/>
<text text-anchor="middle" x="177.5" y="-45.5" font-family="Helvetica,sans-Serif" font-size="10.00">Tree234::InsertPreSplit</text>
</a>
</g>
</g>
<!-- Node1&#45;&gt;Node2 -->
<g id="edge1" class="edge">
<title>Node1&#45;&gt;Node2</title>
<path fill="none" stroke="midnightblue" d="M83.07,-48C91.15,-48 99.85,-48 108.56,-48"/>
<polygon fill="midnightblue" stroke="midnightblue" points="108.77,-51.5 118.77,-48 108.77,-44.5 108.77,-51.5"/>
</g>
<!-- Node3 -->
<g id="node3" class="node">
<title>Node3</title>
<g id="a_node3"><a target="_blank" xlink:href="http://en.cppreference.com/w/cpp/memory/unique_ptr/get.html#" target="_top" xlink:title=" ">
<polygon fill="white" stroke="black" points="291.5,-76.5 291.5,-95.5 392.5,-95.5 392.5,-76.5 291.5,-76.5"/>
<text text-anchor="middle" x="342" y="-83.5" font-family="Helvetica,sans-Serif" font-size="10.00">std::unique_ptr::get</text>
</a>
</g>
</g>
<!-- Node2&#45;&gt;Node3 -->
<g id="edge2" class="edge">
<title>Node2&#45;&gt;Node3</title>
<path fill="none" stroke="midnightblue" d="M219.51,-57.59C241.05,-62.63 267.63,-68.84 290.44,-74.18"/>
<polygon fill="midnightblue" stroke="midnightblue" points="289.75,-77.61 300.29,-76.48 291.35,-70.79 289.75,-77.61"/>
</g>
<!-- Node4 -->
<g id="node4" class="node">
<title>Node4</title>
<g id="a_node4"><a xlink:href="../../db/d25/class_tree234.html#a5ceb8cd694a3edb6e70ed3dd54ee4521" target="_top" xlink:title="Merge node to a not&#45;full target node.">
<polygon fill="white" stroke="black" points="272,-38.5 272,-57.5 412,-57.5 412,-38.5 272,-38.5"/>
<text text-anchor="middle" x="342" y="-45.5" font-family="Helvetica,sans-Serif" font-size="10.00">Tree234::MergeNodeNotFull</text>
</a>
</g>
</g>
<!-- Node2&#45;&gt;Node4 -->
<g id="edge3" class="edge">
<title>Node2&#45;&gt;Node4</title>
<path fill="none" stroke="midnightblue" d="M236.25,-48C244.51,-48 253.13,-48 261.71,-48"/>
<polygon fill="midnightblue" stroke="midnightblue" points="261.76,-51.5 271.76,-48 261.76,-44.5 261.76,-51.5"/>
</g>
<!-- Node10 -->
<g id="node10" class="node">
<title>Node10</title>
<g id="a_node10"><a xlink:href="../../db/d25/class_tree234.html#ae36a2684ad2d5cea087cbb5c7d94e96c" target="_top" xlink:title="Split a 4&#45;node to 1 parent and 2 children, and return the parent node.">
<polygon fill="white" stroke="black" points="291.5,-0.5 291.5,-19.5 392.5,-19.5 392.5,-0.5 291.5,-0.5"/>
<text text-anchor="middle" x="342" y="-7.5" font-family="Helvetica,sans-Serif" font-size="10.00">Tree234::SplitNode</text>
</a>
</g>
</g>
<!-- Node2&#45;&gt;Node10 -->
<g id="edge10" class="edge">
<title>Node2&#45;&gt;Node10</title>
<path fill="none" stroke="midnightblue" d="M219.51,-38.41C241.05,-33.37 267.63,-27.16 290.44,-21.82"/>
<polygon fill="midnightblue" stroke="midnightblue" points="291.35,-25.21 300.29,-19.52 289.75,-18.39 291.35,-25.21"/>
</g>
<!-- Node5 -->
<g id="node5" class="node">
<title>Node5</title>
<g id="a_node5"><a xlink:href="../../db/d8b/struct_node.html#a477404e67bd9114bf8203b47e2a2db20" target="_top" xlink:title="Insert item to the proper position of the node and return the position index.">
<polygon fill="white" stroke="black" points="448,-76.5 448,-95.5 538,-95.5 538,-76.5 448,-76.5"/>
<text text-anchor="middle" x="493" y="-83.5" font-family="Helvetica,sans-Serif" font-size="10.00">Node::InsertItem</text>
</a>
</g>
</g>
<!-- Node4&#45;&gt;Node5 -->
<g id="edge4" class="edge">
<title>Node4&#45;&gt;Node5</title>
<path fill="none" stroke="midnightblue" d="M380.6,-57.59C400.08,-62.56 424.07,-68.68 444.8,-73.96"/>
<polygon fill="midnightblue" stroke="midnightblue" points="444.12,-77.4 454.67,-76.48 445.85,-70.62 444.12,-77.4"/>
</g>
<!-- Node8 -->
<g id="node8" class="node">
<title>Node8</title>
<g id="a_node8"><a xlink:href="../../db/d8b/struct_node.html#a5cb5234ccefa82c8cc49842898131cb6" target="_top" xlink:title="Check if node is a full (4&#45;node)">
<polygon fill="white" stroke="black" points="602,-38.5 602,-57.5 672,-57.5 672,-38.5 602,-38.5"/>
<text text-anchor="middle" x="637" y="-45.5" font-family="Helvetica,sans-Serif" font-size="10.00">Node::IsFull</text>
</a>
</g>
</g>
<!-- Node4&#45;&gt;Node8 -->
<g id="edge8" class="edge">
<title>Node4&#45;&gt;Node8</title>
<path fill="none" stroke="midnightblue" d="M412.07,-48C467.71,-48 544.26,-48 591.9,-48"/>
<polygon fill="midnightblue" stroke="midnightblue" points="591.9,-51.5 601.9,-48 591.9,-44.5 591.9,-51.5"/>
</g>
<!-- Node9 -->
<g id="node9" class="node">
<title>Node9</title>
<g id="a_node9"><a xlink:href="../../db/d8b/struct_node.html#aee5fda5fc04b45a6b287aae043a6c3c9" target="_top" xlink:title="Set child pointer to the position of index.">
<polygon fill="white" stroke="black" points="451.5,-0.5 451.5,-19.5 534.5,-19.5 534.5,-0.5 451.5,-0.5"/>
<text text-anchor="middle" x="493" y="-7.5" font-family="Helvetica,sans-Serif" font-size="10.00">Node::SetChild</text>
</a>
</g>
</g>
<!-- Node4&#45;&gt;Node9 -->
<g id="edge9" class="edge">
<title>Node4&#45;&gt;Node9</title>
<path fill="none" stroke="midnightblue" d="M380.6,-38.41C400.08,-33.44 424.07,-27.32 444.8,-22.04"/>
<polygon fill="midnightblue" stroke="midnightblue" points="445.85,-25.38 454.67,-19.52 444.12,-18.6 445.85,-25.38"/>
</g>
<!-- Node6 -->
<g id="node6" class="node">
<title>Node6</title>
<g id="a_node6"><a xlink:href="../../db/d8b/struct_node.html#ad7920ac641adfec1510768d5504db1a6" target="_top" xlink:title="Check if item is in the node.">
<polygon fill="white" stroke="black" points="594.5,-114.5 594.5,-133.5 679.5,-133.5 679.5,-114.5 594.5,-114.5"/>
<text text-anchor="middle" x="637" y="-121.5" font-family="Helvetica,sans-Serif" font-size="10.00">Node::Contains</text>
</a>
</g>
</g>
<!-- Node5&#45;&gt;Node6 -->
<g id="edge5" class="edge">
<title>Node5&#45;&gt;Node6</title>
<path fill="none" stroke="midnightblue" d="M529.83,-95.59C548.16,-100.49 570.68,-106.52 590.25,-111.76"/>
<polygon fill="midnightblue" stroke="midnightblue" points="589.61,-115.21 600.18,-114.41 591.42,-108.45 589.61,-115.21"/>
</g>
<!-- Node7 -->
<g id="node7" class="node">
<title>Node7</title>
<g id="a_node7"><a xlink:href="../../db/d8b/struct_node.html#a08fe20a013c96ec8a12b70b1399f24ed" target="_top" xlink:title="Insert a value to the index position.">
<polygon fill="white" stroke="black" points="574,-76.5 574,-95.5 700,-95.5 700,-76.5 574,-76.5"/>
<text text-anchor="middle" x="637" y="-83.5" font-family="Helvetica,sans-Serif" font-size="10.00">Node::InsertItemByIndex</text>
</a>
</g>
</g>
<!-- Node5&#45;&gt;Node7 -->
<g id="edge6" class="edge">
<title>Node5&#45;&gt;Node7</title>
<path fill="none" stroke="midnightblue" d="M538.15,-86C546.29,-86 554.97,-86 563.68,-86"/>
<polygon fill="midnightblue" stroke="midnightblue" points="563.89,-89.5 573.89,-86 563.89,-82.5 563.89,-89.5"/>
</g>
<!-- Node5&#45;&gt;Node8 -->
<g id="edge7" class="edge">
<title>Node5&#45;&gt;Node8</title>
<path fill="none" stroke="midnightblue" d="M529.83,-76.41C548.67,-71.37 571.92,-65.15 591.86,-59.81"/>
<polygon fill="midnightblue" stroke="midnightblue" points="592.89,-63.16 601.65,-57.19 591.08,-56.4 592.89,-63.16"/>
</g>
</g>
</svg>
