<?xml version="1.0" encoding="UTF-8" standalone="no"?>
<!DOCTYPE svg PUBLIC "-//W3C//DTD SVG 1.1//EN"
 "http://www.w3.org/Graphics/SVG/1.1/DTD/svg11.dtd">
<!-- Generated by graphviz version 2.44.1 (20200629.0846)
 -->
<!-- Title: Tree234::GetTreeMinItem Pages: 1 -->
<svg width="294pt" height="66pt"
 viewBox="0.00 0.00 294.00 66.00" xmlns="http://www.w3.org/2000/svg" xmlns:xlink="http://www.w3.org/1999/xlink">
<g id="graph0" class="graph" transform="scale(1 1) rotate(0) translate(4 62)">
<title>Tree234::GetTreeMinItem</title>
<polygon fill="white" stroke="transparent" points="-4,4 -4,-62 290,-62 290,4 -4,4"/>
<!-- Node1 -->
<g id="node1" class="node">
<title>Node1</title>
<g id="a_node1"><a xlink:title="Get the min item of the tree.">
<polygon fill="#bfbfbf" stroke="black" points="0,-19.5 0,-38.5 128,-38.5 128,-19.5 0,-19.5"/>
<text text-anchor="middle" x="64" y="-26.5" font-family="Helvetica,sans-Serif" font-size="10.00">Tree234::GetTreeMinItem</text>
</a>
</g>
</g>
<!-- Node2 -->
<g id="node2" class="node">
<title>Node2</title>
<g id="a_node2"><a xlink:href="../../db/d8b/struct_node.html#aa1b7794370f98b1e5b5b8190ea7d7b67" target="_top" xlink:title="Get leftmose child of the current node.">
<polygon fill="white" stroke="black" points="164,-38.5 164,-57.5 286,-57.5 286,-38.5 164,-38.5"/>
<text text-anchor="middle" x="225" y="-45.5" font-family="Helvetica,sans-Serif" font-size="10.00">Node::GetLeftmostChild</text>
</a>
</g>
</g>
<!-- Node1&#45;&gt;Node2 -->
<g id="edge1" class="edge">
<title>Node1&#45;&gt;Node2</title>
<path fill="none" stroke="midnightblue" d="M128.3,-36.56C136.61,-37.56 145.17,-38.58 153.59,-39.59"/>
<polygon fill="midnightblue" stroke="midnightblue" points="153.42,-43.09 163.77,-40.8 154.25,-36.14 153.42,-43.09"/>
</g>
<!-- Node3 -->
<g id="node3" class="node">
<title>Node3</title>
<g id="a_node3"><a xlink:href="../../db/d8b/struct_node.html#a3cbce1931da13d8db8f1d350ae841db5" target="_top" xlink:title="get min item (leftmost) in the current node">
<polygon fill="white" stroke="black" points="176.5,-0.5 176.5,-19.5 273.5,-19.5 273.5,-0.5 176.5,-0.5"/>
<text text-anchor="middle" x="225" y="-7.5" font-family="Helvetica,sans-Serif" font-size="10.00">Node::GetMinItem</text>
</a>
</g>
</g>
<!-- Node1&#45;&gt;Node3 -->
<g id="edge2" class="edge">
<title>Node1&#45;&gt;Node3</title>
<path fill="none" stroke="midnightblue" d="M128.3,-21.44C140.75,-19.95 153.75,-18.39 166.01,-16.93"/>
<polygon fill="midnightblue" stroke="midnightblue" points="166.6,-20.38 176.11,-15.72 165.77,-13.43 166.6,-20.38"/>
</g>
</g>
</svg>
