<?xml version="1.0" encoding="UTF-8" standalone="no"?>
<!DOCTYPE svg PUBLIC "-//W3C//DTD SVG 1.1//EN"
 "http://www.w3.org/Graphics/SVG/1.1/DTD/svg11.dtd">
<!-- Generated by graphviz version 2.44.1 (20200629.0846)
 -->
<!-- Title: Tree234::Print Pages: 1 -->
<svg width="226pt" height="142pt"
 viewBox="0.00 0.00 226.00 142.00" xmlns="http://www.w3.org/2000/svg" xmlns:xlink="http://www.w3.org/1999/xlink">
<g id="graph0" class="graph" transform="scale(1 1) rotate(0) translate(4 138)">
<title>Tree234::Print</title>
<polygon fill="white" stroke="transparent" points="-4,4 -4,-138 222,-138 222,4 -4,4"/>
<!-- Node1 -->
<g id="node1" class="node">
<title>Node1</title>
<g id="a_node1"><a xlink:title="Print tree into a dot file.">
<polygon fill="#bfbfbf" stroke="black" points="0,-57.5 0,-76.5 78,-76.5 78,-57.5 0,-57.5"/>
<text text-anchor="middle" x="39" y="-64.5" font-family="Helvetica,sans-Serif" font-size="10.00">Tree234::Print</text>
</a>
</g>
</g>
<!-- Node2 -->
<g id="node2" class="node">
<title>Node2</title>
<g id="a_node2"><a target="_blank" xlink:href="http://en.cppreference.com/w/cpp/io/basic_ofstream/close.html#" target="_top" xlink:title=" ">
<polygon fill="white" stroke="black" points="114,-114.5 114,-133.5 218,-133.5 218,-114.5 114,-114.5"/>
<text text-anchor="middle" x="166" y="-121.5" font-family="Helvetica,sans-Serif" font-size="10.00">std::ofstream::close</text>
</a>
</g>
</g>
<!-- Node1&#45;&gt;Node2 -->
<g id="edge1" class="edge">
<title>Node1&#45;&gt;Node2</title>
<path fill="none" stroke="midnightblue" d="M57.36,-76.65C72.18,-84.71 94.18,-96.26 114,-105 118.47,-106.97 123.21,-108.92 127.93,-110.77"/>
<polygon fill="midnightblue" stroke="midnightblue" points="126.91,-114.13 137.5,-114.43 129.41,-107.59 126.91,-114.13"/>
</g>
<!-- Node3 -->
<g id="node3" class="node">
<title>Node3</title>
<g id="a_node3"><a target="_blank" xlink:href="http://en.cppreference.com/w/cpp/io/manip/endl.html#" target="_top" xlink:title=" ">
<polygon fill="white" stroke="black" points="139,-76.5 139,-95.5 193,-95.5 193,-76.5 139,-76.5"/>
<text text-anchor="middle" x="166" y="-83.5" font-family="Helvetica,sans-Serif" font-size="10.00">std::endl</text>
</a>
</g>
</g>
<!-- Node1&#45;&gt;Node3 -->
<g id="edge2" class="edge">
<title>Node1&#45;&gt;Node3</title>
<path fill="none" stroke="midnightblue" d="M78.18,-72.8C94.32,-75.26 113.02,-78.1 128.92,-80.52"/>
<polygon fill="midnightblue" stroke="midnightblue" points="128.5,-83.99 138.91,-82.04 129.55,-77.07 128.5,-83.99"/>
</g>
<!-- Node4 -->
<g id="node4" class="node">
<title>Node4</title>
<g id="a_node4"><a target="_blank" xlink:href="http://en.cppreference.com/w/cpp/io/basic_ofstream/open.html#" target="_top" xlink:title=" ">
<polygon fill="white" stroke="black" points="115.5,-38.5 115.5,-57.5 216.5,-57.5 216.5,-38.5 115.5,-38.5"/>
<text text-anchor="middle" x="166" y="-45.5" font-family="Helvetica,sans-Serif" font-size="10.00">std::ofstream::open</text>
</a>
</g>
</g>
<!-- Node1&#45;&gt;Node4 -->
<g id="edge3" class="edge">
<title>Node1&#45;&gt;Node4</title>
<path fill="none" stroke="midnightblue" d="M78.18,-61.2C86.72,-59.9 95.98,-58.49 105.17,-57.09"/>
<polygon fill="midnightblue" stroke="midnightblue" points="105.7,-60.55 115.06,-55.59 104.65,-53.63 105.7,-60.55"/>
</g>
<!-- Node5 -->
<g id="node5" class="node">
<title>Node5</title>
<g id="a_node5"><a xlink:href="../../db/d25/class_tree234.html#a5398ff0e74e4319ea71eea7872689d2f" target="_top" xlink:title="Print the tree to a dot file. You can convert it to picture with graphviz.">
<polygon fill="white" stroke="black" points="115.5,-0.5 115.5,-19.5 216.5,-19.5 216.5,-0.5 115.5,-0.5"/>
<text text-anchor="middle" x="166" y="-7.5" font-family="Helvetica,sans-Serif" font-size="10.00">Tree234::PrintNode</text>
</a>
</g>
</g>
<!-- Node1&#45;&gt;Node5 -->
<g id="edge4" class="edge">
<title>Node1&#45;&gt;Node5</title>
<path fill="none" stroke="midnightblue" d="M57.36,-57.35C72.18,-49.29 94.18,-37.74 114,-29 118.47,-27.03 123.21,-25.08 127.93,-23.23"/>
<polygon fill="midnightblue" stroke="midnightblue" points="129.41,-26.41 137.5,-19.57 126.91,-19.87 129.41,-26.41"/>
</g>
</g>
</svg>
