<?xml version="1.0" encoding="UTF-8" standalone="no"?>
<!DOCTYPE svg PUBLIC "-//W3C//DTD SVG 1.1//EN"
 "http://www.w3.org/Graphics/SVG/1.1/DTD/svg11.dtd">
<!-- Generated by graphviz version 2.44.1 (20200629.0846)
 -->
<!-- Title: Tree234::MergeNodeNotFull Pages: 1 -->
<svg width="436pt" height="142pt"
 viewBox="0.00 0.00 436.00 142.00" xmlns="http://www.w3.org/2000/svg" xmlns:xlink="http://www.w3.org/1999/xlink">
<g id="graph0" class="graph" transform="scale(1 1) rotate(0) translate(4 138)">
<title>Tree234::MergeNodeNotFull</title>
<polygon fill="white" stroke="transparent" points="-4,4 -4,-138 432,-138 432,4 -4,4"/>
<!-- Node1 -->
<g id="node1" class="node">
<title>Node1</title>
<g id="a_node1"><a xlink:title="Merge node to a not&#45;full target node.">
<polygon fill="#bfbfbf" stroke="black" points="0,-38.5 0,-57.5 140,-57.5 140,-38.5 0,-38.5"/>
<text text-anchor="middle" x="70" y="-45.5" font-family="Helvetica,sans-Serif" font-size="10.00">Tree234::MergeNodeNotFull</text>
</a>
</g>
</g>
<!-- Node2 -->
<g id="node2" class="node">
<title>Node2</title>
<g id="a_node2"><a xlink:href="../../db/d8b/struct_node.html#a477404e67bd9114bf8203b47e2a2db20" target="_top" xlink:title="Insert item to the proper position of the node and return the position index.">
<polygon fill="white" stroke="black" points="176,-76.5 176,-95.5 266,-95.5 266,-76.5 176,-76.5"/>
<text text-anchor="middle" x="221" y="-83.5" font-family="Helvetica,sans-Serif" font-size="10.00">Node::InsertItem</text>
</a>
</g>
</g>
<!-- Node1&#45;&gt;Node2 -->
<g id="edge1" class="edge">
<title>Node1&#45;&gt;Node2</title>
<path fill="none" stroke="midnightblue" d="M108.6,-57.59C128.08,-62.56 152.07,-68.68 172.8,-73.96"/>
<polygon fill="midnightblue" stroke="midnightblue" points="172.12,-77.4 182.67,-76.48 173.85,-70.62 172.12,-77.4"/>
</g>
<!-- Node5 -->
<g id="node5" class="node">
<title>Node5</title>
<g id="a_node5"><a xlink:href="../../db/d8b/struct_node.html#a5cb5234ccefa82c8cc49842898131cb6" target="_top" xlink:title="Check if node is a full (4&#45;node)">
<polygon fill="white" stroke="black" points="330,-38.5 330,-57.5 400,-57.5 400,-38.5 330,-38.5"/>
<text text-anchor="middle" x="365" y="-45.5" font-family="Helvetica,sans-Serif" font-size="10.00">Node::IsFull</text>
</a>
</g>
</g>
<!-- Node1&#45;&gt;Node5 -->
<g id="edge5" class="edge">
<title>Node1&#45;&gt;Node5</title>
<path fill="none" stroke="midnightblue" d="M140.07,-48C195.71,-48 272.26,-48 319.9,-48"/>
<polygon fill="midnightblue" stroke="midnightblue" points="319.9,-51.5 329.9,-48 319.9,-44.5 319.9,-51.5"/>
</g>
<!-- Node6 -->
<g id="node6" class="node">
<title>Node6</title>
<g id="a_node6"><a xlink:href="../../db/d8b/struct_node.html#aee5fda5fc04b45a6b287aae043a6c3c9" target="_top" xlink:title="Set child pointer to the position of index.">
<polygon fill="white" stroke="black" points="179.5,-0.5 179.5,-19.5 262.5,-19.5 262.5,-0.5 179.5,-0.5"/>
<text text-anchor="middle" x="221" y="-7.5" font-family="Helvetica,sans-Serif" font-size="10.00">Node::SetChild</text>
</a>
</g>
</g>
<!-- Node1&#45;&gt;Node6 -->
<g id="edge6" class="edge">
<title>Node1&#45;&gt;Node6</title>
<path fill="none" stroke="midnightblue" d="M108.6,-38.41C128.08,-33.44 152.07,-27.32 172.8,-22.04"/>
<polygon fill="midnightblue" stroke="midnightblue" points="173.85,-25.38 182.67,-19.52 172.12,-18.6 173.85,-25.38"/>
</g>
<!-- Node3 -->
<g id="node3" class="node">
<title>Node3</title>
<g id="a_node3"><a xlink:href="../../db/d8b/struct_node.html#ad7920ac641adfec1510768d5504db1a6" target="_top" xlink:title="Check if item is in the node.">
<polygon fill="white" stroke="black" points="322.5,-114.5 322.5,-133.5 407.5,-133.5 407.5,-114.5 322.5,-114.5"/>
<text text-anchor="middle" x="365" y="-121.5" font-family="Helvetica,sans-Serif" font-size="10.00">Node::Contains</text>
</a>
</g>
</g>
<!-- Node2&#45;&gt;Node3 -->
<g id="edge2" class="edge">
<title>Node2&#45;&gt;Node3</title>
<path fill="none" stroke="midnightblue" d="M257.83,-95.59C276.16,-100.49 298.68,-106.52 318.25,-111.76"/>
<polygon fill="midnightblue" stroke="midnightblue" points="317.61,-115.21 328.18,-114.41 319.42,-108.45 317.61,-115.21"/>
</g>
<!-- Node4 -->
<g id="node4" class="node">
<title>Node4</title>
<g id="a_node4"><a xlink:href="../../db/d8b/struct_node.html#a08fe20a013c96ec8a12b70b1399f24ed" target="_top" xlink:title="Insert a value to the index position.">
<polygon fill="white" stroke="black" points="302,-76.5 302,-95.5 428,-95.5 428,-76.5 302,-76.5"/>
<text text-anchor="middle" x="365" y="-83.5" font-family="Helvetica,sans-Serif" font-size="10.00">Node::InsertItemByIndex</text>
</a>
</g>
</g>
<!-- Node2&#45;&gt;Node4 -->
<g id="edge3" class="edge">
<title>Node2&#45;&gt;Node4</title>
<path fill="none" stroke="midnightblue" d="M266.15,-86C274.29,-86 282.97,-86 291.68,-86"/>
<polygon fill="midnightblue" stroke="midnightblue" points="291.89,-89.5 301.89,-86 291.89,-82.5 291.89,-89.5"/>
</g>
<!-- Node2&#45;&gt;Node5 -->
<g id="edge4" class="edge">
<title>Node2&#45;&gt;Node5</title>
<path fill="none" stroke="midnightblue" d="M257.83,-76.41C276.67,-71.37 299.92,-65.15 319.86,-59.81"/>
<polygon fill="midnightblue" stroke="midnightblue" points="320.89,-63.16 329.65,-57.19 319.08,-56.4 320.89,-63.16"/>
</g>
</g>
</svg>
