<?xml version="1.0" encoding="UTF-8" standalone="no"?>
<!DOCTYPE svg PUBLIC "-//W3C//DTD SVG 1.1//EN"
 "http://www.w3.org/Graphics/SVG/1.1/DTD/svg11.dtd">
<!-- Generated by graphviz version 2.44.1 (20200629.0846)
 -->
<!-- Title: Tree234::GetTreeMaxItem Pages: 1 -->
<svg width="304pt" height="66pt"
 viewBox="0.00 0.00 304.00 66.00" xmlns="http://www.w3.org/2000/svg" xmlns:xlink="http://www.w3.org/1999/xlink">
<g id="graph0" class="graph" transform="scale(1 1) rotate(0) translate(4 62)">
<title>Tree234::GetTreeMaxItem</title>
<polygon fill="white" stroke="transparent" points="-4,4 -4,-62 300,-62 300,4 -4,4"/>
<!-- Node1 -->
<g id="node1" class="node">
<title>Node1</title>
<g id="a_node1"><a xlink:title="Get the max item of the tree.">
<polygon fill="#bfbfbf" stroke="black" points="0,-19.5 0,-38.5 131,-38.5 131,-19.5 0,-19.5"/>
<text text-anchor="middle" x="65.5" y="-26.5" font-family="Helvetica,sans-Serif" font-size="10.00">Tree234::GetTreeMaxItem</text>
</a>
</g>
</g>
<!-- Node2 -->
<g id="node2" class="node">
<title>Node2</title>
<g id="a_node2"><a xlink:href="../../db/d8b/struct_node.html#a537cc97f69363f7842378319ee578ec0" target="_top" xlink:title="Get max item (rightmost) in the current node.">
<polygon fill="white" stroke="black" points="181.5,-38.5 181.5,-57.5 281.5,-57.5 281.5,-38.5 181.5,-38.5"/>
<text text-anchor="middle" x="231.5" y="-45.5" font-family="Helvetica,sans-Serif" font-size="10.00">Node::GetMaxItem</text>
</a>
</g>
</g>
<!-- Node1&#45;&gt;Node2 -->
<g id="edge1" class="edge">
<title>Node1&#45;&gt;Node2</title>
<path fill="none" stroke="midnightblue" d="M131.32,-36.51C144.46,-38.03 158.21,-39.63 171.15,-41.12"/>
<polygon fill="midnightblue" stroke="midnightblue" points="170.99,-44.63 181.33,-42.3 171.8,-37.68 170.99,-44.63"/>
</g>
<!-- Node3 -->
<g id="node3" class="node">
<title>Node3</title>
<g id="a_node3"><a xlink:href="../../db/d8b/struct_node.html#a1e2c6a52b704f81caced187e5dc7735e" target="_top" xlink:title="Get rightmose child of the current node.">
<polygon fill="white" stroke="black" points="167,-0.5 167,-19.5 296,-19.5 296,-0.5 167,-0.5"/>
<text text-anchor="middle" x="231.5" y="-7.5" font-family="Helvetica,sans-Serif" font-size="10.00">Node::GetRightmostChild</text>
</a>
</g>
</g>
<!-- Node1&#45;&gt;Node3 -->
<g id="edge2" class="edge">
<title>Node1&#45;&gt;Node3</title>
<path fill="none" stroke="midnightblue" d="M131.32,-21.49C139.75,-20.51 148.43,-19.51 156.99,-18.52"/>
<polygon fill="midnightblue" stroke="midnightblue" points="157.43,-21.99 166.96,-17.36 156.62,-15.04 157.43,-21.99"/>
</g>
</g>
</svg>
