<?xml version="1.0" encoding="UTF-8" standalone="no"?>
<!DOCTYPE svg PUBLIC "-//W3C//DTD SVG 1.1//EN"
 "http://www.w3.org/Graphics/SVG/1.1/DTD/svg11.dtd">
<!-- Generated by graphviz version 2.44.1 (20200629.0846)
 -->
<!-- Title: Tree234::Insert Pages: 1 -->
<svg width="887pt" height="256pt"
 viewBox="0.00 0.00 887.00 256.00" xmlns="http://www.w3.org/2000/svg" xmlns:xlink="http://www.w3.org/1999/xlink">
<g id="graph0" class="graph" transform="scale(1 1) rotate(0) translate(4 252)">
<title>Tree234::Insert</title>
<polygon fill="white" stroke="transparent" points="-4,4 -4,-252 883,-252 883,4 -4,4"/>
<!-- Node1 -->
<g id="node1" class="node">
<title>Node1</title>
<g id="a_node1"><a xlink:title="A helper function used by post&#45;merge insert.">
<polygon fill="#bfbfbf" stroke="black" points="0,-133.5 0,-152.5 83,-152.5 83,-133.5 0,-133.5"/>
<text text-anchor="middle" x="41.5" y="-140.5" font-family="Helvetica,sans-Serif" font-size="10.00">Tree234::Insert</text>
</a>
</g>
</g>
<!-- Node2 -->
<g id="node2" class="node">
<title>Node2</title>
<g id="a_node2"><a xlink:href="../../db/d8b/struct_node.html#ad7920ac641adfec1510768d5504db1a6" target="_top" xlink:title="Check if item is in the node.">
<polygon fill="white" stroke="black" points="773.5,-228.5 773.5,-247.5 858.5,-247.5 858.5,-228.5 773.5,-228.5"/>
<text text-anchor="middle" x="816" y="-235.5" font-family="Helvetica,sans-Serif" font-size="10.00">Node::Contains</text>
</a>
</g>
</g>
<!-- Node1&#45;&gt;Node2 -->
<g id="edge1" class="edge">
<title>Node1&#45;&gt;Node2</title>
<path fill="none" stroke="midnightblue" d="M50.79,-152.61C63.74,-166.91 90.3,-193.47 119,-206 216.21,-248.45 249.43,-238 355.5,-238 355.5,-238 355.5,-238 522,-238 606.46,-238 704.61,-238 763.16,-238"/>
<polygon fill="midnightblue" stroke="midnightblue" points="763.27,-241.5 773.27,-238 763.27,-234.5 763.27,-241.5"/>
</g>
<!-- Node3 -->
<g id="node3" class="node">
<title>Node3</title>
<g id="a_node3"><a target="_blank" xlink:href="http://en.cppreference.com/w/cpp/memory/unique_ptr/get.html#" target="_top" xlink:title=" ">
<polygon fill="white" stroke="black" points="470.5,-190.5 470.5,-209.5 571.5,-209.5 571.5,-190.5 470.5,-190.5"/>
<text text-anchor="middle" x="521" y="-197.5" font-family="Helvetica,sans-Serif" font-size="10.00">std::unique_ptr::get</text>
</a>
</g>
</g>
<!-- Node1&#45;&gt;Node3 -->
<g id="edge2" class="edge">
<title>Node1&#45;&gt;Node3</title>
<path fill="none" stroke="midnightblue" d="M57.02,-152.51C71.89,-161.68 96.04,-175.03 119,-181 236.82,-211.61 380.53,-209.3 459.96,-204.74"/>
<polygon fill="midnightblue" stroke="midnightblue" points="460.49,-208.21 470.26,-204.11 460.07,-201.22 460.49,-208.21"/>
</g>
<!-- Node4 -->
<g id="node4" class="node">
<title>Node4</title>
<g id="a_node4"><a xlink:href="../../db/d8b/struct_node.html#a209585e8673b1c70d43d68df609deaf2" target="_top" xlink:title="Get next node which is possibly contains item.">
<polygon fill="white" stroke="black" points="119,-76.5 119,-95.5 262,-95.5 262,-76.5 119,-76.5"/>
<text text-anchor="middle" x="190.5" y="-83.5" font-family="Helvetica,sans-Serif" font-size="10.00">Node::GetNextPossibleChild</text>
</a>
</g>
</g>
<!-- Node1&#45;&gt;Node4 -->
<g id="edge3" class="edge">
<title>Node1&#45;&gt;Node4</title>
<path fill="none" stroke="midnightblue" d="M63.42,-133.44C78.69,-126.6 99.97,-117.33 119,-110 129.06,-106.13 140.04,-102.23 150.28,-98.74"/>
<polygon fill="midnightblue" stroke="midnightblue" points="151.45,-102.03 159.81,-95.53 149.22,-95.4 151.45,-102.03"/>
</g>
<!-- Node5 -->
<g id="node5" class="node">
<title>Node5</title>
<g id="a_node5"><a xlink:href="../../db/d25/class_tree234.html#ae32268e51da1bd5062c411deb34c4647" target="_top" xlink:title="Insert item to tree.">
<polygon fill="white" stroke="black" points="149,-152.5 149,-171.5 232,-171.5 232,-152.5 149,-152.5"/>
<text text-anchor="middle" x="190.5" y="-159.5" font-family="Helvetica,sans-Serif" font-size="10.00">Tree234::Insert</text>
</a>
</g>
</g>
<!-- Node1&#45;&gt;Node5 -->
<g id="edge4" class="edge">
<title>Node1&#45;&gt;Node5</title>
<path fill="none" stroke="midnightblue" d="M83.06,-148.24C100.26,-150.47 120.49,-153.08 138.68,-155.43"/>
<polygon fill="midnightblue" stroke="midnightblue" points="138.45,-158.93 148.82,-156.74 139.35,-151.99 138.45,-158.93"/>
</g>
<!-- Node13 -->
<g id="node13" class="node">
<title>Node13</title>
<g id="a_node13"><a xlink:href="../../db/d25/class_tree234.html#a7e09153922c331f61d6798bcac905be2" target="_top" xlink:title="A helper function used during post&#45;merge insert.">
<polygon fill="white" stroke="black" points="302.5,-95.5 302.5,-114.5 410.5,-114.5 410.5,-95.5 302.5,-95.5"/>
<text text-anchor="middle" x="356.5" y="-102.5" font-family="Helvetica,sans-Serif" font-size="10.00">Tree234::MergeNode</text>
</a>
</g>
</g>
<!-- Node1&#45;&gt;Node13 -->
<g id="edge15" class="edge">
<title>Node1&#45;&gt;Node13</title>
<path fill="none" stroke="midnightblue" d="M83.1,-138.07C136.22,-131.62 229.86,-120.25 292.3,-112.67"/>
<polygon fill="midnightblue" stroke="midnightblue" points="292.92,-116.12 302.42,-111.44 292.07,-109.17 292.92,-116.12"/>
</g>
<!-- Node16 -->
<g id="node16" class="node">
<title>Node16</title>
<g id="a_node16"><a target="_blank" xlink:href="http://en.cppreference.com/w/cpp/memory/unique_ptr/reset.html#" target="_top" xlink:title=" ">
<polygon fill="white" stroke="black" points="136,-38.5 136,-57.5 245,-57.5 245,-38.5 136,-38.5"/>
<text text-anchor="middle" x="190.5" y="-45.5" font-family="Helvetica,sans-Serif" font-size="10.00">std::unique_ptr::reset</text>
</a>
</g>
</g>
<!-- Node1&#45;&gt;Node16 -->
<g id="edge21" class="edge">
<title>Node1&#45;&gt;Node16</title>
<path fill="none" stroke="midnightblue" d="M49.37,-133.48C61.54,-117.32 88.5,-84.57 119,-67 122.87,-64.77 127.02,-62.79 131.28,-61.04"/>
<polygon fill="midnightblue" stroke="midnightblue" points="132.58,-64.29 140.76,-57.56 130.17,-57.72 132.58,-64.29"/>
</g>
<!-- Node6 -->
<g id="node6" class="node">
<title>Node6</title>
<g id="a_node6"><a xlink:href="../../db/d25/class_tree234.html#a5ac0ec7f8b4e42b9afea294670f758cd" target="_top" xlink:title="A insert implementation of pre&#45;split.">
<polygon fill="white" stroke="black" points="298,-152.5 298,-171.5 415,-171.5 415,-152.5 298,-152.5"/>
<text text-anchor="middle" x="356.5" y="-159.5" font-family="Helvetica,sans-Serif" font-size="10.00">Tree234::InsertPreSplit</text>
</a>
</g>
</g>
<!-- Node5&#45;&gt;Node6 -->
<g id="edge5" class="edge">
<title>Node5&#45;&gt;Node6</title>
<path fill="none" stroke="midnightblue" d="M232.04,-162C248.84,-162 268.8,-162 287.72,-162"/>
<polygon fill="midnightblue" stroke="midnightblue" points="287.79,-165.5 297.79,-162 287.79,-158.5 287.79,-165.5"/>
</g>
<!-- Node6&#45;&gt;Node3 -->
<g id="edge6" class="edge">
<title>Node6&#45;&gt;Node3</title>
<path fill="none" stroke="midnightblue" d="M398.51,-171.59C420.05,-176.63 446.63,-182.84 469.44,-188.18"/>
<polygon fill="midnightblue" stroke="midnightblue" points="468.75,-191.61 479.29,-190.48 470.35,-184.79 468.75,-191.61"/>
</g>
<!-- Node7 -->
<g id="node7" class="node">
<title>Node7</title>
<g id="a_node7"><a xlink:href="../../db/d25/class_tree234.html#a5ceb8cd694a3edb6e70ed3dd54ee4521" target="_top" xlink:title="Merge node to a not&#45;full target node.">
<polygon fill="white" stroke="black" points="451,-114.5 451,-133.5 591,-133.5 591,-114.5 451,-114.5"/>
<text text-anchor="middle" x="521" y="-121.5" font-family="Helvetica,sans-Serif" font-size="10.00">Tree234::MergeNodeNotFull</text>
</a>
</g>
</g>
<!-- Node6&#45;&gt;Node7 -->
<g id="edge7" class="edge">
<title>Node6&#45;&gt;Node7</title>
<path fill="none" stroke="midnightblue" d="M398.51,-152.41C420.05,-147.37 446.63,-141.16 469.44,-135.82"/>
<polygon fill="midnightblue" stroke="midnightblue" points="470.35,-139.21 479.29,-133.52 468.75,-132.39 470.35,-139.21"/>
</g>
<!-- Node12 -->
<g id="node12" class="node">
<title>Node12</title>
<g id="a_node12"><a xlink:href="../../db/d25/class_tree234.html#ae36a2684ad2d5cea087cbb5c7d94e96c" target="_top" xlink:title="Split a 4&#45;node to 1 parent and 2 children, and return the parent node.">
<polygon fill="white" stroke="black" points="470.5,-152.5 470.5,-171.5 571.5,-171.5 571.5,-152.5 470.5,-152.5"/>
<text text-anchor="middle" x="521" y="-159.5" font-family="Helvetica,sans-Serif" font-size="10.00">Tree234::SplitNode</text>
</a>
</g>
</g>
<!-- Node6&#45;&gt;Node12 -->
<g id="edge14" class="edge">
<title>Node6&#45;&gt;Node12</title>
<path fill="none" stroke="midnightblue" d="M415.25,-162C429.71,-162 445.26,-162 459.83,-162"/>
<polygon fill="midnightblue" stroke="midnightblue" points="460.25,-165.5 470.25,-162 460.25,-158.5 460.25,-165.5"/>
</g>
<!-- Node8 -->
<g id="node8" class="node">
<title>Node8</title>
<g id="a_node8"><a xlink:href="../../db/d8b/struct_node.html#a477404e67bd9114bf8203b47e2a2db20" target="_top" xlink:title="Insert item to the proper position of the node and return the position index.">
<polygon fill="white" stroke="black" points="627,-190.5 627,-209.5 717,-209.5 717,-190.5 627,-190.5"/>
<text text-anchor="middle" x="672" y="-197.5" font-family="Helvetica,sans-Serif" font-size="10.00">Node::InsertItem</text>
</a>
</g>
</g>
<!-- Node7&#45;&gt;Node8 -->
<g id="edge8" class="edge">
<title>Node7&#45;&gt;Node8</title>
<path fill="none" stroke="midnightblue" d="M570.17,-133.61C577.42,-136.08 584.61,-139.16 591,-143 610.95,-154.97 607.93,-167.67 627,-181 629.51,-182.75 632.21,-184.4 634.99,-185.92"/>
<polygon fill="midnightblue" stroke="midnightblue" points="633.5,-189.1 644.02,-190.4 636.61,-182.82 633.5,-189.1"/>
</g>
<!-- Node10 -->
<g id="node10" class="node">
<title>Node10</title>
<g id="a_node10"><a xlink:href="../../db/d8b/struct_node.html#a5cb5234ccefa82c8cc49842898131cb6" target="_top" xlink:title="Check if node is a full (4&#45;node)">
<polygon fill="white" stroke="black" points="781,-114.5 781,-133.5 851,-133.5 851,-114.5 781,-114.5"/>
<text text-anchor="middle" x="816" y="-121.5" font-family="Helvetica,sans-Serif" font-size="10.00">Node::IsFull</text>
</a>
</g>
</g>
<!-- Node7&#45;&gt;Node10 -->
<g id="edge12" class="edge">
<title>Node7&#45;&gt;Node10</title>
<path fill="none" stroke="midnightblue" d="M591.07,-124C646.71,-124 723.26,-124 770.9,-124"/>
<polygon fill="midnightblue" stroke="midnightblue" points="770.9,-127.5 780.9,-124 770.9,-120.5 770.9,-127.5"/>
</g>
<!-- Node11 -->
<g id="node11" class="node">
<title>Node11</title>
<g id="a_node11"><a xlink:href="../../db/d8b/struct_node.html#aee5fda5fc04b45a6b287aae043a6c3c9" target="_top" xlink:title="Set child pointer to the position of index.">
<polygon fill="white" stroke="black" points="630.5,-152.5 630.5,-171.5 713.5,-171.5 713.5,-152.5 630.5,-152.5"/>
<text text-anchor="middle" x="672" y="-159.5" font-family="Helvetica,sans-Serif" font-size="10.00">Node::SetChild</text>
</a>
</g>
</g>
<!-- Node7&#45;&gt;Node11 -->
<g id="edge13" class="edge">
<title>Node7&#45;&gt;Node11</title>
<path fill="none" stroke="midnightblue" d="M559.6,-133.59C579.08,-138.56 603.07,-144.68 623.8,-149.96"/>
<polygon fill="midnightblue" stroke="midnightblue" points="623.12,-153.4 633.67,-152.48 624.85,-146.62 623.12,-153.4"/>
</g>
<!-- Node8&#45;&gt;Node2 -->
<g id="edge9" class="edge">
<title>Node8&#45;&gt;Node2</title>
<path fill="none" stroke="midnightblue" d="M708.83,-209.59C727.16,-214.49 749.68,-220.52 769.25,-225.76"/>
<polygon fill="midnightblue" stroke="midnightblue" points="768.61,-229.21 779.18,-228.41 770.42,-222.45 768.61,-229.21"/>
</g>
<!-- Node9 -->
<g id="node9" class="node">
<title>Node9</title>
<g id="a_node9"><a xlink:href="../../db/d8b/struct_node.html#a08fe20a013c96ec8a12b70b1399f24ed" target="_top" xlink:title="Insert a value to the index position.">
<polygon fill="white" stroke="black" points="753,-190.5 753,-209.5 879,-209.5 879,-190.5 753,-190.5"/>
<text text-anchor="middle" x="816" y="-197.5" font-family="Helvetica,sans-Serif" font-size="10.00">Node::InsertItemByIndex</text>
</a>
</g>
</g>
<!-- Node8&#45;&gt;Node9 -->
<g id="edge10" class="edge">
<title>Node8&#45;&gt;Node9</title>
<path fill="none" stroke="midnightblue" d="M717.15,-200C725.29,-200 733.97,-200 742.68,-200"/>
<polygon fill="midnightblue" stroke="midnightblue" points="742.89,-203.5 752.89,-200 742.89,-196.5 742.89,-203.5"/>
</g>
<!-- Node8&#45;&gt;Node10 -->
<g id="edge11" class="edge">
<title>Node8&#45;&gt;Node10</title>
<path fill="none" stroke="midnightblue" d="M696.53,-190.45C703.22,-187.57 710.46,-184.3 717,-181 742.94,-167.91 771.55,-150.97 791.13,-138.96"/>
<polygon fill="midnightblue" stroke="midnightblue" points="793.03,-141.9 799.7,-133.67 789.35,-135.94 793.03,-141.9"/>
</g>
<!-- Node13&#45;&gt;Node7 -->
<g id="edge19" class="edge">
<title>Node13&#45;&gt;Node7</title>
<path fill="none" stroke="midnightblue" d="M410.71,-111.22C420.36,-112.35 430.61,-113.55 440.82,-114.74"/>
<polygon fill="midnightblue" stroke="midnightblue" points="440.65,-118.25 450.99,-115.93 441.46,-111.29 440.65,-118.25"/>
</g>
<!-- Node13&#45;&gt;Node10 -->
<g id="edge18" class="edge">
<title>Node13&#45;&gt;Node10</title>
<path fill="none" stroke="midnightblue" d="M410.85,-103.72C458.2,-102.89 529.23,-102.39 591,-105 653.58,-107.65 725.74,-114.44 770.87,-119.15"/>
<polygon fill="midnightblue" stroke="midnightblue" points="770.59,-122.64 780.9,-120.2 771.32,-115.68 770.59,-122.64"/>
</g>
<!-- Node13&#45;&gt;Node12 -->
<g id="edge20" class="edge">
<title>Node13&#45;&gt;Node12</title>
<path fill="none" stroke="midnightblue" d="M379.14,-114.64C397.92,-122.8 425.95,-134.49 451,-143 457.88,-145.33 465.21,-147.59 472.43,-149.69"/>
<polygon fill="midnightblue" stroke="midnightblue" points="471.58,-153.09 482.16,-152.44 473.48,-146.35 471.58,-153.09"/>
</g>
<!-- Node14 -->
<g id="node14" class="node">
<title>Node14</title>
<g id="a_node14"><a xlink:href="../../db/d8b/struct_node.html#aed57badf844a6298f225260fea386668" target="_top" xlink:title="Get the child pointer at position of index.">
<polygon fill="white" stroke="black" points="479,-0.5 479,-19.5 563,-19.5 563,-0.5 479,-0.5"/>
<text text-anchor="middle" x="521" y="-7.5" font-family="Helvetica,sans-Serif" font-size="10.00">Node::GetChild</text>
</a>
</g>
</g>
<!-- Node13&#45;&gt;Node14 -->
<g id="edge16" class="edge">
<title>Node13&#45;&gt;Node14</title>
<path fill="none" stroke="midnightblue" d="M366.64,-95.32C382.36,-79.21 416.22,-46.91 451,-29 456.65,-26.09 462.81,-23.58 469.03,-21.43"/>
<polygon fill="midnightblue" stroke="midnightblue" points="470.33,-24.69 478.81,-18.35 468.22,-18.02 470.33,-24.69"/>
</g>
<!-- Node15 -->
<g id="node15" class="node">
<title>Node15</title>
<g id="a_node15"><a xlink:href="../../db/d8b/struct_node.html#a399c5d3bc71d5d145c1ae2aa22b2e867" target="_top" xlink:title="Get item of the \index index.">
<polygon fill="white" stroke="black" points="480.5,-38.5 480.5,-57.5 561.5,-57.5 561.5,-38.5 480.5,-38.5"/>
<text text-anchor="middle" x="521" y="-45.5" font-family="Helvetica,sans-Serif" font-size="10.00">Node::GetItem</text>
</a>
</g>
</g>
<!-- Node13&#45;&gt;Node15 -->
<g id="edge17" class="edge">
<title>Node13&#45;&gt;Node15</title>
<path fill="none" stroke="midnightblue" d="M384.49,-95.44C403.16,-88.83 428.58,-79.86 451,-72 461.34,-68.38 472.56,-64.47 482.89,-60.87"/>
<polygon fill="midnightblue" stroke="midnightblue" points="484.16,-64.14 492.46,-57.55 481.86,-57.52 484.16,-64.14"/>
</g>
</g>
</svg>
