<?xml version="1.0" encoding="UTF-8" standalone="no"?>
<!DOCTYPE svg PUBLIC "-//W3C//DTD SVG 1.1//EN"
 "http://www.w3.org/Graphics/SVG/1.1/DTD/svg11.dtd">
<!-- Generated by graphviz version 2.44.1 (20200629.0846)
 -->
<!-- Title: hash_chain Pages: 1 -->
<svg width="291pt" height="327pt"
 viewBox="0.00 0.00 290.50 327.00" xmlns="http://www.w3.org/2000/svg" xmlns:xlink="http://www.w3.org/1999/xlink">
<g id="graph0" class="graph" transform="scale(1 1) rotate(0) translate(4 323)">
<title>hash_chain</title>
<polygon fill="white" stroke="transparent" points="-4,4 -4,-323 286.5,-323 286.5,4 -4,4"/>
<!-- Node1 -->
<g id="node1" class="node">
<title>Node1</title>
<g id="a_node1"><a xlink:title="Chain class with a given modulus.">
<polygon fill="#bfbfbf" stroke="black" points="72,-0.5 72,-19.5 138,-19.5 138,-0.5 72,-0.5"/>
<text text-anchor="middle" x="105" y="-7.5" font-family="Helvetica,sans-Serif" font-size="10.00">hash_chain</text>
</a>
</g>
</g>
<!-- Node2 -->
<g id="node2" class="node">
<title>Node2</title>
<g id="a_node2"><a target="_blank" xlink:href="http://en.cppreference.com/w/cpp/memory/shared_ptr.html" target="_top" xlink:title=" ">
<polygon fill="white" stroke="black" points="0,-116.5 0,-146.5 116,-146.5 116,-116.5 0,-116.5"/>
<text text-anchor="start" x="8" y="-134.5" font-family="Helvetica,sans-Serif" font-size="10.00">std::shared_ptr&lt; struct</text>
<text text-anchor="middle" x="58" y="-123.5" font-family="Helvetica,sans-Serif" font-size="10.00"> Node &gt;</text>
</a>
</g>
</g>
<!-- Node2&#45;&gt;Node1 -->
<g id="edge1" class="edge">
<title>Node2&#45;&gt;Node1</title>
<path fill="none" stroke="#9a32cd" stroke-dasharray="5,2" d="M67.28,-106.91C77.8,-80.15 94.42,-37.89 101.56,-19.75"/>
<polygon fill="#9a32cd" stroke="#9a32cd" points="63.98,-105.74 63.58,-116.32 70.49,-108.3 63.98,-105.74"/>
<text text-anchor="middle" x="94" y="-80" font-family="Helvetica,sans-Serif" font-size="10.00"> next</text>
</g>
<!-- Node3 -->
<g id="node3" class="node">
<title>Node3</title>
<g id="a_node3"><a xlink:href="../../db/d8b/struct_node.html" target="_top" xlink:title="for std::to_string">
<polygon fill="white" stroke="black" points="71,-232.5 71,-251.5 111,-251.5 111,-232.5 71,-232.5"/>
<text text-anchor="middle" x="91" y="-239.5" font-family="Helvetica,sans-Serif" font-size="10.00">Node</text>
</a>
</g>
</g>
<!-- Node3&#45;&gt;Node2 -->
<g id="edge2" class="edge">
<title>Node3&#45;&gt;Node2</title>
<path fill="none" stroke="#9a32cd" stroke-dasharray="5,2" d="M61.65,-230.31C52.51,-226.11 42.79,-220.67 35,-214 23.11,-203.82 19.65,-199.95 15,-185 12.36,-176.51 11.04,-172.96 15,-165 18.67,-157.63 24.9,-151.48 31.49,-146.59"/>
<polygon fill="#9a32cd" stroke="#9a32cd" points="60.3,-233.54 70.87,-234.24 63.04,-227.1 60.3,-233.54"/>
<text text-anchor="middle" x="42.5" y="-206" font-family="Helvetica,sans-Serif" font-size="10.00"> ptr</text>
</g>
<!-- Node3&#45;&gt;Node3 -->
<g id="edge3" class="edge">
<title>Node3&#45;&gt;Node3</title>
<path fill="none" stroke="#9a32cd" stroke-dasharray="5,2" d="M121.42,-247.44C125.94,-246.59 129,-244.78 129,-242 129,-237.44 120.76,-235.48 111.33,-236.12"/>
<polygon fill="#9a32cd" stroke="#9a32cd" points="121.17,-243.95 111.33,-247.88 121.47,-250.94 121.17,-243.95"/>
<text text-anchor="middle" x="140" y="-239.5" font-family="Helvetica,sans-Serif" font-size="10.00"> next</text>
</g>
<!-- Node4 -->
<g id="node4" class="node">
<title>Node4</title>
<g id="a_node4"><a target="_blank" xlink:href="http://en.cppreference.com/w/cpp/container/array.html" target="_top" xlink:title=" ">
<polygon fill="white" stroke="black" points="24.5,-165.5 24.5,-184.5 141.5,-184.5 141.5,-165.5 24.5,-165.5"/>
<text text-anchor="middle" x="83" y="-172.5" font-family="Helvetica,sans-Serif" font-size="10.00">std::array&lt; Node *, 4 &gt;</text>
</a>
</g>
</g>
<!-- Node3&#45;&gt;Node4 -->
<g id="edge5" class="edge">
<title>Node3&#45;&gt;Node4</title>
<path fill="none" stroke="#9a32cd" stroke-dasharray="5,2" d="M65.16,-226.43C61.06,-222.91 57.38,-218.77 55,-214 49.58,-203.15 59.78,-192.15 69.36,-184.79"/>
<polygon fill="#9a32cd" stroke="#9a32cd" points="63.22,-229.34 73.36,-232.41 67.34,-223.69 63.22,-229.34"/>
<text text-anchor="middle" x="76.5" y="-206" font-family="Helvetica,sans-Serif" font-size="10.00"> elements</text>
</g>
<!-- Node7 -->
<g id="node7" class="node">
<title>Node7</title>
<g id="a_node7"><a target="_blank" xlink:href="http://en.cppreference.com/w/cpp/memory/shared_ptr.html" target="_top" xlink:title=" ">
<polygon fill="white" stroke="black" points="159.5,-165.5 159.5,-184.5 282.5,-184.5 282.5,-165.5 159.5,-165.5"/>
<text text-anchor="middle" x="221" y="-172.5" font-family="Helvetica,sans-Serif" font-size="10.00">std::shared_ptr&lt; Node &gt;</text>
</a>
</g>
</g>
<!-- Node3&#45;&gt;Node7 -->
<g id="edge9" class="edge">
<title>Node3&#45;&gt;Node7</title>
<path fill="none" stroke="#9a32cd" stroke-dasharray="5,2" d="M117.45,-227.77C143.2,-214.9 181.58,-195.71 203.67,-184.67"/>
<polygon fill="#9a32cd" stroke="#9a32cd" points="115.64,-224.77 108.26,-232.37 118.77,-231.03 115.64,-224.77"/>
<text text-anchor="middle" x="170.5" y="-206" font-family="Helvetica,sans-Serif" font-size="10.00"> ptr</text>
</g>
<!-- Node4&#45;&gt;Node3 -->
<g id="edge4" class="edge">
<title>Node4&#45;&gt;Node3</title>
<path fill="none" stroke="#9a32cd" stroke-dasharray="5,2" d="M97.17,-192.89C99.16,-196.07 100.89,-199.51 102,-203 105.15,-212.95 100.68,-224.48 96.53,-232.21"/>
<polygon fill="#9a32cd" stroke="#9a32cd" points="99.95,-190.76 91.23,-184.73 94.28,-194.87 99.95,-190.76"/>
<text text-anchor="middle" x="122.5" y="-206" font-family="Helvetica,sans-Serif" font-size="10.00"> children</text>
</g>
<!-- Node5 -->
<g id="node5" class="node">
<title>Node5</title>
<g id="a_node5"><a target="_blank" xlink:href="http://en.cppreference.com/w/cpp/container/array.html" target="_top" xlink:title=" ">
<polygon fill="white" stroke="black" points="42,-299.5 42,-318.5 140,-318.5 140,-299.5 42,-299.5"/>
<text text-anchor="middle" x="91" y="-306.5" font-family="Helvetica,sans-Serif" font-size="10.00">std::array&lt; int, 3 &gt;</text>
</a>
</g>
</g>
<!-- Node5&#45;&gt;Node3 -->
<g id="edge6" class="edge">
<title>Node5&#45;&gt;Node3</title>
<path fill="none" stroke="#9a32cd" stroke-dasharray="5,2" d="M91,-289.04C91,-276.67 91,-261.12 91,-251.63"/>
<polygon fill="#9a32cd" stroke="#9a32cd" points="87.5,-289.23 91,-299.23 94.5,-289.23 87.5,-289.23"/>
<text text-anchor="middle" x="105" y="-273" font-family="Helvetica,sans-Serif" font-size="10.00"> items</text>
</g>
<!-- Node6 -->
<g id="node6" class="node">
<title>Node6</title>
<g id="a_node6"><a target="_blank" xlink:href="http://en.cppreference.com/w/cpp/container/vector.html" target="_top" xlink:title=" ">
<polygon fill="white" stroke="black" points="144.5,-67.5 144.5,-97.5 265.5,-97.5 265.5,-67.5 144.5,-67.5"/>
<text text-anchor="start" x="152.5" y="-85.5" font-family="Helvetica,sans-Serif" font-size="10.00">std::vector&lt; std::shared</text>
<text text-anchor="middle" x="205" y="-74.5" font-family="Helvetica,sans-Serif" font-size="10.00">_ptr&lt; Node &gt; &gt;</text>
</a>
</g>
</g>
<!-- Node6&#45;&gt;Node1 -->
<g id="edge7" class="edge">
<title>Node6&#45;&gt;Node1</title>
<path fill="none" stroke="#9a32cd" stroke-dasharray="5,2" d="M176.49,-61.4C156.95,-47.62 131.99,-30.03 117.33,-19.69"/>
<polygon fill="#9a32cd" stroke="#9a32cd" points="174.57,-64.33 184.76,-67.23 178.61,-58.61 174.57,-64.33"/>
<text text-anchor="middle" x="169.5" y="-41" font-family="Helvetica,sans-Serif" font-size="10.00"> head</text>
</g>
<!-- Node7&#45;&gt;Node6 -->
<g id="edge8" class="edge">
<title>Node7&#45;&gt;Node6</title>
<path fill="none" stroke="#9a32cd" stroke-dasharray="5,2" d="M217.71,-155.37C214.67,-138.22 210.24,-113.14 207.49,-97.59"/>
<polygon fill="#9a32cd" stroke="#9a32cd" points="214.28,-156.08 219.47,-165.32 221.17,-154.87 214.28,-156.08"/>
<text text-anchor="middle" x="236.5" y="-129" font-family="Helvetica,sans-Serif" font-size="10.00"> elements</text>
</g>
</g>
</svg>
