<?xml version="1.0" encoding="UTF-8" standalone="no"?>
<!DOCTYPE svg PUBLIC "-//W3C//DTD SVG 1.1//EN"
 "http://www.w3.org/Graphics/SVG/1.1/DTD/svg11.dtd">
<!-- Generated by graphviz version 2.44.1 (20200629.0846)
 -->
<!-- Title: Node::InsertItem Pages: 1 -->
<svg width="260pt" height="104pt"
 viewBox="0.00 0.00 260.00 104.00" xmlns="http://www.w3.org/2000/svg" xmlns:xlink="http://www.w3.org/1999/xlink">
<g id="graph0" class="graph" transform="scale(1 1) rotate(0) translate(4 100)">
<title>Node::InsertItem</title>
<polygon fill="white" stroke="transparent" points="-4,4 -4,-100 256,-100 256,4 -4,4"/>
<!-- Node1 -->
<g id="node1" class="node">
<title>Node1</title>
<g id="a_node1"><a xlink:title="Insert item to the proper position of the node and return the position index.">
<polygon fill="#bfbfbf" stroke="black" points="0,-38.5 0,-57.5 90,-57.5 90,-38.5 0,-38.5"/>
<text text-anchor="middle" x="45" y="-45.5" font-family="Helvetica,sans-Serif" font-size="10.00">Node::InsertItem</text>
</a>
</g>
</g>
<!-- Node2 -->
<g id="node2" class="node">
<title>Node2</title>
<g id="a_node2"><a xlink:href="../../db/d8b/struct_node.html#ad7920ac641adfec1510768d5504db1a6" target="_top" xlink:title="Check if item is in the node.">
<polygon fill="white" stroke="black" points="146.5,-76.5 146.5,-95.5 231.5,-95.5 231.5,-76.5 146.5,-76.5"/>
<text text-anchor="middle" x="189" y="-83.5" font-family="Helvetica,sans-Serif" font-size="10.00">Node::Contains</text>
</a>
</g>
</g>
<!-- Node1&#45;&gt;Node2 -->
<g id="edge1" class="edge">
<title>Node1&#45;&gt;Node2</title>
<path fill="none" stroke="midnightblue" d="M81.83,-57.59C100.16,-62.49 122.68,-68.52 142.25,-73.76"/>
<polygon fill="midnightblue" stroke="midnightblue" points="141.61,-77.21 152.18,-76.41 143.42,-70.45 141.61,-77.21"/>
</g>
<!-- Node3 -->
<g id="node3" class="node">
<title>Node3</title>
<g id="a_node3"><a xlink:href="../../db/d8b/struct_node.html#a08fe20a013c96ec8a12b70b1399f24ed" target="_top" xlink:title="Insert a value to the index position.">
<polygon fill="white" stroke="black" points="126,-38.5 126,-57.5 252,-57.5 252,-38.5 126,-38.5"/>
<text text-anchor="middle" x="189" y="-45.5" font-family="Helvetica,sans-Serif" font-size="10.00">Node::InsertItemByIndex</text>
</a>
</g>
</g>
<!-- Node1&#45;&gt;Node3 -->
<g id="edge2" class="edge">
<title>Node1&#45;&gt;Node3</title>
<path fill="none" stroke="midnightblue" d="M90.15,-48C98.29,-48 106.97,-48 115.68,-48"/>
<polygon fill="midnightblue" stroke="midnightblue" points="115.89,-51.5 125.89,-48 115.89,-44.5 115.89,-51.5"/>
</g>
<!-- Node4 -->
<g id="node4" class="node">
<title>Node4</title>
<g id="a_node4"><a xlink:href="../../db/d8b/struct_node.html#a5cb5234ccefa82c8cc49842898131cb6" target="_top" xlink:title="Check if node is a full (4&#45;node)">
<polygon fill="white" stroke="black" points="154,-0.5 154,-19.5 224,-19.5 224,-0.5 154,-0.5"/>
<text text-anchor="middle" x="189" y="-7.5" font-family="Helvetica,sans-Serif" font-size="10.00">Node::IsFull</text>
</a>
</g>
</g>
<!-- Node1&#45;&gt;Node4 -->
<g id="edge3" class="edge">
<title>Node1&#45;&gt;Node4</title>
<path fill="none" stroke="midnightblue" d="M81.83,-38.41C100.67,-33.37 123.92,-27.15 143.86,-21.81"/>
<polygon fill="midnightblue" stroke="midnightblue" points="144.89,-25.16 153.65,-19.19 143.08,-18.4 144.89,-25.16"/>
</g>
</g>
</svg>
