<?xml version="1.0" encoding="UTF-8" standalone="no"?>
<!DOCTYPE svg PUBLIC "-//W3C//DTD SVG 1.1//EN"
 "http://www.w3.org/Graphics/SVG/1.1/DTD/svg11.dtd">
<!-- Generated by graphviz version 2.44.1 (20200629.0846)
 -->
<!-- Title: Tree234 Pages: 1 -->
<svg width="109pt" height="97pt"
 viewBox="0.00 0.00 109.00 97.00" xmlns="http://www.w3.org/2000/svg" xmlns:xlink="http://www.w3.org/1999/xlink">
<g id="graph0" class="graph" transform="scale(1 1) rotate(0) translate(4 93)">
<title>Tree234</title>
<polygon fill="white" stroke="transparent" points="-4,4 -4,-93 105,-93 105,4 -4,4"/>
<!-- Node1 -->
<g id="node1" class="node">
<title>Node1</title>
<g id="a_node1"><a xlink:title="2&#45;3&#45;4 tree class">
<polygon fill="#bfbfbf" stroke="black" points="0,-0.5 0,-19.5 52,-19.5 52,-0.5 0,-0.5"/>
<text text-anchor="middle" x="26" y="-7.5" font-family="Helvetica,sans-Serif" font-size="10.00">Tree234</text>
</a>
</g>
</g>
<!-- Node2 -->
<g id="node2" class="node">
<title>Node2</title>
<g id="a_node2"><a xlink:href="../../db/d8b/struct_node.html" target="_top" xlink:title="2&#45;3&#45;4 tree node class">
<polygon fill="white" stroke="black" points="6,-68.5 6,-87.5 46,-87.5 46,-68.5 6,-68.5"/>
<text text-anchor="middle" x="26" y="-75.5" font-family="Helvetica,sans-Serif" font-size="10.00">Node</text>
</a>
</g>
</g>
<!-- Node2&#45;&gt;Node1 -->
<g id="edge1" class="edge">
<title>Node2&#45;&gt;Node1</title>
<path fill="none" stroke="#9a32cd" stroke-dasharray="5,2" d="M26,-58.04C26,-45.47 26,-29.56 26,-19.84"/>
<polygon fill="#9a32cd" stroke="#9a32cd" points="22.5,-58.37 26,-68.37 29.5,-58.37 22.5,-58.37"/>
<text text-anchor="middle" x="38.5" y="-41" font-family="Helvetica,sans-Serif" font-size="10.00"> root_</text>
</g>
<!-- Node2&#45;&gt;Node2 -->
<g id="edge2" class="edge">
<title>Node2&#45;&gt;Node2</title>
<path fill="none" stroke="#9a32cd" stroke-dasharray="5,2" d="M56.42,-83.78C60.94,-82.88 64,-80.95 64,-78 64,-73.15 55.76,-71.07 46.33,-71.75"/>
<polygon fill="#9a32cd" stroke="#9a32cd" points="56.16,-80.29 46.33,-84.25 56.48,-87.28 56.16,-80.29"/>
<text text-anchor="middle" x="82.5" y="-81" font-family="Helvetica,sans-Serif" font-size="10.00"> children</text>
<text text-anchor="middle" x="82.5" y="-70" font-family="Helvetica,sans-Serif" font-size="10.00">next</text>
</g>
</g>
</svg>
