<?xml version="1.0" encoding="UTF-8" standalone="no"?>
<!DOCTYPE svg PUBLIC "-//W3C//DTD SVG 1.1//EN"
 "http://www.w3.org/Graphics/SVG/1.1/DTD/svg11.dtd">
<!-- Generated by graphviz version 2.44.1 (20200629.0846)
 -->
<!-- Title: Tree234 Pages: 1 -->
<svg width="201pt" height="229pt"
 viewBox="0.00 0.00 200.50 229.00" xmlns="http://www.w3.org/2000/svg" xmlns:xlink="http://www.w3.org/1999/xlink">
<g id="graph0" class="graph" transform="scale(1 1) rotate(0) translate(4 225)">
<title>Tree234</title>
<polygon fill="white" stroke="transparent" points="-4,4 -4,-225 196.5,-225 196.5,4 -4,4"/>
<!-- Node1 -->
<g id="node1" class="node">
<title>Node1</title>
<g id="a_node1"><a xlink:title="2&#45;3&#45;4 tree class">
<polygon fill="#bfbfbf" stroke="black" points="0,-0.5 0,-19.5 52,-19.5 52,-0.5 0,-0.5"/>
<text text-anchor="middle" x="26" y="-7.5" font-family="Helvetica,sans-Serif" font-size="10.00">Tree234</text>
</a>
</g>
</g>
<!-- Node2 -->
<g id="node2" class="node">
<title>Node2</title>
<g id="a_node2"><a xlink:href="../../db/d8b/struct_node.html" target="_top" xlink:title="for std::to_string">
<polygon fill="white" stroke="black" points="54,-67.5 54,-86.5 94,-86.5 94,-67.5 54,-67.5"/>
<text text-anchor="middle" x="74" y="-74.5" font-family="Helvetica,sans-Serif" font-size="10.00">Node</text>
</a>
</g>
</g>
<!-- Node2&#45;&gt;Node1 -->
<g id="edge1" class="edge">
<title>Node2&#45;&gt;Node1</title>
<path fill="none" stroke="#9a32cd" stroke-dasharray="5,2" d="M44.31,-64.99C37.48,-61.01 31.04,-55.78 27,-49 21.66,-40.04 22.53,-27.67 23.98,-19.51"/>
<polygon fill="#9a32cd" stroke="#9a32cd" points="43.17,-68.33 53.68,-69.66 46.29,-62.06 43.17,-68.33"/>
<text text-anchor="middle" x="39.5" y="-41" font-family="Helvetica,sans-Serif" font-size="10.00"> root_</text>
</g>
<!-- Node2&#45;&gt;Node2 -->
<g id="edge2" class="edge">
<title>Node2&#45;&gt;Node2</title>
<path fill="none" stroke="#9a32cd" stroke-dasharray="5,2" d="M104.42,-82.44C108.94,-81.59 112,-79.78 112,-77 112,-72.44 103.76,-70.48 94.33,-71.12"/>
<polygon fill="#9a32cd" stroke="#9a32cd" points="104.17,-78.95 94.33,-82.88 104.47,-85.94 104.17,-78.95"/>
<text text-anchor="middle" x="123" y="-74.5" font-family="Helvetica,sans-Serif" font-size="10.00"> next</text>
</g>
<!-- Node3 -->
<g id="node3" class="node">
<title>Node3</title>
<g id="a_node3"><a target="_blank" xlink:href="http://en.cppreference.com/w/cpp/container/array.html" target="_top" xlink:title=" ">
<polygon fill="white" stroke="black" points="75.5,-0.5 75.5,-19.5 192.5,-19.5 192.5,-0.5 75.5,-0.5"/>
<text text-anchor="middle" x="134" y="-7.5" font-family="Helvetica,sans-Serif" font-size="10.00">std::array&lt; Node *, 4 &gt;</text>
</a>
</g>
</g>
<!-- Node2&#45;&gt;Node3 -->
<g id="edge4" class="edge">
<title>Node2&#45;&gt;Node3</title>
<path fill="none" stroke="#9a32cd" stroke-dasharray="5,2" d="M67.99,-57.26C67.01,-50.7 67.31,-43.59 71,-38 76.63,-29.46 85.59,-23.61 95.01,-19.6"/>
<polygon fill="#9a32cd" stroke="#9a32cd" points="64.7,-58.52 70.49,-67.4 71.5,-56.85 64.7,-58.52"/>
<text text-anchor="middle" x="92.5" y="-41" font-family="Helvetica,sans-Serif" font-size="10.00"> elements</text>
</g>
<!-- Node3&#45;&gt;Node2 -->
<g id="edge3" class="edge">
<title>Node3&#45;&gt;Node2</title>
<path fill="none" stroke="#9a32cd" stroke-dasharray="5,2" d="M128.88,-29.37C126.38,-36.07 122.83,-43.37 118,-49 111.34,-56.75 101.89,-62.95 93.45,-67.45"/>
<polygon fill="#9a32cd" stroke="#9a32cd" points="132.27,-30.26 132,-19.67 125.61,-28.12 132.27,-30.26"/>
<text text-anchor="middle" x="143.5" y="-41" font-family="Helvetica,sans-Serif" font-size="10.00"> children</text>
</g>
<!-- Node4 -->
<g id="node4" class="node">
<title>Node4</title>
<g id="a_node4"><a target="_blank" xlink:href="http://en.cppreference.com/w/cpp/container/array.html" target="_top" xlink:title=" ">
<polygon fill="white" stroke="black" points="16,-134.5 16,-153.5 132,-153.5 132,-134.5 16,-134.5"/>
<text text-anchor="middle" x="74" y="-141.5" font-family="Helvetica,sans-Serif" font-size="10.00">std::array&lt; int64_t, 3 &gt;</text>
</a>
</g>
</g>
<!-- Node4&#45;&gt;Node2 -->
<g id="edge5" class="edge">
<title>Node4&#45;&gt;Node2</title>
<path fill="none" stroke="#9a32cd" stroke-dasharray="5,2" d="M74,-124.04C74,-111.67 74,-96.12 74,-86.63"/>
<polygon fill="#9a32cd" stroke="#9a32cd" points="70.5,-124.23 74,-134.23 77.5,-124.23 70.5,-124.23"/>
<text text-anchor="middle" x="88" y="-108" font-family="Helvetica,sans-Serif" font-size="10.00"> items</text>
</g>
<!-- Node5 -->
<g id="node5" class="node">
<title>Node5</title>
<g id="a_node5"><a target="_blank" xlink:href="http://en.cppreference.com/w/cpp/types/integer.html" target="_top" xlink:title=" ">
<polygon fill="white" stroke="black" points="41.5,-201.5 41.5,-220.5 106.5,-220.5 106.5,-201.5 41.5,-201.5"/>
<text text-anchor="middle" x="74" y="-208.5" font-family="Helvetica,sans-Serif" font-size="10.00">std::int64_t</text>
</a>
</g>
</g>
<!-- Node5&#45;&gt;Node4 -->
<g id="edge6" class="edge">
<title>Node5&#45;&gt;Node4</title>
<path fill="none" stroke="#9a32cd" stroke-dasharray="5,2" d="M74,-191.04C74,-178.67 74,-163.12 74,-153.63"/>
<polygon fill="#9a32cd" stroke="#9a32cd" points="70.5,-191.23 74,-201.23 77.5,-191.23 70.5,-191.23"/>
<text text-anchor="middle" x="95.5" y="-175" font-family="Helvetica,sans-Serif" font-size="10.00"> elements</text>
</g>
</g>
</svg>
