<?xml version="1.0" encoding="UTF-8" standalone="no"?>
<!DOCTYPE svg PUBLIC "-//W3C//DTD SVG 1.1//EN"
 "http://www.w3.org/Graphics/SVG/1.1/DTD/svg11.dtd">
<!-- Generated by graphviz version 2.44.1 (20200629.0846)
 -->
<!-- Title: data_structures/tree_234.cpp Pages: 1 -->
<svg width="295pt" height="95pt"
 viewBox="0.00 0.00 294.50 95.00" xmlns="http://www.w3.org/2000/svg" xmlns:xlink="http://www.w3.org/1999/xlink">
<g id="graph0" class="graph" transform="scale(1 1) rotate(0) translate(4 91)">
<title>data_structures/tree_234.cpp</title>
<polygon fill="white" stroke="transparent" points="-4,4 -4,-91 290.5,-91 290.5,4 -4,4"/>
<!-- Node1 -->
<g id="node1" class="node">
<title>Node1</title>
<g id="a_node1"><a xlink:title="A demo 2&#45;3&#45;4 tree implementation.">
<polygon fill="#bfbfbf" stroke="black" points="93,-56.5 93,-86.5 197,-86.5 197,-56.5 93,-56.5"/>
<text text-anchor="start" x="101" y="-74.5" font-family="Helvetica,sans-Serif" font-size="10.00">data_structures/tree</text>
<text text-anchor="middle" x="145" y="-63.5" font-family="Helvetica,sans-Serif" font-size="10.00">_234.cpp</text>
</a>
</g>
</g>
<!-- Node2 -->
<g id="node2" class="node">
<title>Node2</title>
<g id="a_node2"><a xlink:title=" ">
<polygon fill="white" stroke="#bfbfbf" points="0,-0.5 0,-19.5 38,-19.5 38,-0.5 0,-0.5"/>
<text text-anchor="middle" x="19" y="-7.5" font-family="Helvetica,sans-Serif" font-size="10.00">array</text>
</a>
</g>
</g>
<!-- Node1&#45;&gt;Node2 -->
<g id="edge1" class="edge">
<title>Node1&#45;&gt;Node2</title>
<path fill="none" stroke="midnightblue" d="M115.14,-56.4C94.38,-46.59 66.9,-33.62 46.64,-24.05"/>
<polygon fill="midnightblue" stroke="midnightblue" points="47.87,-20.76 37.33,-19.66 44.88,-27.09 47.87,-20.76"/>
</g>
<!-- Node3 -->
<g id="node3" class="node">
<title>Node3</title>
<g id="a_node3"><a xlink:title=" ">
<polygon fill="white" stroke="#bfbfbf" points="56.5,-0.5 56.5,-19.5 105.5,-19.5 105.5,-0.5 56.5,-0.5"/>
<text text-anchor="middle" x="81" y="-7.5" font-family="Helvetica,sans-Serif" font-size="10.00">cassert</text>
</a>
</g>
</g>
<!-- Node1&#45;&gt;Node3 -->
<g id="edge2" class="edge">
<title>Node1&#45;&gt;Node3</title>
<path fill="none" stroke="midnightblue" d="M129.83,-56.4C120.25,-47.49 107.84,-35.95 97.93,-26.74"/>
<polygon fill="midnightblue" stroke="midnightblue" points="100.02,-23.9 90.31,-19.66 95.25,-29.03 100.02,-23.9"/>
</g>
<!-- Node4 -->
<g id="node4" class="node">
<title>Node4</title>
<g id="a_node4"><a xlink:title=" ">
<polygon fill="white" stroke="#bfbfbf" points="123.5,-0.5 123.5,-19.5 166.5,-19.5 166.5,-0.5 123.5,-0.5"/>
<text text-anchor="middle" x="145" y="-7.5" font-family="Helvetica,sans-Serif" font-size="10.00">cstdio</text>
</a>
</g>
</g>
<!-- Node1&#45;&gt;Node4 -->
<g id="edge3" class="edge">
<title>Node1&#45;&gt;Node4</title>
<path fill="none" stroke="midnightblue" d="M145,-56.4C145,-48.47 145,-38.46 145,-29.86"/>
<polygon fill="midnightblue" stroke="midnightblue" points="148.5,-29.66 145,-19.66 141.5,-29.66 148.5,-29.66"/>
</g>
<!-- Node5 -->
<g id="node5" class="node">
<title>Node5</title>
<g id="a_node5"><a xlink:title=" ">
<polygon fill="white" stroke="#bfbfbf" points="184.5,-0.5 184.5,-19.5 227.5,-19.5 227.5,-0.5 184.5,-0.5"/>
<text text-anchor="middle" x="206" y="-7.5" font-family="Helvetica,sans-Serif" font-size="10.00">queue</text>
</a>
</g>
</g>
<!-- Node1&#45;&gt;Node5 -->
<g id="edge4" class="edge">
<title>Node1&#45;&gt;Node5</title>
<path fill="none" stroke="midnightblue" d="M159.46,-56.4C168.59,-47.49 180.42,-35.95 189.86,-26.74"/>
<polygon fill="midnightblue" stroke="midnightblue" points="192.41,-29.15 197.12,-19.66 187.52,-24.13 192.41,-29.15"/>
</g>
<!-- Node6 -->
<g id="node6" class="node">
<title>Node6</title>
<g id="a_node6"><a xlink:title=" ">
<polygon fill="white" stroke="#bfbfbf" points="245.5,-0.5 245.5,-19.5 286.5,-19.5 286.5,-0.5 245.5,-0.5"/>
<text text-anchor="middle" x="266" y="-7.5" font-family="Helvetica,sans-Serif" font-size="10.00">string</text>
</a>
</g>
</g>
<!-- Node1&#45;&gt;Node6 -->
<g id="edge5" class="edge">
<title>Node1&#45;&gt;Node6</title>
<path fill="none" stroke="midnightblue" d="M173.68,-56.4C193.52,-46.64 219.76,-33.74 239.19,-24.18"/>
<polygon fill="midnightblue" stroke="midnightblue" points="240.96,-27.21 248.39,-19.66 237.88,-20.93 240.96,-27.21"/>
</g>
</g>
</svg>
