<?xml version="1.0" encoding="UTF-8" standalone="no"?>
<!DOCTYPE svg PUBLIC "-//W3C//DTD SVG 1.1//EN"
 "http://www.w3.org/Graphics/SVG/1.1/DTD/svg11.dtd">
<!-- Generated by graphviz version 2.44.1 (20200629.0846)
 -->
<!-- Title: data_structures/tree_234.cpp Pages: 1 -->
<svg width="506pt" height="95pt"
 viewBox="0.00 0.00 505.50 95.00" xmlns="http://www.w3.org/2000/svg" xmlns:xlink="http://www.w3.org/1999/xlink">
<g id="graph0" class="graph" transform="scale(1 1) rotate(0) translate(4 91)">
<title>data_structures/tree_234.cpp</title>
<polygon fill="white" stroke="transparent" points="-4,4 -4,-91 501.5,-91 501.5,4 -4,4"/>
<!-- Node1 -->
<g id="node1" class="node">
<title>Node1</title>
<g id="a_node1"><a xlink:title="A demo 2&#45;3&#45;4 tree implementation.">
<polygon fill="#bfbfbf" stroke="black" points="193,-56.5 193,-86.5 297,-86.5 297,-56.5 193,-56.5"/>
<text text-anchor="start" x="201" y="-74.5" font-family="Helvetica,sans-Serif" font-size="10.00">data_structures/tree</text>
<text text-anchor="middle" x="245" y="-63.5" font-family="Helvetica,sans-Serif" font-size="10.00">_234.cpp</text>
</a>
</g>
</g>
<!-- Node2 -->
<g id="node2" class="node">
<title>Node2</title>
<g id="a_node2"><a xlink:title=" ">
<polygon fill="white" stroke="#bfbfbf" points="0,-0.5 0,-19.5 38,-19.5 38,-0.5 0,-0.5"/>
<text text-anchor="middle" x="19" y="-7.5" font-family="Helvetica,sans-Serif" font-size="10.00">array</text>
</a>
</g>
</g>
<!-- Node1&#45;&gt;Node2 -->
<g id="edge1" class="edge">
<title>Node1&#45;&gt;Node2</title>
<path fill="none" stroke="midnightblue" d="M192.65,-58.08C154.87,-48.9 102.44,-35.73 48.05,-20.18"/>
<polygon fill="midnightblue" stroke="midnightblue" points="48.81,-16.76 38.23,-17.35 46.87,-23.48 48.81,-16.76"/>
</g>
<!-- Node3 -->
<g id="node3" class="node">
<title>Node3</title>
<g id="a_node3"><a xlink:title=" ">
<polygon fill="white" stroke="#bfbfbf" points="56.5,-0.5 56.5,-19.5 105.5,-19.5 105.5,-0.5 56.5,-0.5"/>
<text text-anchor="middle" x="81" y="-7.5" font-family="Helvetica,sans-Serif" font-size="10.00">cassert</text>
</a>
</g>
</g>
<!-- Node1&#45;&gt;Node3 -->
<g id="edge2" class="edge">
<title>Node1&#45;&gt;Node3</title>
<path fill="none" stroke="midnightblue" d="M206.13,-56.4C178.25,-46.28 141.06,-32.79 114.49,-23.15"/>
<polygon fill="midnightblue" stroke="midnightblue" points="115.46,-19.78 104.86,-19.66 113.07,-26.36 115.46,-19.78"/>
</g>
<!-- Node4 -->
<g id="node4" class="node">
<title>Node4</title>
<g id="a_node4"><a xlink:title=" ">
<polygon fill="white" stroke="#bfbfbf" points="123.5,-0.5 123.5,-19.5 166.5,-19.5 166.5,-0.5 123.5,-0.5"/>
<text text-anchor="middle" x="145" y="-7.5" font-family="Helvetica,sans-Serif" font-size="10.00">cstdio</text>
</a>
</g>
</g>
<!-- Node1&#45;&gt;Node4 -->
<g id="edge3" class="edge">
<title>Node1&#45;&gt;Node4</title>
<path fill="none" stroke="midnightblue" d="M221.3,-56.4C205.27,-46.86 184.2,-34.32 168.26,-24.84"/>
<polygon fill="midnightblue" stroke="midnightblue" points="169.93,-21.76 159.55,-19.66 166.36,-27.78 169.93,-21.76"/>
</g>
<!-- Node5 -->
<g id="node5" class="node">
<title>Node5</title>
<g id="a_node5"><a xlink:title=" ">
<polygon fill="white" stroke="#bfbfbf" points="185,-0.5 185,-19.5 235,-19.5 235,-0.5 185,-0.5"/>
<text text-anchor="middle" x="210" y="-7.5" font-family="Helvetica,sans-Serif" font-size="10.00">fstream</text>
</a>
</g>
</g>
<!-- Node1&#45;&gt;Node5 -->
<g id="edge4" class="edge">
<title>Node1&#45;&gt;Node5</title>
<path fill="none" stroke="midnightblue" d="M236.71,-56.4C231.78,-48.02 225.49,-37.33 220.25,-28.42"/>
<polygon fill="midnightblue" stroke="midnightblue" points="223.18,-26.5 215.09,-19.66 217.15,-30.05 223.18,-26.5"/>
</g>
<!-- Node6 -->
<g id="node6" class="node">
<title>Node6</title>
<g id="a_node6"><a xlink:title=" ">
<polygon fill="white" stroke="#bfbfbf" points="253,-0.5 253,-19.5 307,-19.5 307,-0.5 253,-0.5"/>
<text text-anchor="middle" x="280" y="-7.5" font-family="Helvetica,sans-Serif" font-size="10.00">iostream</text>
</a>
</g>
</g>
<!-- Node1&#45;&gt;Node6 -->
<g id="edge5" class="edge">
<title>Node1&#45;&gt;Node6</title>
<path fill="none" stroke="midnightblue" d="M253.29,-56.4C258.22,-48.02 264.51,-37.33 269.75,-28.42"/>
<polygon fill="midnightblue" stroke="midnightblue" points="272.85,-30.05 274.91,-19.66 266.82,-26.5 272.85,-30.05"/>
</g>
<!-- Node7 -->
<g id="node7" class="node">
<title>Node7</title>
<g id="a_node7"><a xlink:title=" ">
<polygon fill="white" stroke="#bfbfbf" points="325,-0.5 325,-19.5 377,-19.5 377,-0.5 325,-0.5"/>
<text text-anchor="middle" x="351" y="-7.5" font-family="Helvetica,sans-Serif" font-size="10.00">memory</text>
</a>
</g>
</g>
<!-- Node1&#45;&gt;Node7 -->
<g id="edge6" class="edge">
<title>Node1&#45;&gt;Node7</title>
<path fill="none" stroke="midnightblue" d="M270.12,-56.4C287.27,-46.77 309.86,-34.09 326.81,-24.58"/>
<polygon fill="midnightblue" stroke="midnightblue" points="328.57,-27.6 335.58,-19.66 325.14,-21.5 328.57,-27.6"/>
</g>
<!-- Node8 -->
<g id="node8" class="node">
<title>Node8</title>
<g id="a_node8"><a xlink:title=" ">
<polygon fill="white" stroke="#bfbfbf" points="395.5,-0.5 395.5,-19.5 438.5,-19.5 438.5,-0.5 395.5,-0.5"/>
<text text-anchor="middle" x="417" y="-7.5" font-family="Helvetica,sans-Serif" font-size="10.00">queue</text>
</a>
</g>
</g>
<!-- Node1&#45;&gt;Node8 -->
<g id="edge7" class="edge">
<title>Node1&#45;&gt;Node8</title>
<path fill="none" stroke="midnightblue" d="M285.76,-56.4C316.37,-45.81 357.68,-31.52 385.71,-21.82"/>
<polygon fill="midnightblue" stroke="midnightblue" points="387.09,-25.05 395.4,-18.47 384.8,-18.43 387.09,-25.05"/>
</g>
<!-- Node9 -->
<g id="node9" class="node">
<title>Node9</title>
<g id="a_node9"><a xlink:title=" ">
<polygon fill="white" stroke="#bfbfbf" points="456.5,-0.5 456.5,-19.5 497.5,-19.5 497.5,-0.5 456.5,-0.5"/>
<text text-anchor="middle" x="477" y="-7.5" font-family="Helvetica,sans-Serif" font-size="10.00">string</text>
</a>
</g>
</g>
<!-- Node1&#45;&gt;Node9 -->
<g id="edge8" class="edge">
<title>Node1&#45;&gt;Node9</title>
<path fill="none" stroke="midnightblue" d="M297.37,-58.34C336.24,-49.12 390.75,-35.77 446.72,-20.25"/>
<polygon fill="midnightblue" stroke="midnightblue" points="447.76,-23.6 456.45,-17.54 445.87,-16.85 447.76,-23.6"/>
</g>
</g>
</svg>
