<?xml version="1.0" encoding="UTF-8" standalone="no"?>
<!DOCTYPE svg PUBLIC "-//W3C//DTD SVG 1.1//EN"
 "http://www.w3.org/Graphics/SVG/1.1/DTD/svg11.dtd">
<!-- Generated by graphviz version 2.44.1 (20200629.0846)
 -->
<!-- Title: Node Pages: 1 -->
<svg width="127pt" height="229pt"
 viewBox="0.00 0.00 126.50 229.00" xmlns="http://www.w3.org/2000/svg" xmlns:xlink="http://www.w3.org/1999/xlink">
<g id="graph0" class="graph" transform="scale(1 1) rotate(0) translate(4 225)">
<title>Node</title>
<polygon fill="white" stroke="transparent" points="-4,4 -4,-225 122.5,-225 122.5,4 -4,4"/>
<!-- Node1 -->
<g id="node1" class="node">
<title>Node1</title>
<g id="a_node1"><a xlink:title="for std::to_string">
<polygon fill="#bfbfbf" stroke="black" points="38.5,-67.5 38.5,-86.5 78.5,-86.5 78.5,-67.5 38.5,-67.5"/>
<text text-anchor="middle" x="58.5" y="-74.5" font-family="Helvetica,sans-Serif" font-size="10.00">Node</text>
</a>
</g>
</g>
<!-- Node1&#45;&gt;Node1 -->
<g id="edge1" class="edge">
<title>Node1&#45;&gt;Node1</title>
<path fill="none" stroke="#9a32cd" stroke-dasharray="5,2" d="M88.92,-82.44C93.44,-81.59 96.5,-79.78 96.5,-77 96.5,-72.44 88.26,-70.48 78.83,-71.12"/>
<polygon fill="#9a32cd" stroke="#9a32cd" points="88.67,-78.95 78.83,-82.88 88.97,-85.94 88.67,-78.95"/>
<text text-anchor="middle" x="107.5" y="-74.5" font-family="Helvetica,sans-Serif" font-size="10.00"> next</text>
</g>
<!-- Node2 -->
<g id="node2" class="node">
<title>Node2</title>
<g id="a_node2"><a target="_blank" xlink:href="http://en.cppreference.com/w/cpp/container/array.html" target="_top" xlink:title=" ">
<polygon fill="white" stroke="black" points="0,-0.5 0,-19.5 117,-19.5 117,-0.5 0,-0.5"/>
<text text-anchor="middle" x="58.5" y="-7.5" font-family="Helvetica,sans-Serif" font-size="10.00">std::array&lt; Node *, 4 &gt;</text>
</a>
</g>
</g>
<!-- Node1&#45;&gt;Node2 -->
<g id="edge3" class="edge">
<title>Node1&#45;&gt;Node2</title>
<path fill="none" stroke="#9a32cd" stroke-dasharray="5,2" d="M32.66,-61.43C28.56,-57.91 24.88,-53.77 22.5,-49 16.65,-37.3 28.77,-26.73 40.5,-19.73"/>
<polygon fill="#9a32cd" stroke="#9a32cd" points="30.72,-64.34 40.86,-67.41 34.84,-58.69 30.72,-64.34"/>
<text text-anchor="middle" x="44" y="-41" font-family="Helvetica,sans-Serif" font-size="10.00"> elements</text>
</g>
<!-- Node2&#45;&gt;Node1 -->
<g id="edge2" class="edge">
<title>Node2&#45;&gt;Node1</title>
<path fill="none" stroke="#9a32cd" stroke-dasharray="5,2" d="M67.42,-29.13C69.5,-35.37 70.79,-42.44 69.5,-49 68.25,-55.36 65.5,-62.11 63.07,-67.27"/>
<polygon fill="#9a32cd" stroke="#9a32cd" points="70.54,-27.53 63.46,-19.65 64.08,-30.22 70.54,-27.53"/>
<text text-anchor="middle" x="88" y="-41" font-family="Helvetica,sans-Serif" font-size="10.00"> children</text>
</g>
<!-- Node3 -->
<g id="node3" class="node">
<title>Node3</title>
<g id="a_node3"><a target="_blank" xlink:href="http://en.cppreference.com/w/cpp/container/array.html" target="_top" xlink:title=" ">
<polygon fill="white" stroke="black" points="0.5,-134.5 0.5,-153.5 116.5,-153.5 116.5,-134.5 0.5,-134.5"/>
<text text-anchor="middle" x="58.5" y="-141.5" font-family="Helvetica,sans-Serif" font-size="10.00">std::array&lt; int64_t, 3 &gt;</text>
</a>
</g>
</g>
<!-- Node3&#45;&gt;Node1 -->
<g id="edge4" class="edge">
<title>Node3&#45;&gt;Node1</title>
<path fill="none" stroke="#9a32cd" stroke-dasharray="5,2" d="M58.5,-124.04C58.5,-111.67 58.5,-96.12 58.5,-86.63"/>
<polygon fill="#9a32cd" stroke="#9a32cd" points="55,-124.23 58.5,-134.23 62,-124.23 55,-124.23"/>
<text text-anchor="middle" x="72.5" y="-108" font-family="Helvetica,sans-Serif" font-size="10.00"> items</text>
</g>
<!-- Node4 -->
<g id="node4" class="node">
<title>Node4</title>
<g id="a_node4"><a target="_blank" xlink:href="http://en.cppreference.com/w/cpp/types/integer.html" target="_top" xlink:title=" ">
<polygon fill="white" stroke="black" points="26,-201.5 26,-220.5 91,-220.5 91,-201.5 26,-201.5"/>
<text text-anchor="middle" x="58.5" y="-208.5" font-family="Helvetica,sans-Serif" font-size="10.00">std::int64_t</text>
</a>
</g>
</g>
<!-- Node4&#45;&gt;Node3 -->
<g id="edge5" class="edge">
<title>Node4&#45;&gt;Node3</title>
<path fill="none" stroke="#9a32cd" stroke-dasharray="5,2" d="M58.5,-191.04C58.5,-178.67 58.5,-163.12 58.5,-153.63"/>
<polygon fill="#9a32cd" stroke="#9a32cd" points="55,-191.23 58.5,-201.23 62,-191.23 55,-191.23"/>
<text text-anchor="middle" x="80" y="-175" font-family="Helvetica,sans-Serif" font-size="10.00"> elements</text>
</g>
</g>
</svg>
