<?xml version="1.0" encoding="UTF-8" standalone="no"?>
<!DOCTYPE svg PUBLIC "-//W3C//DTD SVG 1.1//EN"
 "http://www.w3.org/Graphics/SVG/1.1/DTD/svg11.dtd">
<!-- Generated by graphviz version 2.44.1 (20200629.0846)
 -->
<!-- Title: main Pages: 1 -->
<!--zoomable 629 -->
<svg id="main" version="1.1" xmlns="http://www.w3.org/2000/svg" xmlns:xlink="http://www.w3.org/1999/xlink" xml:space="preserve" onload="init(evt)">
<style type="text/css"><![CDATA[
.edge:hover path { stroke: red; }
.edge:hover polygon { stroke: red; fill: red; }
]]></style>
<script type="text/javascript"><![CDATA[
var edges = document.getElementsByTagName('g');
if (edges && edges.length) {
  for (var i=0;i<edges.length;i++) {
    if (edges[i].id.substr(0,4)=='edge') {
      edges[i].setAttribute('class','edge');
    }
  }
}
]]></script>
        <defs>
                <circle id="rim" cx="0" cy="0" r="7"/>
                <circle id="rim2" cx="0" cy="0" r="3.5"/>
                <g id="zoomPlus">
                        <use xlink:href="#rim" fill="#404040">
                                <set attributeName="fill" to="#808080" begin="zoomplus.mouseover" end="zoomplus.mouseout"/>
                        </use>
                        <path d="M-4,0h8M0,-4v8" fill="none" stroke="white" stroke-width="1.5" pointer-events="none"/>
                </g>
                <g id="zoomMin">
                        <use xlink:href="#rim" fill="#404040">
                                <set attributeName="fill" to="#808080" begin="zoomminus.mouseover" end="zoomminus.mouseout"/>
                        </use>
                        <path d="M-4,0h8" fill="none" stroke="white" stroke-width="1.5" pointer-events="none"/>
                </g>
                <g id="dirArrow">
                        <path fill="none" stroke="white" stroke-width="1.5" d="M0,-3.0v7 M-2.5,-0.5L0,-3.0L2.5,-0.5"/>
                </g>
               <g id="resetDef">
                       <use xlink:href="#rim2" fill="#404040">
                               <set attributeName="fill" to="#808080" begin="reset.mouseover" end="reset.mouseout"/>
                       </use>
               </g>
        </defs>

<script type="text/javascript">
var viewWidth = 942;
var viewHeight = 629;
var sectionId = 'dynsection-1';
</script>
<script xlink:href="../../svgpan.js"/>
<svg id="graph" class="graph">
<g id="viewport">
<title>main</title>
<polygon fill="white" stroke="transparent" points="-4,4 -4,-625.23 938,-625.23 938,4 -4,4"/>
<!-- Node1 -->
<g id="node1" class="node">
<title>Node1</title>
<g id="a_node1"><a xlink:title="Main function.">
<polygon fill="#bfbfbf" stroke="black" points="0,-114.5 0,-133.5 38,-133.5 38,-114.5 0,-114.5"/>
<text text-anchor="middle" x="19" y="-121.5" font-family="Helvetica,sans-Serif" font-size="10.00">main</text>
</a>
</g>
</g>
<!-- Node2 -->
<g id="node2" class="node">
<title>Node2</title>
<g id="a_node2"><a target="_blank" xlink:href="http://en.cppreference.com/w/cpp/string/basic_string/stol.html#" target="_top" xlink:title=" ">
<polygon fill="white" stroke="black" points="74,-152.5 74,-171.5 126,-171.5 126,-152.5 74,-152.5"/>
<text text-anchor="middle" x="100" y="-159.5" font-family="Helvetica,sans-Serif" font-size="10.00">std::stoi</text>
</a>
</g>
</g>
<!-- Node1&#45;&gt;Node2 -->
<g id="edge1" class="edge">
<title>Node1&#45;&gt;Node2</title>
<path fill="none" stroke="midnightblue" d="M38.32,-132.81C47.68,-137.31 59.28,-142.89 69.82,-147.97"/>
<polygon fill="midnightblue" stroke="midnightblue" points="68.59,-151.25 79.12,-152.44 71.62,-144.95 68.59,-151.25"/>
</g>
<!-- Node3 -->
<g id="node3" class="node">
<title>Node3</title>
<g id="a_node3"><a xlink:href="../../db/dbc/tree__234_8cpp.html#ae7880ce913f3058a35ff106d5be9e243" target="_top" xlink:title="simple test to insert a given array and delete some item, and print the tree">
<polygon fill="white" stroke="black" points="81,-114.5 81,-133.5 119,-133.5 119,-114.5 81,-114.5"/>
<text text-anchor="middle" x="100" y="-121.5" font-family="Helvetica,sans-Serif" font-size="10.00">test1</text>
</a>
</g>
</g>
<!-- Node1&#45;&gt;Node3 -->
<g id="edge2" class="edge">
<title>Node1&#45;&gt;Node3</title>
<path fill="none" stroke="midnightblue" d="M38.32,-124C47.89,-124 59.82,-124 70.56,-124"/>
<polygon fill="midnightblue" stroke="midnightblue" points="70.78,-127.5 80.78,-124 70.78,-120.5 70.78,-127.5"/>
</g>
<!-- Node38 -->
<g id="node38" class="node">
<title>Node38</title>
<g id="a_node38"><a xlink:href="../../db/dbc/tree__234_8cpp.html#a17f2432fe0c646afae476ddc405c38e3" target="_top" xlink:title="simple test to insert continuous number of range [0, n), and print the tree">
<polygon fill="white" stroke="black" points="81,-76.5 81,-95.5 119,-95.5 119,-76.5 81,-76.5"/>
<text text-anchor="middle" x="100" y="-83.5" font-family="Helvetica,sans-Serif" font-size="10.00">test2</text>
</a>
</g>
</g>
<!-- Node1&#45;&gt;Node38 -->
<g id="edge44" class="edge">
<title>Node1&#45;&gt;Node38</title>
<path fill="none" stroke="midnightblue" d="M38.32,-115.19C48.19,-110.44 60.57,-104.49 71.57,-99.2"/>
<polygon fill="midnightblue" stroke="midnightblue" points="73.28,-102.25 80.78,-94.77 70.25,-95.95 73.28,-102.25"/>
</g>
<!-- Node4 -->
<g id="node4" class="node">
<title>Node4</title>
<g id="a_node4"><a xlink:href="../../db/d25/class_tree234.html#ae690b22acc3e9db55b4a2b458c3da8c8" target="_top" xlink:title="Insert item to tree.">
<polygon fill="white" stroke="black" points="168.5,-114.5 168.5,-133.5 251.5,-133.5 251.5,-114.5 168.5,-114.5"/>
<text text-anchor="middle" x="210" y="-121.5" font-family="Helvetica,sans-Serif" font-size="10.00">Tree234::Insert</text>
</a>
</g>
</g>
<!-- Node3&#45;&gt;Node4 -->
<g id="edge3" class="edge">
<title>Node3&#45;&gt;Node4</title>
<path fill="none" stroke="midnightblue" d="M119.32,-124C130.07,-124 144.24,-124 158.13,-124"/>
<polygon fill="midnightblue" stroke="midnightblue" points="158.14,-127.5 168.14,-124 158.14,-120.5 158.14,-127.5"/>
</g>
<!-- Node14 -->
<g id="node14" class="node">
<title>Node14</title>
<g id="a_node14"><a xlink:href="../../db/d25/class_tree234.html#a848886421f306be0afb116d91a41995b" target="_top" xlink:title="Print tree into a dot file.">
<polygon fill="white" stroke="black" points="171,-76.5 171,-95.5 249,-95.5 249,-76.5 171,-76.5"/>
<text text-anchor="middle" x="210" y="-83.5" font-family="Helvetica,sans-Serif" font-size="10.00">Tree234::Print</text>
</a>
</g>
</g>
<!-- Node3&#45;&gt;Node14 -->
<g id="edge14" class="edge">
<title>Node3&#45;&gt;Node14</title>
<path fill="none" stroke="midnightblue" d="M119.32,-117.55C133.74,-112.48 154.31,-105.24 172.11,-98.98"/>
<polygon fill="midnightblue" stroke="midnightblue" points="173.38,-102.24 181.66,-95.62 171.06,-95.64 173.38,-102.24"/>
</g>
<!-- Node19 -->
<g id="node19" class="node">
<title>Node19</title>
<g id="a_node19"><a xlink:href="../../db/d25/class_tree234.html#a1c2ff15bed6674f58e075665e9027b8c" target="_top" xlink:title="Remove item from tree.">
<polygon fill="white" stroke="black" points="162.5,-294.5 162.5,-313.5 257.5,-313.5 257.5,-294.5 162.5,-294.5"/>
<text text-anchor="middle" x="210" y="-301.5" font-family="Helvetica,sans-Serif" font-size="10.00">Tree234::Remove</text>
</a>
</g>
</g>
<!-- Node3&#45;&gt;Node19 -->
<g id="edge19" class="edge">
<title>Node3&#45;&gt;Node19</title>
<path fill="none" stroke="midnightblue" d="M115.96,-133.66C119.53,-136.4 123.13,-139.58 126,-143 163.79,-188.01 190.64,-253.1 202.38,-284.97"/>
<polygon fill="midnightblue" stroke="midnightblue" points="199.1,-286.2 205.78,-294.43 205.69,-283.83 199.1,-286.2"/>
</g>
<!-- Node5 -->
<g id="node5" class="node">
<title>Node5</title>
<g id="a_node5"><a xlink:href="../../db/d25/class_tree234.html#a69f55fc18c820aafebbb3e7b0448b551" target="_top" xlink:title="A insert implementation of pre&#45;split.">
<polygon fill="white" stroke="black" points="304,-152.5 304,-171.5 421,-171.5 421,-152.5 304,-152.5"/>
<text text-anchor="middle" x="362.5" y="-159.5" font-family="Helvetica,sans-Serif" font-size="10.00">Tree234::InsertPreSplit</text>
</a>
</g>
</g>
<!-- Node4&#45;&gt;Node5 -->
<g id="edge4" class="edge">
<title>Node4&#45;&gt;Node5</title>
<path fill="none" stroke="midnightblue" d="M248.98,-133.59C268.66,-138.56 292.89,-144.68 313.82,-149.96"/>
<polygon fill="midnightblue" stroke="midnightblue" points="313.24,-153.43 323.8,-152.48 314.96,-146.64 313.24,-153.43"/>
</g>
<!-- Node6 -->
<g id="node6" class="node">
<title>Node6</title>
<g id="a_node6"><a target="_blank" xlink:href="http://en.cppreference.com/w/cpp/memory/unique_ptr/get.html#" target="_top" xlink:title=" ">
<polygon fill="white" stroke="black" points="486.5,-171.5 486.5,-190.5 587.5,-190.5 587.5,-171.5 486.5,-171.5"/>
<text text-anchor="middle" x="537" y="-178.5" font-family="Helvetica,sans-Serif" font-size="10.00">std::unique_ptr::get</text>
</a>
</g>
</g>
<!-- Node5&#45;&gt;Node6 -->
<g id="edge5" class="edge">
<title>Node5&#45;&gt;Node6</title>
<path fill="none" stroke="midnightblue" d="M421.42,-168.38C439.01,-170.32 458.37,-172.45 476.09,-174.4"/>
<polygon fill="midnightblue" stroke="midnightblue" points="475.98,-177.91 486.31,-175.53 476.75,-170.95 475.98,-177.91"/>
</g>
<!-- Node7 -->
<g id="node7" class="node">
<title>Node7</title>
<g id="a_node7"><a xlink:href="../../db/d25/class_tree234.html#a5ceb8cd694a3edb6e70ed3dd54ee4521" target="_top" xlink:title="Merge node to a not&#45;full target node.">
<polygon fill="white" stroke="black" points="467,-133.5 467,-152.5 607,-152.5 607,-133.5 467,-133.5"/>
<text text-anchor="middle" x="537" y="-140.5" font-family="Helvetica,sans-Serif" font-size="10.00">Tree234::MergeNodeNotFull</text>
</a>
</g>
</g>
<!-- Node5&#45;&gt;Node7 -->
<g id="edge6" class="edge">
<title>Node5&#45;&gt;Node7</title>
<path fill="none" stroke="midnightblue" d="M421.42,-155.62C432.81,-154.37 444.95,-153.03 456.9,-151.71"/>
<polygon fill="midnightblue" stroke="midnightblue" points="457.32,-155.19 466.88,-150.61 456.55,-148.23 457.32,-155.19"/>
</g>
<!-- Node13 -->
<g id="node13" class="node">
<title>Node13</title>
<g id="a_node13"><a xlink:href="../../db/d25/class_tree234.html#ae36a2684ad2d5cea087cbb5c7d94e96c" target="_top" xlink:title="Split a 4&#45;node to 1 parent and 2 children, and return the parent node.">
<polygon fill="white" stroke="black" points="486.5,-95.5 486.5,-114.5 587.5,-114.5 587.5,-95.5 486.5,-95.5"/>
<text text-anchor="middle" x="537" y="-102.5" font-family="Helvetica,sans-Serif" font-size="10.00">Tree234::SplitNode</text>
</a>
</g>
</g>
<!-- Node5&#45;&gt;Node13 -->
<g id="edge13" class="edge">
<title>Node5&#45;&gt;Node13</title>
<path fill="none" stroke="midnightblue" d="M402.87,-152.43C412.22,-149.74 422.07,-146.57 431,-143 447.8,-136.29 450.18,-130.66 467,-124 472.99,-121.63 479.38,-119.44 485.77,-117.45"/>
<polygon fill="midnightblue" stroke="midnightblue" points="487.15,-120.69 495.74,-114.5 485.16,-113.98 487.15,-120.69"/>
</g>
<!-- Node8 -->
<g id="node8" class="node">
<title>Node8</title>
<g id="a_node8"><a xlink:href="../../db/d8b/struct_node.html#a477404e67bd9114bf8203b47e2a2db20" target="_top" xlink:title="Insert item to the proper position of the node and return the position index.">
<polygon fill="white" stroke="black" points="662.5,-114.5 662.5,-133.5 752.5,-133.5 752.5,-114.5 662.5,-114.5"/>
<text text-anchor="middle" x="707.5" y="-121.5" font-family="Helvetica,sans-Serif" font-size="10.00">Node::InsertItem</text>
</a>
</g>
</g>
<!-- Node7&#45;&gt;Node8 -->
<g id="edge7" class="edge">
<title>Node7&#45;&gt;Node8</title>
<path fill="none" stroke="midnightblue" d="M607.02,-135.22C622.09,-133.52 637.83,-131.74 652.22,-130.12"/>
<polygon fill="midnightblue" stroke="midnightblue" points="652.89,-133.57 662.44,-128.97 652.11,-126.61 652.89,-133.57"/>
</g>
<!-- Node11 -->
<g id="node11" class="node">
<title>Node11</title>
<g id="a_node11"><a xlink:href="../../db/d8b/struct_node.html#a5cb5234ccefa82c8cc49842898131cb6" target="_top" xlink:title="Check if node is a full (4&#45;node)">
<polygon fill="white" stroke="black" points="836,-76.5 836,-95.5 906,-95.5 906,-76.5 836,-76.5"/>
<text text-anchor="middle" x="871" y="-83.5" font-family="Helvetica,sans-Serif" font-size="10.00">Node::IsFull</text>
</a>
</g>
</g>
<!-- Node7&#45;&gt;Node11 -->
<g id="edge11" class="edge">
<title>Node7&#45;&gt;Node11</title>
<path fill="none" stroke="midnightblue" d="M578.26,-133.5C587.81,-130.81 597.87,-127.61 607,-124 623.82,-117.34 625.64,-110.08 643,-105 704.58,-86.99 779.27,-84.17 825.73,-84.53"/>
<polygon fill="midnightblue" stroke="midnightblue" points="825.72,-88.03 835.77,-84.66 825.81,-81.03 825.72,-88.03"/>
</g>
<!-- Node12 -->
<g id="node12" class="node">
<title>Node12</title>
<g id="a_node12"><a xlink:href="../../db/d8b/struct_node.html#a40a68c94b39a93cfbcfbf3c9a34a110c" target="_top" xlink:title="Set child pointer to the position of index.">
<polygon fill="white" stroke="black" points="666,-152.5 666,-171.5 749,-171.5 749,-152.5 666,-152.5"/>
<text text-anchor="middle" x="707.5" y="-159.5" font-family="Helvetica,sans-Serif" font-size="10.00">Node::SetChild</text>
</a>
</g>
</g>
<!-- Node7&#45;&gt;Node12 -->
<g id="edge12" class="edge">
<title>Node7&#45;&gt;Node12</title>
<path fill="none" stroke="midnightblue" d="M607.02,-150.78C623.27,-152.61 640.29,-154.53 655.58,-156.26"/>
<polygon fill="midnightblue" stroke="midnightblue" points="655.52,-159.77 665.85,-157.42 656.3,-152.82 655.52,-159.77"/>
</g>
<!-- Node9 -->
<g id="node9" class="node">
<title>Node9</title>
<g id="a_node9"><a xlink:href="../../db/d8b/struct_node.html#a13b876e390596e7fef1f914be83c9168" target="_top" xlink:title="Check if item is in the node.">
<polygon fill="white" stroke="black" points="828.5,-114.5 828.5,-133.5 913.5,-133.5 913.5,-114.5 828.5,-114.5"/>
<text text-anchor="middle" x="871" y="-121.5" font-family="Helvetica,sans-Serif" font-size="10.00">Node::Contains</text>
</a>
</g>
</g>
<!-- Node8&#45;&gt;Node9 -->
<g id="edge8" class="edge">
<title>Node8&#45;&gt;Node9</title>
<path fill="none" stroke="midnightblue" d="M752.63,-124C772.94,-124 797.16,-124 818.32,-124"/>
<polygon fill="midnightblue" stroke="midnightblue" points="818.42,-127.5 828.42,-124 818.42,-120.5 818.42,-127.5"/>
</g>
<!-- Node10 -->
<g id="node10" class="node">
<title>Node10</title>
<g id="a_node10"><a xlink:href="../../db/d8b/struct_node.html#a239621c6f62988c5d50d2c84892f5be9" target="_top" xlink:title="Insert a value to the index position.">
<polygon fill="white" stroke="black" points="808,-152.5 808,-171.5 934,-171.5 934,-152.5 808,-152.5"/>
<text text-anchor="middle" x="871" y="-159.5" font-family="Helvetica,sans-Serif" font-size="10.00">Node::InsertItemByIndex</text>
</a>
</g>
</g>
<!-- Node8&#45;&gt;Node10 -->
<g id="edge9" class="edge">
<title>Node8&#45;&gt;Node10</title>
<path fill="none" stroke="midnightblue" d="M749.25,-133.59C770.66,-138.63 797.09,-144.84 819.75,-150.18"/>
<polygon fill="midnightblue" stroke="midnightblue" points="819,-153.6 829.54,-152.48 820.61,-146.78 819,-153.6"/>
</g>
<!-- Node8&#45;&gt;Node11 -->
<g id="edge10" class="edge">
<title>Node8&#45;&gt;Node11</title>
<path fill="none" stroke="midnightblue" d="M749.25,-114.41C772.64,-108.91 802.01,-102 825.93,-96.37"/>
<polygon fill="midnightblue" stroke="midnightblue" points="826.88,-99.74 835.81,-94.04 825.28,-92.93 826.88,-99.74"/>
</g>
<!-- Node15 -->
<g id="node15" class="node">
<title>Node15</title>
<g id="a_node15"><a target="_blank" xlink:href="http://en.cppreference.com/w/cpp/io/basic_ofstream/close.html#" target="_top" xlink:title=" ">
<polygon fill="white" stroke="black" points="310.5,-38.5 310.5,-57.5 414.5,-57.5 414.5,-38.5 310.5,-38.5"/>
<text text-anchor="middle" x="362.5" y="-45.5" font-family="Helvetica,sans-Serif" font-size="10.00">std::ofstream::close</text>
</a>
</g>
</g>
<!-- Node14&#45;&gt;Node15 -->
<g id="edge15" class="edge">
<title>Node14&#45;&gt;Node15</title>
<path fill="none" stroke="midnightblue" d="M248.98,-76.41C268.66,-71.44 292.89,-65.32 313.82,-60.04"/>
<polygon fill="midnightblue" stroke="midnightblue" points="314.96,-63.36 323.8,-57.52 313.24,-56.57 314.96,-63.36"/>
</g>
<!-- Node16 -->
<g id="node16" class="node">
<title>Node16</title>
<g id="a_node16"><a target="_blank" xlink:href="http://en.cppreference.com/w/cpp/io/manip/endl.html#" target="_top" xlink:title=" ">
<polygon fill="white" stroke="black" points="335.5,-0.5 335.5,-19.5 389.5,-19.5 389.5,-0.5 335.5,-0.5"/>
<text text-anchor="middle" x="362.5" y="-7.5" font-family="Helvetica,sans-Serif" font-size="10.00">std::endl</text>
</a>
</g>
</g>
<!-- Node14&#45;&gt;Node16 -->
<g id="edge16" class="edge">
<title>Node14&#45;&gt;Node16</title>
<path fill="none" stroke="midnightblue" d="M240.33,-76.41C246.42,-73.8 252.62,-70.67 258,-67 277.22,-53.9 274.09,-41.03 294,-29 303.48,-23.28 314.74,-19.22 325.32,-16.37"/>
<polygon fill="midnightblue" stroke="midnightblue" points="326.28,-19.74 335.18,-13.99 324.64,-12.94 326.28,-19.74"/>
</g>
<!-- Node17 -->
<g id="node17" class="node">
<title>Node17</title>
<g id="a_node17"><a target="_blank" xlink:href="http://en.cppreference.com/w/cpp/io/basic_ofstream/open.html#" target="_top" xlink:title=" ">
<polygon fill="white" stroke="black" points="312,-114.5 312,-133.5 413,-133.5 413,-114.5 312,-114.5"/>
<text text-anchor="middle" x="362.5" y="-121.5" font-family="Helvetica,sans-Serif" font-size="10.00">std::ofstream::open</text>
</a>
</g>
</g>
<!-- Node14&#45;&gt;Node17 -->
<g id="edge17" class="edge">
<title>Node14&#45;&gt;Node17</title>
<path fill="none" stroke="midnightblue" d="M248.98,-95.59C268.66,-100.56 292.89,-106.68 313.82,-111.96"/>
<polygon fill="midnightblue" stroke="midnightblue" points="313.24,-115.43 323.8,-114.48 314.96,-108.64 313.24,-115.43"/>
</g>
<!-- Node18 -->
<g id="node18" class="node">
<title>Node18</title>
<g id="a_node18"><a xlink:href="../../db/d25/class_tree234.html#a89191f3c89f83cc5ef865d315156bea0" target="_top" xlink:title="Print the tree to a dot file. You can convert it to picture with graphviz.">
<polygon fill="white" stroke="black" points="312,-76.5 312,-95.5 413,-95.5 413,-76.5 312,-76.5"/>
<text text-anchor="middle" x="362.5" y="-83.5" font-family="Helvetica,sans-Serif" font-size="10.00">Tree234::PrintNode</text>
</a>
</g>
</g>
<!-- Node14&#45;&gt;Node18 -->
<g id="edge18" class="edge">
<title>Node14&#45;&gt;Node18</title>
<path fill="none" stroke="midnightblue" d="M249.37,-86C265.24,-86 284.02,-86 301.62,-86"/>
<polygon fill="midnightblue" stroke="midnightblue" points="301.82,-89.5 311.82,-86 301.82,-82.5 301.82,-89.5"/>
</g>
<!-- Node20 -->
<g id="node20" class="node">
<title>Node20</title>
<g id="a_node20"><a xlink:href="../../db/d25/class_tree234.html#a5e94a9b2c31a18e155e301ddead9a543" target="_top" xlink:title="Main function implement the pre&#45;merge remove operation.">
<polygon fill="white" stroke="black" points="294,-437.5 294,-456.5 431,-456.5 431,-437.5 294,-437.5"/>
<text text-anchor="middle" x="362.5" y="-444.5" font-family="Helvetica,sans-Serif" font-size="10.00">Tree234::RemovePreMerge</text>
</a>
</g>
</g>
<!-- Node19&#45;&gt;Node20 -->
<g id="edge20" class="edge">
<title>Node19&#45;&gt;Node20</title>
<path fill="none" stroke="midnightblue" d="M221.34,-313.83C246.71,-337.93 312.2,-400.16 343.86,-430.24"/>
<polygon fill="midnightblue" stroke="midnightblue" points="341.82,-433.13 351.48,-437.48 346.64,-428.05 341.82,-433.13"/>
</g>
<!-- Node21 -->
<g id="node21" class="node">
<title>Node21</title>
<g id="a_node21"><a xlink:href="../../db/d25/class_tree234.html#a75fde49a2a57da1f234361181ea78183" target="_top" xlink:title="Get the max item of the tree.">
<polygon fill="white" stroke="black" points="471.5,-418.5 471.5,-437.5 602.5,-437.5 602.5,-418.5 471.5,-418.5"/>
<text text-anchor="middle" x="537" y="-425.5" font-family="Helvetica,sans-Serif" font-size="10.00">Tree234::GetTreeMaxItem</text>
</a>
</g>
</g>
<!-- Node20&#45;&gt;Node21 -->
<g id="edge21" class="edge">
<title>Node20&#45;&gt;Node21</title>
<path fill="none" stroke="midnightblue" d="M431.18,-439.55C441.09,-438.45 451.35,-437.32 461.39,-436.22"/>
<polygon fill="midnightblue" stroke="midnightblue" points="461.78,-439.7 471.33,-435.12 461.01,-432.74 461.78,-439.7"/>
</g>
<!-- Node24 -->
<g id="node24" class="node">
<title>Node24</title>
<g id="a_node24"><a xlink:href="../../db/d25/class_tree234.html#a66c20ef9cefbe058bdfc3e49180ef77d" target="_top" xlink:title="Get the min item of the tree.">
<polygon fill="white" stroke="black" points="473,-342.5 473,-361.5 601,-361.5 601,-342.5 473,-342.5"/>
<text text-anchor="middle" x="537" y="-349.5" font-family="Helvetica,sans-Serif" font-size="10.00">Tree234::GetTreeMinItem</text>
</a>
</g>
</g>
<!-- Node20&#45;&gt;Node24 -->
<g id="edge24" class="edge">
<title>Node20&#45;&gt;Node24</title>
<path fill="none" stroke="midnightblue" d="M373.83,-437.37C391.55,-421.35 429.48,-389.17 467,-371 471.89,-368.63 477.13,-366.52 482.45,-364.64"/>
<polygon fill="midnightblue" stroke="midnightblue" points="483.63,-367.93 492.05,-361.51 481.46,-361.28 483.63,-367.93"/>
</g>
<!-- Node27 -->
<g id="node27" class="node">
<title>Node27</title>
<g id="a_node27"><a xlink:href="../../db/d8b/struct_node.html#a6e5f4f2091b10b1821b655fde157a74c" target="_top" xlink:title="Check if node is a 2&#45;node.">
<polygon fill="white" stroke="black" points="666,-532.5 666,-551.5 749,-551.5 749,-532.5 666,-532.5"/>
<text text-anchor="middle" x="707.5" y="-539.5" font-family="Helvetica,sans-Serif" font-size="10.00">Node::Is2Node</text>
</a>
</g>
</g>
<!-- Node20&#45;&gt;Node27 -->
<g id="edge27" class="edge">
<title>Node20&#45;&gt;Node27</title>
<path fill="none" stroke="midnightblue" d="M372.68,-456.6C389.52,-473.52 427.3,-508.23 467,-523 528.86,-546.02 605.76,-547.84 655.46,-545.87"/>
<polygon fill="midnightblue" stroke="midnightblue" points="655.81,-549.36 665.64,-545.4 655.49,-542.37 655.81,-549.36"/>
</g>
<!-- Node28 -->
<g id="node28" class="node">
<title>Node28</title>
<g id="a_node28"><a xlink:href="../../db/d8b/struct_node.html#ae4c28fa9b7efdb560563104fcb9dfb45" target="_top" xlink:title="Check if node is a 3&#45;node or 4&#45;node, this is useful when we delete item from 2&#45;3&#45;4 tree.">
<polygon fill="white" stroke="black" points="493,-380.5 493,-399.5 581,-399.5 581,-380.5 493,-380.5"/>
<text text-anchor="middle" x="537" y="-387.5" font-family="Helvetica,sans-Serif" font-size="10.00">Node::Is34Node</text>
</a>
</g>
</g>
<!-- Node20&#45;&gt;Node28 -->
<g id="edge28" class="edge">
<title>Node20&#45;&gt;Node28</title>
<path fill="none" stroke="midnightblue" d="M387.98,-437.36C408.82,-429.31 439.66,-417.77 467,-409 474.16,-406.71 481.78,-404.43 489.26,-402.3"/>
<polygon fill="midnightblue" stroke="midnightblue" points="490.26,-405.66 498.95,-399.59 488.38,-398.92 490.26,-405.66"/>
</g>
<!-- Node29 -->
<g id="node29" class="node">
<title>Node29</title>
<g id="a_node29"><a xlink:href="../../db/d25/class_tree234.html#ab3733ff7bf637266d77820a49d4999bc" target="_top" xlink:title="Do the actual left rotate operation.">
<polygon fill="white" stroke="black" points="655.5,-589.5 655.5,-608.5 759.5,-608.5 759.5,-589.5 655.5,-589.5"/>
<text text-anchor="middle" x="707.5" y="-596.5" font-family="Helvetica,sans-Serif" font-size="10.00">Tree234::LeftRotate</text>
</a>
</g>
</g>
<!-- Node20&#45;&gt;Node29 -->
<g id="edge29" class="edge">
<title>Node20&#45;&gt;Node29</title>
<path fill="none" stroke="midnightblue" d="M366.45,-456.52C375.75,-484.67 407.45,-567.51 467,-599 528.38,-631.46 611.59,-621.57 662.04,-610.77"/>
<polygon fill="midnightblue" stroke="midnightblue" points="662.99,-614.15 671.98,-608.54 661.46,-607.32 662.99,-614.15"/>
</g>
<!-- Node30 -->
<g id="node30" class="node">
<title>Node30</title>
<g id="a_node30"><a xlink:href="../../db/d25/class_tree234.html#ae3ff8c703d85c4c5d0abd13c08c72151" target="_top" xlink:title="Merge the item at index of the parent node, and its left and right child.">
<polygon fill="white" stroke="black" points="494.5,-266.5 494.5,-285.5 579.5,-285.5 579.5,-266.5 494.5,-266.5"/>
<text text-anchor="middle" x="537" y="-273.5" font-family="Helvetica,sans-Serif" font-size="10.00">Tree234::Merge</text>
</a>
</g>
</g>
<!-- Node20&#45;&gt;Node30 -->
<g id="edge30" class="edge">
<title>Node20&#45;&gt;Node30</title>
<path fill="none" stroke="midnightblue" d="M371.39,-437.42C388.15,-417.27 428.9,-369.36 467,-333 482.45,-318.25 501.21,-302.91 515.26,-291.86"/>
<polygon fill="midnightblue" stroke="midnightblue" points="517.59,-294.48 523.33,-285.58 513.29,-288.96 517.59,-294.48"/>
</g>
<!-- Node35 -->
<g id="node35" class="node">
<title>Node35</title>
<g id="a_node35"><a xlink:href="../../db/d25/class_tree234.html#a59494707db877098d0ffb770437d6a10" target="_top" xlink:title="Do the actual right rotate operation.">
<polygon fill="white" stroke="black" points="652.5,-494.5 652.5,-513.5 762.5,-513.5 762.5,-494.5 652.5,-494.5"/>
<text text-anchor="middle" x="707.5" y="-501.5" font-family="Helvetica,sans-Serif" font-size="10.00">Tree234::RightRotate</text>
</a>
</g>
</g>
<!-- Node20&#45;&gt;Node35 -->
<g id="edge37" class="edge">
<title>Node20&#45;&gt;Node35</title>
<path fill="none" stroke="midnightblue" d="M428.45,-456.52C477.56,-463.87 546.61,-474.53 607,-485 620.39,-487.32 634.77,-489.98 648.32,-492.55"/>
<polygon fill="midnightblue" stroke="midnightblue" points="648,-496.05 658.48,-494.49 649.32,-489.17 648,-496.05"/>
</g>
<!-- Node36 -->
<g id="node36" class="node">
<title>Node36</title>
<g id="a_node36"><a xlink:href="../../db/d25/class_tree234.html#ad5b21cf04d1fab3d088ac00582c521c7" target="_top" xlink:title="A handy function to try if we can do a left rotate to the target node.">
<polygon fill="white" stroke="black" points="478,-570.5 478,-589.5 596,-589.5 596,-570.5 478,-570.5"/>
<text text-anchor="middle" x="537" y="-577.5" font-family="Helvetica,sans-Serif" font-size="10.00">Tree234::TryLeftRotate</text>
</a>
</g>
</g>
<!-- Node20&#45;&gt;Node36 -->
<g id="edge38" class="edge">
<title>Node20&#45;&gt;Node36</title>
<path fill="none" stroke="midnightblue" d="M370.12,-456.62C385.03,-477.6 423.36,-527.85 467,-556 473.67,-560.3 481.2,-563.94 488.77,-566.97"/>
<polygon fill="midnightblue" stroke="midnightblue" points="487.74,-570.32 498.33,-570.5 490.16,-563.75 487.74,-570.32"/>
</g>
<!-- Node37 -->
<g id="node37" class="node">
<title>Node37</title>
<g id="a_node37"><a xlink:href="../../db/d25/class_tree234.html#added89278e7bb87417a73918682a985e" target="_top" xlink:title="A handy function to try if we can do a right rotate to the target node.">
<polygon fill="white" stroke="black" points="474.5,-494.5 474.5,-513.5 599.5,-513.5 599.5,-494.5 474.5,-494.5"/>
<text text-anchor="middle" x="537" y="-501.5" font-family="Helvetica,sans-Serif" font-size="10.00">Tree234::TryRightRotate</text>
</a>
</g>
</g>
<!-- Node20&#45;&gt;Node37 -->
<g id="edge41" class="edge">
<title>Node20&#45;&gt;Node37</title>
<path fill="none" stroke="midnightblue" d="M392.37,-456.54C421.11,-466.03 465.39,-480.67 497.18,-491.17"/>
<polygon fill="midnightblue" stroke="midnightblue" points="496.44,-494.61 507.03,-494.43 498.64,-487.97 496.44,-494.61"/>
</g>
<!-- Node22 -->
<g id="node22" class="node">
<title>Node22</title>
<g id="a_node22"><a xlink:href="../../db/d8b/struct_node.html#a9b1b0f38e06f2be2f3287f737882d422" target="_top" xlink:title="Get max item (rightmost) in the current node.">
<polygon fill="white" stroke="black" points="657.5,-456.5 657.5,-475.5 757.5,-475.5 757.5,-456.5 657.5,-456.5"/>
<text text-anchor="middle" x="707.5" y="-463.5" font-family="Helvetica,sans-Serif" font-size="10.00">Node::GetMaxItem</text>
</a>
</g>
</g>
<!-- Node21&#45;&gt;Node22 -->
<g id="edge22" class="edge">
<title>Node21&#45;&gt;Node22</title>
<path fill="none" stroke="midnightblue" d="M580.52,-437.59C602.96,-442.65 630.67,-448.9 654.39,-454.25"/>
<polygon fill="midnightblue" stroke="midnightblue" points="653.76,-457.69 664.29,-456.48 655.3,-450.87 653.76,-457.69"/>
</g>
<!-- Node23 -->
<g id="node23" class="node">
<title>Node23</title>
<g id="a_node23"><a xlink:href="../../db/d8b/struct_node.html#a1e2c6a52b704f81caced187e5dc7735e" target="_top" xlink:title="Get rightmose child of the current node.">
<polygon fill="white" stroke="black" points="643,-418.5 643,-437.5 772,-437.5 772,-418.5 643,-418.5"/>
<text text-anchor="middle" x="707.5" y="-425.5" font-family="Helvetica,sans-Serif" font-size="10.00">Node::GetRightmostChild</text>
</a>
</g>
</g>
<!-- Node21&#45;&gt;Node23 -->
<g id="edge23" class="edge">
<title>Node21&#45;&gt;Node23</title>
<path fill="none" stroke="midnightblue" d="M602.66,-428C612.45,-428 622.6,-428 632.56,-428"/>
<polygon fill="midnightblue" stroke="midnightblue" points="632.84,-431.5 642.84,-428 632.84,-424.5 632.84,-431.5"/>
</g>
<!-- Node25 -->
<g id="node25" class="node">
<title>Node25</title>
<g id="a_node25"><a xlink:href="../../db/d8b/struct_node.html#aa1b7794370f98b1e5b5b8190ea7d7b67" target="_top" xlink:title="Get leftmose child of the current node.">
<polygon fill="white" stroke="black" points="646.5,-380.5 646.5,-399.5 768.5,-399.5 768.5,-380.5 646.5,-380.5"/>
<text text-anchor="middle" x="707.5" y="-387.5" font-family="Helvetica,sans-Serif" font-size="10.00">Node::GetLeftmostChild</text>
</a>
</g>
</g>
<!-- Node24&#45;&gt;Node25 -->
<g id="edge25" class="edge">
<title>Node24&#45;&gt;Node25</title>
<path fill="none" stroke="midnightblue" d="M580.52,-361.59C602.96,-366.65 630.67,-372.9 654.39,-378.25"/>
<polygon fill="midnightblue" stroke="midnightblue" points="653.76,-381.69 664.29,-380.48 655.3,-374.87 653.76,-381.69"/>
</g>
<!-- Node26 -->
<g id="node26" class="node">
<title>Node26</title>
<g id="a_node26"><a xlink:href="../../db/d8b/struct_node.html#a3cbce1931da13d8db8f1d350ae841db5" target="_top" xlink:title="get min item (leftmost) in the current node">
<polygon fill="white" stroke="black" points="659,-342.5 659,-361.5 756,-361.5 756,-342.5 659,-342.5"/>
<text text-anchor="middle" x="707.5" y="-349.5" font-family="Helvetica,sans-Serif" font-size="10.00">Node::GetMinItem</text>
</a>
</g>
</g>
<!-- Node24&#45;&gt;Node26 -->
<g id="edge26" class="edge">
<title>Node24&#45;&gt;Node26</title>
<path fill="none" stroke="midnightblue" d="M601.22,-352C616.78,-352 633.35,-352 648.64,-352"/>
<polygon fill="midnightblue" stroke="midnightblue" points="648.99,-355.5 658.99,-352 648.99,-348.5 648.99,-355.5"/>
</g>
<!-- Node30&#45;&gt;Node12 -->
<g id="edge34" class="edge">
<title>Node30&#45;&gt;Node12</title>
<path fill="none" stroke="midnightblue" d="M545.93,-266.4C562.17,-247.33 601.24,-204.53 643,-181 647.17,-178.65 651.65,-176.57 656.25,-174.72"/>
<polygon fill="midnightblue" stroke="midnightblue" points="657.56,-177.96 665.76,-171.25 655.17,-171.39 657.56,-177.96"/>
</g>
<!-- Node30&#45;&gt;Node27 -->
<g id="edge33" class="edge">
<title>Node30&#45;&gt;Node27</title>
<path fill="none" stroke="midnightblue" d="M555.41,-285.56C571.45,-295.32 594.59,-312 607,-333 650.73,-406.99 585.45,-459.16 643,-523 646.76,-527.17 651.38,-530.44 656.42,-533"/>
<polygon fill="midnightblue" stroke="midnightblue" points="655.23,-536.29 665.81,-536.89 657.91,-529.83 655.23,-536.29"/>
</g>
<!-- Node31 -->
<g id="node31" class="node">
<title>Node31</title>
<g id="a_node31"><a xlink:href="../../db/d8b/struct_node.html#aec3cbfe34973f0752071599afe34939b" target="_top" xlink:title="Get the child pointer at position of index.">
<polygon fill="white" stroke="black" points="665.5,-190.5 665.5,-209.5 749.5,-209.5 749.5,-190.5 665.5,-190.5"/>
<text text-anchor="middle" x="707.5" y="-197.5" font-family="Helvetica,sans-Serif" font-size="10.00">Node::GetChild</text>
</a>
</g>
</g>
<!-- Node30&#45;&gt;Node31 -->
<g id="edge31" class="edge">
<title>Node30&#45;&gt;Node31</title>
<path fill="none" stroke="midnightblue" d="M553.16,-266.47C573.14,-254.21 609.67,-232.86 643,-219 648.45,-216.74 654.26,-214.62 660.07,-212.68"/>
<polygon fill="midnightblue" stroke="midnightblue" points="661.31,-215.95 669.78,-209.58 659.19,-209.28 661.31,-215.95"/>
</g>
<!-- Node32 -->
<g id="node32" class="node">
<title>Node32</title>
<g id="a_node32"><a xlink:href="../../db/d8b/struct_node.html#a711e6d7e2c0318df0842e0caad4cad05" target="_top" xlink:title="Get item of the \index index.">
<polygon fill="white" stroke="black" points="667,-304.5 667,-323.5 748,-323.5 748,-304.5 667,-304.5"/>
<text text-anchor="middle" x="707.5" y="-311.5" font-family="Helvetica,sans-Serif" font-size="10.00">Node::GetItem</text>
</a>
</g>
</g>
<!-- Node30&#45;&gt;Node32 -->
<g id="edge32" class="edge">
<title>Node30&#45;&gt;Node32</title>
<path fill="none" stroke="midnightblue" d="M579.65,-285.39C603.04,-290.67 632.36,-297.28 656.92,-302.82"/>
<polygon fill="midnightblue" stroke="midnightblue" points="656.25,-306.26 666.78,-305.04 657.79,-299.43 656.25,-306.26"/>
</g>
<!-- Node33 -->
<g id="node33" class="node">
<title>Node33</title>
<g id="a_node33"><a xlink:href="../../db/d8b/struct_node.html#ab5fbabd89ce8e89ccaa9e7371bc37a3d" target="_top" xlink:title="Set the item count of the node.">
<polygon fill="white" stroke="black" points="664,-266.5 664,-285.5 751,-285.5 751,-266.5 664,-266.5"/>
<text text-anchor="middle" x="707.5" y="-273.5" font-family="Helvetica,sans-Serif" font-size="10.00">Node::SetCount</text>
</a>
</g>
</g>
<!-- Node30&#45;&gt;Node33 -->
<g id="edge35" class="edge">
<title>Node30&#45;&gt;Node33</title>
<path fill="none" stroke="midnightblue" d="M579.65,-276C601.98,-276 629.72,-276 653.56,-276"/>
<polygon fill="midnightblue" stroke="midnightblue" points="653.86,-279.5 663.86,-276 653.86,-272.5 653.86,-279.5"/>
</g>
<!-- Node34 -->
<g id="node34" class="node">
<title>Node34</title>
<g id="a_node34"><a xlink:href="../../db/d8b/struct_node.html#a2850fd257fe00ea2e1539325db18947c" target="_top" xlink:title="Set item value at position of index.">
<polygon fill="white" stroke="black" points="667.5,-228.5 667.5,-247.5 747.5,-247.5 747.5,-228.5 667.5,-228.5"/>
<text text-anchor="middle" x="707.5" y="-235.5" font-family="Helvetica,sans-Serif" font-size="10.00">Node::SetItem</text>
</a>
</g>
</g>
<!-- Node30&#45;&gt;Node34 -->
<g id="edge36" class="edge">
<title>Node30&#45;&gt;Node34</title>
<path fill="none" stroke="midnightblue" d="M579.65,-266.61C603.21,-261.29 632.79,-254.62 657.46,-249.06"/>
<polygon fill="midnightblue" stroke="midnightblue" points="658.37,-252.44 667.35,-246.83 656.83,-245.61 658.37,-252.44"/>
</g>
<!-- Node36&#45;&gt;Node27 -->
<g id="edge39" class="edge">
<title>Node36&#45;&gt;Node27</title>
<path fill="none" stroke="midnightblue" d="M580.52,-570.41C603.38,-565.26 631.73,-558.86 655.74,-553.45"/>
<polygon fill="midnightblue" stroke="midnightblue" points="656.75,-556.81 665.74,-551.19 655.21,-549.98 656.75,-556.81"/>
</g>
<!-- Node36&#45;&gt;Node29 -->
<g id="edge40" class="edge">
<title>Node36&#45;&gt;Node29</title>
<path fill="none" stroke="midnightblue" d="M596.46,-586.59C612.21,-588.37 629.29,-590.29 645.19,-592.09"/>
<polygon fill="midnightblue" stroke="midnightblue" points="645.12,-595.6 655.45,-593.24 645.9,-588.64 645.12,-595.6"/>
</g>
<!-- Node37&#45;&gt;Node27 -->
<g id="edge42" class="edge">
<title>Node37&#45;&gt;Node27</title>
<path fill="none" stroke="midnightblue" d="M580.52,-513.59C603.38,-518.74 631.73,-525.14 655.74,-530.55"/>
<polygon fill="midnightblue" stroke="midnightblue" points="655.21,-534.02 665.74,-532.81 656.75,-527.19 655.21,-534.02"/>
</g>
<!-- Node37&#45;&gt;Node35 -->
<g id="edge43" class="edge">
<title>Node37&#45;&gt;Node35</title>
<path fill="none" stroke="midnightblue" d="M599.79,-504C613.48,-504 628.03,-504 641.84,-504"/>
<polygon fill="midnightblue" stroke="midnightblue" points="642.23,-507.5 652.23,-504 642.23,-500.5 642.23,-507.5"/>
</g>
<!-- Node38&#45;&gt;Node4 -->
<g id="edge45" class="edge">
<title>Node38&#45;&gt;Node4</title>
<path fill="none" stroke="midnightblue" d="M119.32,-92.45C133.74,-97.52 154.31,-104.76 172.11,-111.02"/>
<polygon fill="midnightblue" stroke="midnightblue" points="171.06,-114.36 181.66,-114.38 173.38,-107.76 171.06,-114.36"/>
</g>
<!-- Node38&#45;&gt;Node14 -->
<g id="edge46" class="edge">
<title>Node38&#45;&gt;Node14</title>
<path fill="none" stroke="midnightblue" d="M119.32,-86C130.76,-86 146.07,-86 160.8,-86"/>
<polygon fill="midnightblue" stroke="midnightblue" points="160.85,-89.5 170.85,-86 160.85,-82.5 160.85,-89.5"/>
</g>
<!-- Node39 -->
<g id="node39" class="node">
<title>Node39</title>
<g id="a_node39"><a target="_blank" xlink:href="http://en.cppreference.com/w/cpp/string/basic_string/to_string.html#" target="_top" xlink:title=" ">
<polygon fill="white" stroke="black" points="173,-38.5 173,-57.5 247,-57.5 247,-38.5 173,-38.5"/>
<text text-anchor="middle" x="210" y="-45.5" font-family="Helvetica,sans-Serif" font-size="10.00">std::to_string</text>
</a>
</g>
</g>
<!-- Node38&#45;&gt;Node39 -->
<g id="edge47" class="edge">
<title>Node38&#45;&gt;Node39</title>
<path fill="none" stroke="midnightblue" d="M119.32,-79.55C133.74,-74.48 154.31,-67.24 172.11,-60.98"/>
<polygon fill="midnightblue" stroke="midnightblue" points="173.38,-64.24 181.66,-57.62 171.06,-57.64 173.38,-64.24"/>
</g>
<!-- Node40 -->
<g id="node40" class="node">
<title>Node40</title>
<g id="a_node40"><a xlink:href="../../db/d25/class_tree234.html#a521cc63186122762f279c4cfb8b93fd9" target="_top" xlink:title="In&#45;order traverse.">
<polygon fill="white" stroke="black" points="162,-0.5 162,-19.5 258,-19.5 258,-0.5 162,-0.5"/>
<text text-anchor="middle" x="210" y="-7.5" font-family="Helvetica,sans-Serif" font-size="10.00">Tree234::Traverse</text>
</a>
</g>
</g>
<!-- Node38&#45;&gt;Node40 -->
<g id="edge48" class="edge">
<title>Node38&#45;&gt;Node40</title>
<path fill="none" stroke="midnightblue" d="M109.22,-76.38C120.2,-64.02 140.74,-42.56 162,-29 164.91,-27.15 168.03,-25.41 171.22,-23.81"/>
<polygon fill="midnightblue" stroke="midnightblue" points="172.7,-26.98 180.33,-19.64 169.78,-20.62 172.7,-26.98"/>
</g>
<!-- Node40&#45;&gt;Node16 -->
<g id="edge49" class="edge">
<title>Node40&#45;&gt;Node16</title>
<path fill="none" stroke="midnightblue" d="M258.21,-10C279.94,-10 305.3,-10 325.46,-10"/>
<polygon fill="midnightblue" stroke="midnightblue" points="325.48,-13.5 335.48,-10 325.48,-6.5 325.48,-13.5"/>
</g>
</g>
</svg>
        <g id="navigator" transform="translate(0 0)" fill="#404254">
                <rect fill="#f2f5e9" fill-opacity="0.5" stroke="#606060" stroke-width=".5" x="0" y="0" width="60" height="60"/>
                <use id="zoomplus" xlink:href="#zoomPlus" x="17" y="9" onmousedown="handleZoom(evt,'in')"/>
                <use id="zoomminus" xlink:href="#zoomMin" x="42" y="9" onmousedown="handleZoom(evt,'out')"/>
                <use id="reset" xlink:href="#resetDef" x="30" y="36" onmousedown="handleReset()"/>
                <g id="arrowUp" xlink:href="#dirArrow" transform="translate(30 24)" onmousedown="handlePan(0,-1)">
                  <use xlink:href="#rim" fill="#404040">
                        <set attributeName="fill" to="#808080" begin="arrowUp.mouseover" end="arrowUp.mouseout"/>
                  </use>
                  <path fill="none" stroke="white" stroke-width="1.5" d="M0,-3.0v7 M-2.5,-0.5L0,-3.0L2.5,-0.5"/>
                </g>
                <g id="arrowRight" xlink:href="#dirArrow" transform="rotate(90) translate(36 -43)" onmousedown="handlePan(1,0)">
                  <use xlink:href="#rim" fill="#404040">
                        <set attributeName="fill" to="#808080" begin="arrowRight.mouseover" end="arrowRight.mouseout"/>
                  </use>
                  <path fill="none" stroke="white" stroke-width="1.5" d="M0,-3.0v7 M-2.5,-0.5L0,-3.0L2.5,-0.5"/>
                </g>
                <g id="arrowDown" xlink:href="#dirArrow" transform="rotate(180) translate(-30 -48)" onmousedown="handlePan(0,1)">
                  <use xlink:href="#rim" fill="#404040">
                        <set attributeName="fill" to="#808080" begin="arrowDown.mouseover" end="arrowDown.mouseout"/>
                  </use>
                  <path fill="none" stroke="white" stroke-width="1.5" d="M0,-3.0v7 M-2.5,-0.5L0,-3.0L2.5,-0.5"/>
                </g>
                <g id="arrowLeft" xlink:href="#dirArrow" transform="rotate(270) translate(-36 17)" onmousedown="handlePan(-1,0)">
                  <use xlink:href="#rim" fill="#404040">
                        <set attributeName="fill" to="#808080" begin="arrowLeft.mouseover" end="arrowLeft.mouseout"/>
                  </use>
                  <path fill="none" stroke="white" stroke-width="1.5" d="M0,-3.0v7 M-2.5,-0.5L0,-3.0L2.5,-0.5"/>
                </g>
        </g>
        <svg viewBox="0 0 15 15" width="100%" height="30px" preserveAspectRatio="xMaxYMin meet">
         <g id="arrow_out" transform="scale(0.3 0.3)">
          <a xlink:href="tree__234_8cpp_a0ddf1224851353fc92bfbff6f499fa97_cgraph_org.svg" target="_base">
           <rect id="button" ry="5" rx="5" y="6" x="6" height="38" width="38"
                fill="#f2f5e9" fill-opacity="0.5" stroke="#606060" stroke-width="1.0"/>
           <path id="arrow"
             d="M 11.500037,31.436501 C 11.940474,20.09759 22.043105,11.32322 32.158766,21.979434 L 37.068811,17.246167 C 37.068811,17.246167 37.088388,32 37.088388,32 L 22.160133,31.978069 C 22.160133,31.978069 26.997745,27.140456 26.997745,27.140456 C 18.528582,18.264221 13.291696,25.230495 11.500037,31.436501 z"
             style="fill:#404040;"/>
          </a>
         </g>
        </svg>
</svg>
