<?xml version="1.0" encoding="UTF-8" standalone="no"?>
<!DOCTYPE svg PUBLIC "-//W3C//DTD SVG 1.1//EN"
 "http://www.w3.org/Graphics/SVG/1.1/DTD/svg11.dtd">
<!-- Generated by graphviz version 2.44.1 (20200629.0846)
 -->
<!-- Title: main Pages: 1 -->
<svg width="942pt" height="591pt"
 viewBox="0.00 0.00 942.00 591.23" xmlns="http://www.w3.org/2000/svg" xmlns:xlink="http://www.w3.org/1999/xlink">
<g id="graph0" class="graph" transform="scale(1 1) rotate(0) translate(4 587.23)">
<title>main</title>
<polygon fill="white" stroke="transparent" points="-4,4 -4,-587.23 938,-587.23 938,4 -4,4"/>
<!-- Node1 -->
<g id="node1" class="node">
<title>Node1</title>
<g id="a_node1"><a xlink:title="Main function.">
<polygon fill="#bfbfbf" stroke="black" points="0,-114.5 0,-133.5 38,-133.5 38,-114.5 0,-114.5"/>
<text text-anchor="middle" x="19" y="-121.5" font-family="Helvetica,sans-Serif" font-size="10.00">main</text>
</a>
</g>
</g>
<!-- Node2 -->
<g id="node2" class="node">
<title>Node2</title>
<g id="a_node2"><a target="_blank" xlink:href="http://en.cppreference.com/w/cpp/string/basic_string/stol.html#" target="_top" xlink:title=" ">
<polygon fill="white" stroke="black" points="74,-152.5 74,-171.5 126,-171.5 126,-152.5 74,-152.5"/>
<text text-anchor="middle" x="100" y="-159.5" font-family="Helvetica,sans-Serif" font-size="10.00">std::stoi</text>
</a>
</g>
</g>
<!-- Node1&#45;&gt;Node2 -->
<g id="edge1" class="edge">
<title>Node1&#45;&gt;Node2</title>
<path fill="none" stroke="midnightblue" d="M38.32,-132.81C47.68,-137.31 59.28,-142.89 69.82,-147.97"/>
<polygon fill="midnightblue" stroke="midnightblue" points="68.59,-151.25 79.12,-152.44 71.62,-144.95 68.59,-151.25"/>
</g>
<!-- Node3 -->
<g id="node3" class="node">
<title>Node3</title>
<g id="a_node3"><a xlink:href="../../db/dbc/tree__234_8cpp.html#ae7880ce913f3058a35ff106d5be9e243" target="_top" xlink:title="simple test to insert a given array and delete some item, and print the tree">
<polygon fill="white" stroke="black" points="81,-114.5 81,-133.5 119,-133.5 119,-114.5 81,-114.5"/>
<text text-anchor="middle" x="100" y="-121.5" font-family="Helvetica,sans-Serif" font-size="10.00">test1</text>
</a>
</g>
</g>
<!-- Node1&#45;&gt;Node3 -->
<g id="edge2" class="edge">
<title>Node1&#45;&gt;Node3</title>
<path fill="none" stroke="midnightblue" d="M38.32,-124C47.89,-124 59.82,-124 70.56,-124"/>
<polygon fill="midnightblue" stroke="midnightblue" points="70.78,-127.5 80.78,-124 70.78,-120.5 70.78,-127.5"/>
</g>
<!-- Node35 -->
<g id="node35" class="node">
<title>Node35</title>
<g id="a_node35"><a xlink:href="../../db/dbc/tree__234_8cpp.html#a17f2432fe0c646afae476ddc405c38e3" target="_top" xlink:title="simple test to insert continuous number of range [0, n), and print the tree">
<polygon fill="white" stroke="black" points="81,-76.5 81,-95.5 119,-95.5 119,-76.5 81,-76.5"/>
<text text-anchor="middle" x="100" y="-83.5" font-family="Helvetica,sans-Serif" font-size="10.00">test2</text>
</a>
</g>
</g>
<!-- Node1&#45;&gt;Node35 -->
<g id="edge41" class="edge">
<title>Node1&#45;&gt;Node35</title>
<path fill="none" stroke="midnightblue" d="M38.32,-115.19C48.19,-110.44 60.57,-104.49 71.57,-99.2"/>
<polygon fill="midnightblue" stroke="midnightblue" points="73.28,-102.25 80.78,-94.77 70.25,-95.95 73.28,-102.25"/>
</g>
<!-- Node4 -->
<g id="node4" class="node">
<title>Node4</title>
<g id="a_node4"><a xlink:href="../../db/d25/class_tree234.html#ae690b22acc3e9db55b4a2b458c3da8c8" target="_top" xlink:title="Insert item to tree.">
<polygon fill="white" stroke="black" points="168.5,-114.5 168.5,-133.5 251.5,-133.5 251.5,-114.5 168.5,-114.5"/>
<text text-anchor="middle" x="210" y="-121.5" font-family="Helvetica,sans-Serif" font-size="10.00">Tree234::Insert</text>
</a>
</g>
</g>
<!-- Node3&#45;&gt;Node4 -->
<g id="edge3" class="edge">
<title>Node3&#45;&gt;Node4</title>
<path fill="none" stroke="midnightblue" d="M119.32,-124C130.07,-124 144.24,-124 158.13,-124"/>
<polygon fill="midnightblue" stroke="midnightblue" points="158.14,-127.5 168.14,-124 158.14,-120.5 158.14,-127.5"/>
</g>
<!-- Node14 -->
<g id="node14" class="node">
<title>Node14</title>
<g id="a_node14"><a xlink:href="../../db/d25/class_tree234.html#a848886421f306be0afb116d91a41995b" target="_top" xlink:title="Print tree into a dot file, so we can easily check the result. if file_name is nullptr default is &quot;ou...">
<polygon fill="white" stroke="black" points="171,-76.5 171,-95.5 249,-95.5 249,-76.5 171,-76.5"/>
<text text-anchor="middle" x="210" y="-83.5" font-family="Helvetica,sans-Serif" font-size="10.00">Tree234::Print</text>
</a>
</g>
</g>
<!-- Node3&#45;&gt;Node14 -->
<g id="edge14" class="edge">
<title>Node3&#45;&gt;Node14</title>
<path fill="none" stroke="midnightblue" d="M119.32,-117.55C133.74,-112.48 154.31,-105.24 172.11,-98.98"/>
<polygon fill="midnightblue" stroke="midnightblue" points="173.38,-102.24 181.66,-95.62 171.06,-95.64 173.38,-102.24"/>
</g>
<!-- Node16 -->
<g id="node16" class="node">
<title>Node16</title>
<g id="a_node16"><a xlink:href="../../db/d25/class_tree234.html#a1c2ff15bed6674f58e075665e9027b8c" target="_top" xlink:title="Remove item from tree.">
<polygon fill="white" stroke="black" points="162.5,-275.5 162.5,-294.5 257.5,-294.5 257.5,-275.5 162.5,-275.5"/>
<text text-anchor="middle" x="210" y="-282.5" font-family="Helvetica,sans-Serif" font-size="10.00">Tree234::Remove</text>
</a>
</g>
</g>
<!-- Node3&#45;&gt;Node16 -->
<g id="edge16" class="edge">
<title>Node3&#45;&gt;Node16</title>
<path fill="none" stroke="midnightblue" d="M115.58,-133.56C119.23,-136.35 122.96,-139.57 126,-143 160.4,-181.84 187.78,-237.07 200.78,-265.87"/>
<polygon fill="midnightblue" stroke="midnightblue" points="197.66,-267.47 204.9,-275.2 204.06,-264.64 197.66,-267.47"/>
</g>
<!-- Node5 -->
<g id="node5" class="node">
<title>Node5</title>
<g id="a_node5"><a xlink:href="../../db/d25/class_tree234.html#a69f55fc18c820aafebbb3e7b0448b551" target="_top" xlink:title="A insert implementation of pre&#45;split.">
<polygon fill="white" stroke="black" points="304,-114.5 304,-133.5 421,-133.5 421,-114.5 304,-114.5"/>
<text text-anchor="middle" x="362.5" y="-121.5" font-family="Helvetica,sans-Serif" font-size="10.00">Tree234::InsertPreSplit</text>
</a>
</g>
</g>
<!-- Node4&#45;&gt;Node5 -->
<g id="edge4" class="edge">
<title>Node4&#45;&gt;Node5</title>
<path fill="none" stroke="midnightblue" d="M251.73,-124C264.62,-124 279.23,-124 293.5,-124"/>
<polygon fill="midnightblue" stroke="midnightblue" points="293.79,-127.5 303.79,-124 293.79,-120.5 293.79,-127.5"/>
</g>
<!-- Node6 -->
<g id="node6" class="node">
<title>Node6</title>
<g id="a_node6"><a target="_blank" xlink:href="http://en.cppreference.com/w/cpp/memory/unique_ptr/get.html#" target="_top" xlink:title=" ">
<polygon fill="white" stroke="black" points="486.5,-133.5 486.5,-152.5 587.5,-152.5 587.5,-133.5 486.5,-133.5"/>
<text text-anchor="middle" x="537" y="-140.5" font-family="Helvetica,sans-Serif" font-size="10.00">std::unique_ptr::get</text>
</a>
</g>
</g>
<!-- Node5&#45;&gt;Node6 -->
<g id="edge5" class="edge">
<title>Node5&#45;&gt;Node6</title>
<path fill="none" stroke="midnightblue" d="M421.42,-130.38C439.01,-132.32 458.37,-134.45 476.09,-136.4"/>
<polygon fill="midnightblue" stroke="midnightblue" points="475.98,-139.91 486.31,-137.53 476.75,-132.95 475.98,-139.91"/>
</g>
<!-- Node7 -->
<g id="node7" class="node">
<title>Node7</title>
<g id="a_node7"><a xlink:href="../../db/d25/class_tree234.html#a5ceb8cd694a3edb6e70ed3dd54ee4521" target="_top" xlink:title="Merge node to a not&#45;full target node.">
<polygon fill="white" stroke="black" points="467,-95.5 467,-114.5 607,-114.5 607,-95.5 467,-95.5"/>
<text text-anchor="middle" x="537" y="-102.5" font-family="Helvetica,sans-Serif" font-size="10.00">Tree234::MergeNodeNotFull</text>
</a>
</g>
</g>
<!-- Node5&#45;&gt;Node7 -->
<g id="edge6" class="edge">
<title>Node5&#45;&gt;Node7</title>
<path fill="none" stroke="midnightblue" d="M421.42,-117.62C432.81,-116.37 444.95,-115.03 456.9,-113.71"/>
<polygon fill="midnightblue" stroke="midnightblue" points="457.32,-117.19 466.88,-112.61 456.55,-110.23 457.32,-117.19"/>
</g>
<!-- Node13 -->
<g id="node13" class="node">
<title>Node13</title>
<g id="a_node13"><a xlink:href="../../db/d25/class_tree234.html#ae36a2684ad2d5cea087cbb5c7d94e96c" target="_top" xlink:title="Split a 4&#45;node to 1 parent and 2 children, and return the parent node.">
<polygon fill="white" stroke="black" points="486.5,-57.5 486.5,-76.5 587.5,-76.5 587.5,-57.5 486.5,-57.5"/>
<text text-anchor="middle" x="537" y="-64.5" font-family="Helvetica,sans-Serif" font-size="10.00">Tree234::SplitNode</text>
</a>
</g>
</g>
<!-- Node5&#45;&gt;Node13 -->
<g id="edge13" class="edge">
<title>Node5&#45;&gt;Node13</title>
<path fill="none" stroke="midnightblue" d="M402.87,-114.43C412.22,-111.74 422.07,-108.57 431,-105 447.8,-98.29 450.18,-92.66 467,-86 472.99,-83.63 479.38,-81.44 485.77,-79.45"/>
<polygon fill="midnightblue" stroke="midnightblue" points="487.15,-82.69 495.74,-76.5 485.16,-75.98 487.15,-82.69"/>
</g>
<!-- Node8 -->
<g id="node8" class="node">
<title>Node8</title>
<g id="a_node8"><a xlink:href="../../db/d8b/struct_node.html#a477404e67bd9114bf8203b47e2a2db20" target="_top" xlink:title="Insert item to the proper position of the node and return the position index.">
<polygon fill="white" stroke="black" points="662.5,-76.5 662.5,-95.5 752.5,-95.5 752.5,-76.5 662.5,-76.5"/>
<text text-anchor="middle" x="707.5" y="-83.5" font-family="Helvetica,sans-Serif" font-size="10.00">Node::InsertItem</text>
</a>
</g>
</g>
<!-- Node7&#45;&gt;Node8 -->
<g id="edge7" class="edge">
<title>Node7&#45;&gt;Node8</title>
<path fill="none" stroke="midnightblue" d="M607.02,-97.22C622.09,-95.52 637.83,-93.74 652.22,-92.12"/>
<polygon fill="midnightblue" stroke="midnightblue" points="652.89,-95.57 662.44,-90.97 652.11,-88.61 652.89,-95.57"/>
</g>
<!-- Node11 -->
<g id="node11" class="node">
<title>Node11</title>
<g id="a_node11"><a xlink:href="../../db/d8b/struct_node.html#a5cb5234ccefa82c8cc49842898131cb6" target="_top" xlink:title="Check if node is a full (4&#45;node)">
<polygon fill="white" stroke="black" points="836,-38.5 836,-57.5 906,-57.5 906,-38.5 836,-38.5"/>
<text text-anchor="middle" x="871" y="-45.5" font-family="Helvetica,sans-Serif" font-size="10.00">Node::IsFull</text>
</a>
</g>
</g>
<!-- Node7&#45;&gt;Node11 -->
<g id="edge11" class="edge">
<title>Node7&#45;&gt;Node11</title>
<path fill="none" stroke="midnightblue" d="M578.26,-95.5C587.81,-92.81 597.87,-89.61 607,-86 623.82,-79.34 625.64,-72.08 643,-67 704.58,-48.99 779.27,-46.17 825.73,-46.53"/>
<polygon fill="midnightblue" stroke="midnightblue" points="825.72,-50.03 835.77,-46.66 825.81,-43.03 825.72,-50.03"/>
</g>
<!-- Node12 -->
<g id="node12" class="node">
<title>Node12</title>
<g id="a_node12"><a xlink:href="../../db/d8b/struct_node.html#a40a68c94b39a93cfbcfbf3c9a34a110c" target="_top" xlink:title="Set child pointer to the position of index.">
<polygon fill="white" stroke="black" points="666,-114.5 666,-133.5 749,-133.5 749,-114.5 666,-114.5"/>
<text text-anchor="middle" x="707.5" y="-121.5" font-family="Helvetica,sans-Serif" font-size="10.00">Node::SetChild</text>
</a>
</g>
</g>
<!-- Node7&#45;&gt;Node12 -->
<g id="edge12" class="edge">
<title>Node7&#45;&gt;Node12</title>
<path fill="none" stroke="midnightblue" d="M607.02,-112.78C623.27,-114.61 640.29,-116.53 655.58,-118.26"/>
<polygon fill="midnightblue" stroke="midnightblue" points="655.52,-121.77 665.85,-119.42 656.3,-114.82 655.52,-121.77"/>
</g>
<!-- Node9 -->
<g id="node9" class="node">
<title>Node9</title>
<g id="a_node9"><a xlink:href="../../db/d8b/struct_node.html#a13b876e390596e7fef1f914be83c9168" target="_top" xlink:title="Check if item is in the node.">
<polygon fill="white" stroke="black" points="828.5,-76.5 828.5,-95.5 913.5,-95.5 913.5,-76.5 828.5,-76.5"/>
<text text-anchor="middle" x="871" y="-83.5" font-family="Helvetica,sans-Serif" font-size="10.00">Node::Contains</text>
</a>
</g>
</g>
<!-- Node8&#45;&gt;Node9 -->
<g id="edge8" class="edge">
<title>Node8&#45;&gt;Node9</title>
<path fill="none" stroke="midnightblue" d="M752.63,-86C772.94,-86 797.16,-86 818.32,-86"/>
<polygon fill="midnightblue" stroke="midnightblue" points="818.42,-89.5 828.42,-86 818.42,-82.5 818.42,-89.5"/>
</g>
<!-- Node10 -->
<g id="node10" class="node">
<title>Node10</title>
<g id="a_node10"><a xlink:href="../../db/d8b/struct_node.html#a239621c6f62988c5d50d2c84892f5be9" target="_top" xlink:title="Insert a value to the index position.">
<polygon fill="white" stroke="black" points="808,-114.5 808,-133.5 934,-133.5 934,-114.5 808,-114.5"/>
<text text-anchor="middle" x="871" y="-121.5" font-family="Helvetica,sans-Serif" font-size="10.00">Node::InsertItemByIndex</text>
</a>
</g>
</g>
<!-- Node8&#45;&gt;Node10 -->
<g id="edge9" class="edge">
<title>Node8&#45;&gt;Node10</title>
<path fill="none" stroke="midnightblue" d="M749.25,-95.59C770.66,-100.63 797.09,-106.84 819.75,-112.18"/>
<polygon fill="midnightblue" stroke="midnightblue" points="819,-115.6 829.54,-114.48 820.61,-108.78 819,-115.6"/>
</g>
<!-- Node8&#45;&gt;Node11 -->
<g id="edge10" class="edge">
<title>Node8&#45;&gt;Node11</title>
<path fill="none" stroke="midnightblue" d="M749.25,-76.41C772.64,-70.91 802.01,-64 825.93,-58.37"/>
<polygon fill="midnightblue" stroke="midnightblue" points="826.88,-61.74 835.81,-56.04 825.28,-54.93 826.88,-61.74"/>
</g>
<!-- Node15 -->
<g id="node15" class="node">
<title>Node15</title>
<g id="a_node15"><a xlink:href="../../db/d25/class_tree234.html#abf8ef706486c6d55c7bf0b85f8b19148" target="_top" xlink:title="Print the tree to a dot file. You can convert it to picture with graphviz.">
<polygon fill="white" stroke="black" points="312,-76.5 312,-95.5 413,-95.5 413,-76.5 312,-76.5"/>
<text text-anchor="middle" x="362.5" y="-83.5" font-family="Helvetica,sans-Serif" font-size="10.00">Tree234::PrintNode</text>
</a>
</g>
</g>
<!-- Node14&#45;&gt;Node15 -->
<g id="edge15" class="edge">
<title>Node14&#45;&gt;Node15</title>
<path fill="none" stroke="midnightblue" d="M249.37,-86C265.24,-86 284.02,-86 301.62,-86"/>
<polygon fill="midnightblue" stroke="midnightblue" points="301.82,-89.5 311.82,-86 301.82,-82.5 301.82,-89.5"/>
</g>
<!-- Node17 -->
<g id="node17" class="node">
<title>Node17</title>
<g id="a_node17"><a xlink:href="../../db/d25/class_tree234.html#a5e94a9b2c31a18e155e301ddead9a543" target="_top" xlink:title="Main function implement the pre&#45;merge remove operation.">
<polygon fill="white" stroke="black" points="294,-399.5 294,-418.5 431,-418.5 431,-399.5 294,-399.5"/>
<text text-anchor="middle" x="362.5" y="-406.5" font-family="Helvetica,sans-Serif" font-size="10.00">Tree234::RemovePreMerge</text>
</a>
</g>
</g>
<!-- Node16&#45;&gt;Node17 -->
<g id="edge17" class="edge">
<title>Node16&#45;&gt;Node17</title>
<path fill="none" stroke="midnightblue" d="M222.81,-294.73C248.64,-316.01 310.35,-366.86 342.02,-392.95"/>
<polygon fill="midnightblue" stroke="midnightblue" points="339.8,-395.66 349.75,-399.32 344.25,-390.25 339.8,-395.66"/>
</g>
<!-- Node18 -->
<g id="node18" class="node">
<title>Node18</title>
<g id="a_node18"><a xlink:href="../../db/d25/class_tree234.html#a75fde49a2a57da1f234361181ea78183" target="_top" xlink:title="Get the max item of the tree.">
<polygon fill="white" stroke="black" points="471.5,-380.5 471.5,-399.5 602.5,-399.5 602.5,-380.5 471.5,-380.5"/>
<text text-anchor="middle" x="537" y="-387.5" font-family="Helvetica,sans-Serif" font-size="10.00">Tree234::GetTreeMaxItem</text>
</a>
</g>
</g>
<!-- Node17&#45;&gt;Node18 -->
<g id="edge18" class="edge">
<title>Node17&#45;&gt;Node18</title>
<path fill="none" stroke="midnightblue" d="M431.18,-401.55C441.09,-400.45 451.35,-399.32 461.39,-398.22"/>
<polygon fill="midnightblue" stroke="midnightblue" points="461.78,-401.7 471.33,-397.12 461.01,-394.74 461.78,-401.7"/>
</g>
<!-- Node21 -->
<g id="node21" class="node">
<title>Node21</title>
<g id="a_node21"><a xlink:href="../../db/d25/class_tree234.html#a66c20ef9cefbe058bdfc3e49180ef77d" target="_top" xlink:title="Get the min item of the tree.">
<polygon fill="white" stroke="black" points="473,-304.5 473,-323.5 601,-323.5 601,-304.5 473,-304.5"/>
<text text-anchor="middle" x="537" y="-311.5" font-family="Helvetica,sans-Serif" font-size="10.00">Tree234::GetTreeMinItem</text>
</a>
</g>
</g>
<!-- Node17&#45;&gt;Node21 -->
<g id="edge21" class="edge">
<title>Node17&#45;&gt;Node21</title>
<path fill="none" stroke="midnightblue" d="M373.83,-399.37C391.55,-383.35 429.48,-351.17 467,-333 471.89,-330.63 477.13,-328.52 482.45,-326.64"/>
<polygon fill="midnightblue" stroke="midnightblue" points="483.63,-329.93 492.05,-323.51 481.46,-323.28 483.63,-329.93"/>
</g>
<!-- Node24 -->
<g id="node24" class="node">
<title>Node24</title>
<g id="a_node24"><a xlink:href="../../db/d8b/struct_node.html#a6e5f4f2091b10b1821b655fde157a74c" target="_top" xlink:title="Check if node is a 2&#45;node.">
<polygon fill="white" stroke="black" points="666,-494.5 666,-513.5 749,-513.5 749,-494.5 666,-494.5"/>
<text text-anchor="middle" x="707.5" y="-501.5" font-family="Helvetica,sans-Serif" font-size="10.00">Node::Is2Node</text>
</a>
</g>
</g>
<!-- Node17&#45;&gt;Node24 -->
<g id="edge24" class="edge">
<title>Node17&#45;&gt;Node24</title>
<path fill="none" stroke="midnightblue" d="M372.68,-418.6C389.52,-435.52 427.3,-470.23 467,-485 528.86,-508.02 605.76,-509.84 655.46,-507.87"/>
<polygon fill="midnightblue" stroke="midnightblue" points="655.81,-511.36 665.64,-507.4 655.49,-504.37 655.81,-511.36"/>
</g>
<!-- Node25 -->
<g id="node25" class="node">
<title>Node25</title>
<g id="a_node25"><a xlink:href="../../db/d8b/struct_node.html#ae4c28fa9b7efdb560563104fcb9dfb45" target="_top" xlink:title="Check if node is a 3&#45;node or 4&#45;node, this is useful when we delete item from 2&#45;3&#45;4 tree.">
<polygon fill="white" stroke="black" points="493,-342.5 493,-361.5 581,-361.5 581,-342.5 493,-342.5"/>
<text text-anchor="middle" x="537" y="-349.5" font-family="Helvetica,sans-Serif" font-size="10.00">Node::Is34Node</text>
</a>
</g>
</g>
<!-- Node17&#45;&gt;Node25 -->
<g id="edge25" class="edge">
<title>Node17&#45;&gt;Node25</title>
<path fill="none" stroke="midnightblue" d="M387.98,-399.36C408.82,-391.31 439.66,-379.77 467,-371 474.16,-368.71 481.78,-366.43 489.26,-364.3"/>
<polygon fill="midnightblue" stroke="midnightblue" points="490.26,-367.66 498.95,-361.59 488.38,-360.92 490.26,-367.66"/>
</g>
<!-- Node26 -->
<g id="node26" class="node">
<title>Node26</title>
<g id="a_node26"><a xlink:href="../../db/d25/class_tree234.html#ab3733ff7bf637266d77820a49d4999bc" target="_top" xlink:title="Do the actual left rotate operation.">
<polygon fill="white" stroke="black" points="655.5,-551.5 655.5,-570.5 759.5,-570.5 759.5,-551.5 655.5,-551.5"/>
<text text-anchor="middle" x="707.5" y="-558.5" font-family="Helvetica,sans-Serif" font-size="10.00">Tree234::LeftRotate</text>
</a>
</g>
</g>
<!-- Node17&#45;&gt;Node26 -->
<g id="edge26" class="edge">
<title>Node17&#45;&gt;Node26</title>
<path fill="none" stroke="midnightblue" d="M366.45,-418.52C375.75,-446.67 407.45,-529.51 467,-561 528.38,-593.46 611.59,-583.57 662.04,-572.77"/>
<polygon fill="midnightblue" stroke="midnightblue" points="662.99,-576.15 671.98,-570.54 661.46,-569.32 662.99,-576.15"/>
</g>
<!-- Node27 -->
<g id="node27" class="node">
<title>Node27</title>
<g id="a_node27"><a xlink:href="../../db/d25/class_tree234.html#ae3ff8c703d85c4c5d0abd13c08c72151" target="_top" xlink:title="Merge the item at index of the parent node, and its left and right child.">
<polygon fill="white" stroke="black" points="494.5,-228.5 494.5,-247.5 579.5,-247.5 579.5,-228.5 494.5,-228.5"/>
<text text-anchor="middle" x="537" y="-235.5" font-family="Helvetica,sans-Serif" font-size="10.00">Tree234::Merge</text>
</a>
</g>
</g>
<!-- Node17&#45;&gt;Node27 -->
<g id="edge27" class="edge">
<title>Node17&#45;&gt;Node27</title>
<path fill="none" stroke="midnightblue" d="M371.39,-399.42C388.15,-379.27 428.9,-331.36 467,-295 482.45,-280.25 501.21,-264.91 515.26,-253.86"/>
<polygon fill="midnightblue" stroke="midnightblue" points="517.59,-256.48 523.33,-247.58 513.29,-250.96 517.59,-256.48"/>
</g>
<!-- Node32 -->
<g id="node32" class="node">
<title>Node32</title>
<g id="a_node32"><a xlink:href="../../db/d25/class_tree234.html#a59494707db877098d0ffb770437d6a10" target="_top" xlink:title="Do the actual right rotate operation.">
<polygon fill="white" stroke="black" points="652.5,-456.5 652.5,-475.5 762.5,-475.5 762.5,-456.5 652.5,-456.5"/>
<text text-anchor="middle" x="707.5" y="-463.5" font-family="Helvetica,sans-Serif" font-size="10.00">Tree234::RightRotate</text>
</a>
</g>
</g>
<!-- Node17&#45;&gt;Node32 -->
<g id="edge34" class="edge">
<title>Node17&#45;&gt;Node32</title>
<path fill="none" stroke="midnightblue" d="M428.45,-418.52C477.56,-425.87 546.61,-436.53 607,-447 620.39,-449.32 634.77,-451.98 648.32,-454.55"/>
<polygon fill="midnightblue" stroke="midnightblue" points="648,-458.05 658.48,-456.49 649.32,-451.17 648,-458.05"/>
</g>
<!-- Node33 -->
<g id="node33" class="node">
<title>Node33</title>
<g id="a_node33"><a xlink:href="../../db/d25/class_tree234.html#ad5b21cf04d1fab3d088ac00582c521c7" target="_top" xlink:title="A handy function to try if we can do a left rotate to the target node.">
<polygon fill="white" stroke="black" points="478,-532.5 478,-551.5 596,-551.5 596,-532.5 478,-532.5"/>
<text text-anchor="middle" x="537" y="-539.5" font-family="Helvetica,sans-Serif" font-size="10.00">Tree234::TryLeftRotate</text>
</a>
</g>
</g>
<!-- Node17&#45;&gt;Node33 -->
<g id="edge35" class="edge">
<title>Node17&#45;&gt;Node33</title>
<path fill="none" stroke="midnightblue" d="M370.12,-418.62C385.03,-439.6 423.36,-489.85 467,-518 473.67,-522.3 481.2,-525.94 488.77,-528.97"/>
<polygon fill="midnightblue" stroke="midnightblue" points="487.74,-532.32 498.33,-532.5 490.16,-525.75 487.74,-532.32"/>
</g>
<!-- Node34 -->
<g id="node34" class="node">
<title>Node34</title>
<g id="a_node34"><a xlink:href="../../db/d25/class_tree234.html#added89278e7bb87417a73918682a985e" target="_top" xlink:title="A handy function to try if we can do a right rotate to the target node.">
<polygon fill="white" stroke="black" points="474.5,-456.5 474.5,-475.5 599.5,-475.5 599.5,-456.5 474.5,-456.5"/>
<text text-anchor="middle" x="537" y="-463.5" font-family="Helvetica,sans-Serif" font-size="10.00">Tree234::TryRightRotate</text>
</a>
</g>
</g>
<!-- Node17&#45;&gt;Node34 -->
<g id="edge38" class="edge">
<title>Node17&#45;&gt;Node34</title>
<path fill="none" stroke="midnightblue" d="M392.37,-418.54C421.11,-428.03 465.39,-442.67 497.18,-453.17"/>
<polygon fill="midnightblue" stroke="midnightblue" points="496.44,-456.61 507.03,-456.43 498.64,-449.97 496.44,-456.61"/>
</g>
<!-- Node19 -->
<g id="node19" class="node">
<title>Node19</title>
<g id="a_node19"><a xlink:href="../../db/d8b/struct_node.html#a9b1b0f38e06f2be2f3287f737882d422" target="_top" xlink:title="Get max item (rightmost) in the current node.">
<polygon fill="white" stroke="black" points="657.5,-418.5 657.5,-437.5 757.5,-437.5 757.5,-418.5 657.5,-418.5"/>
<text text-anchor="middle" x="707.5" y="-425.5" font-family="Helvetica,sans-Serif" font-size="10.00">Node::GetMaxItem</text>
</a>
</g>
</g>
<!-- Node18&#45;&gt;Node19 -->
<g id="edge19" class="edge">
<title>Node18&#45;&gt;Node19</title>
<path fill="none" stroke="midnightblue" d="M580.52,-399.59C602.96,-404.65 630.67,-410.9 654.39,-416.25"/>
<polygon fill="midnightblue" stroke="midnightblue" points="653.76,-419.69 664.29,-418.48 655.3,-412.87 653.76,-419.69"/>
</g>
<!-- Node20 -->
<g id="node20" class="node">
<title>Node20</title>
<g id="a_node20"><a xlink:href="../../db/d8b/struct_node.html#a1e2c6a52b704f81caced187e5dc7735e" target="_top" xlink:title="Get rightmose child of the current node.">
<polygon fill="white" stroke="black" points="643,-380.5 643,-399.5 772,-399.5 772,-380.5 643,-380.5"/>
<text text-anchor="middle" x="707.5" y="-387.5" font-family="Helvetica,sans-Serif" font-size="10.00">Node::GetRightmostChild</text>
</a>
</g>
</g>
<!-- Node18&#45;&gt;Node20 -->
<g id="edge20" class="edge">
<title>Node18&#45;&gt;Node20</title>
<path fill="none" stroke="midnightblue" d="M602.66,-390C612.45,-390 622.6,-390 632.56,-390"/>
<polygon fill="midnightblue" stroke="midnightblue" points="632.84,-393.5 642.84,-390 632.84,-386.5 632.84,-393.5"/>
</g>
<!-- Node22 -->
<g id="node22" class="node">
<title>Node22</title>
<g id="a_node22"><a xlink:href="../../db/d8b/struct_node.html#aa1b7794370f98b1e5b5b8190ea7d7b67" target="_top" xlink:title="Get leftmose child of the current node.">
<polygon fill="white" stroke="black" points="646.5,-342.5 646.5,-361.5 768.5,-361.5 768.5,-342.5 646.5,-342.5"/>
<text text-anchor="middle" x="707.5" y="-349.5" font-family="Helvetica,sans-Serif" font-size="10.00">Node::GetLeftmostChild</text>
</a>
</g>
</g>
<!-- Node21&#45;&gt;Node22 -->
<g id="edge22" class="edge">
<title>Node21&#45;&gt;Node22</title>
<path fill="none" stroke="midnightblue" d="M580.52,-323.59C602.96,-328.65 630.67,-334.9 654.39,-340.25"/>
<polygon fill="midnightblue" stroke="midnightblue" points="653.76,-343.69 664.29,-342.48 655.3,-336.87 653.76,-343.69"/>
</g>
<!-- Node23 -->
<g id="node23" class="node">
<title>Node23</title>
<g id="a_node23"><a xlink:href="../../db/d8b/struct_node.html#a3cbce1931da13d8db8f1d350ae841db5" target="_top" xlink:title="get min item (leftmost) in the current node">
<polygon fill="white" stroke="black" points="659,-304.5 659,-323.5 756,-323.5 756,-304.5 659,-304.5"/>
<text text-anchor="middle" x="707.5" y="-311.5" font-family="Helvetica,sans-Serif" font-size="10.00">Node::GetMinItem</text>
</a>
</g>
</g>
<!-- Node21&#45;&gt;Node23 -->
<g id="edge23" class="edge">
<title>Node21&#45;&gt;Node23</title>
<path fill="none" stroke="midnightblue" d="M601.22,-314C616.78,-314 633.35,-314 648.64,-314"/>
<polygon fill="midnightblue" stroke="midnightblue" points="648.99,-317.5 658.99,-314 648.99,-310.5 648.99,-317.5"/>
</g>
<!-- Node27&#45;&gt;Node12 -->
<g id="edge31" class="edge">
<title>Node27&#45;&gt;Node12</title>
<path fill="none" stroke="midnightblue" d="M545.93,-228.4C562.17,-209.33 601.24,-166.53 643,-143 647.17,-140.65 651.65,-138.57 656.25,-136.72"/>
<polygon fill="midnightblue" stroke="midnightblue" points="657.56,-139.96 665.76,-133.25 655.17,-133.39 657.56,-139.96"/>
</g>
<!-- Node27&#45;&gt;Node24 -->
<g id="edge30" class="edge">
<title>Node27&#45;&gt;Node24</title>
<path fill="none" stroke="midnightblue" d="M555.41,-247.56C571.45,-257.32 594.59,-274 607,-295 650.73,-368.99 585.45,-421.16 643,-485 646.76,-489.17 651.38,-492.44 656.42,-495"/>
<polygon fill="midnightblue" stroke="midnightblue" points="655.23,-498.29 665.81,-498.89 657.91,-491.83 655.23,-498.29"/>
</g>
<!-- Node28 -->
<g id="node28" class="node">
<title>Node28</title>
<g id="a_node28"><a xlink:href="../../db/d8b/struct_node.html#aec3cbfe34973f0752071599afe34939b" target="_top" xlink:title="Get the child pointer at position of index.">
<polygon fill="white" stroke="black" points="665.5,-152.5 665.5,-171.5 749.5,-171.5 749.5,-152.5 665.5,-152.5"/>
<text text-anchor="middle" x="707.5" y="-159.5" font-family="Helvetica,sans-Serif" font-size="10.00">Node::GetChild</text>
</a>
</g>
</g>
<!-- Node27&#45;&gt;Node28 -->
<g id="edge28" class="edge">
<title>Node27&#45;&gt;Node28</title>
<path fill="none" stroke="midnightblue" d="M553.16,-228.47C573.14,-216.21 609.67,-194.86 643,-181 648.45,-178.74 654.26,-176.62 660.07,-174.68"/>
<polygon fill="midnightblue" stroke="midnightblue" points="661.31,-177.95 669.78,-171.58 659.19,-171.28 661.31,-177.95"/>
</g>
<!-- Node29 -->
<g id="node29" class="node">
<title>Node29</title>
<g id="a_node29"><a xlink:href="../../db/d8b/struct_node.html#a711e6d7e2c0318df0842e0caad4cad05" target="_top" xlink:title="Get item of the \index index.">
<polygon fill="white" stroke="black" points="667,-266.5 667,-285.5 748,-285.5 748,-266.5 667,-266.5"/>
<text text-anchor="middle" x="707.5" y="-273.5" font-family="Helvetica,sans-Serif" font-size="10.00">Node::GetItem</text>
</a>
</g>
</g>
<!-- Node27&#45;&gt;Node29 -->
<g id="edge29" class="edge">
<title>Node27&#45;&gt;Node29</title>
<path fill="none" stroke="midnightblue" d="M579.65,-247.39C603.04,-252.67 632.36,-259.28 656.92,-264.82"/>
<polygon fill="midnightblue" stroke="midnightblue" points="656.25,-268.26 666.78,-267.04 657.79,-261.43 656.25,-268.26"/>
</g>
<!-- Node30 -->
<g id="node30" class="node">
<title>Node30</title>
<g id="a_node30"><a xlink:href="../../db/d8b/struct_node.html#ab5fbabd89ce8e89ccaa9e7371bc37a3d" target="_top" xlink:title="Set the item count of the node.">
<polygon fill="white" stroke="black" points="664,-228.5 664,-247.5 751,-247.5 751,-228.5 664,-228.5"/>
<text text-anchor="middle" x="707.5" y="-235.5" font-family="Helvetica,sans-Serif" font-size="10.00">Node::SetCount</text>
</a>
</g>
</g>
<!-- Node27&#45;&gt;Node30 -->
<g id="edge32" class="edge">
<title>Node27&#45;&gt;Node30</title>
<path fill="none" stroke="midnightblue" d="M579.65,-238C601.98,-238 629.72,-238 653.56,-238"/>
<polygon fill="midnightblue" stroke="midnightblue" points="653.86,-241.5 663.86,-238 653.86,-234.5 653.86,-241.5"/>
</g>
<!-- Node31 -->
<g id="node31" class="node">
<title>Node31</title>
<g id="a_node31"><a xlink:href="../../db/d8b/struct_node.html#a2850fd257fe00ea2e1539325db18947c" target="_top" xlink:title="Set item value at position of index.">
<polygon fill="white" stroke="black" points="667.5,-190.5 667.5,-209.5 747.5,-209.5 747.5,-190.5 667.5,-190.5"/>
<text text-anchor="middle" x="707.5" y="-197.5" font-family="Helvetica,sans-Serif" font-size="10.00">Node::SetItem</text>
</a>
</g>
</g>
<!-- Node27&#45;&gt;Node31 -->
<g id="edge33" class="edge">
<title>Node27&#45;&gt;Node31</title>
<path fill="none" stroke="midnightblue" d="M579.65,-228.61C603.21,-223.29 632.79,-216.62 657.46,-211.06"/>
<polygon fill="midnightblue" stroke="midnightblue" points="658.37,-214.44 667.35,-208.83 656.83,-207.61 658.37,-214.44"/>
</g>
<!-- Node33&#45;&gt;Node24 -->
<g id="edge36" class="edge">
<title>Node33&#45;&gt;Node24</title>
<path fill="none" stroke="midnightblue" d="M580.52,-532.41C603.38,-527.26 631.73,-520.86 655.74,-515.45"/>
<polygon fill="midnightblue" stroke="midnightblue" points="656.75,-518.81 665.74,-513.19 655.21,-511.98 656.75,-518.81"/>
</g>
<!-- Node33&#45;&gt;Node26 -->
<g id="edge37" class="edge">
<title>Node33&#45;&gt;Node26</title>
<path fill="none" stroke="midnightblue" d="M596.46,-548.59C612.21,-550.37 629.29,-552.29 645.19,-554.09"/>
<polygon fill="midnightblue" stroke="midnightblue" points="645.12,-557.6 655.45,-555.24 645.9,-550.64 645.12,-557.6"/>
</g>
<!-- Node34&#45;&gt;Node24 -->
<g id="edge39" class="edge">
<title>Node34&#45;&gt;Node24</title>
<path fill="none" stroke="midnightblue" d="M580.52,-475.59C603.38,-480.74 631.73,-487.14 655.74,-492.55"/>
<polygon fill="midnightblue" stroke="midnightblue" points="655.21,-496.02 665.74,-494.81 656.75,-489.19 655.21,-496.02"/>
</g>
<!-- Node34&#45;&gt;Node32 -->
<g id="edge40" class="edge">
<title>Node34&#45;&gt;Node32</title>
<path fill="none" stroke="midnightblue" d="M599.79,-466C613.48,-466 628.03,-466 641.84,-466"/>
<polygon fill="midnightblue" stroke="midnightblue" points="642.23,-469.5 652.23,-466 642.23,-462.5 642.23,-469.5"/>
</g>
<!-- Node35&#45;&gt;Node4 -->
<g id="edge42" class="edge">
<title>Node35&#45;&gt;Node4</title>
<path fill="none" stroke="midnightblue" d="M119.32,-92.45C133.74,-97.52 154.31,-104.76 172.11,-111.02"/>
<polygon fill="midnightblue" stroke="midnightblue" points="171.06,-114.36 181.66,-114.38 173.38,-107.76 171.06,-114.36"/>
</g>
<!-- Node35&#45;&gt;Node14 -->
<g id="edge43" class="edge">
<title>Node35&#45;&gt;Node14</title>
<path fill="none" stroke="midnightblue" d="M119.32,-86C130.76,-86 146.07,-86 160.8,-86"/>
<polygon fill="midnightblue" stroke="midnightblue" points="160.85,-89.5 170.85,-86 160.85,-82.5 160.85,-89.5"/>
</g>
<!-- Node36 -->
<g id="node36" class="node">
<title>Node36</title>
<g id="a_node36"><a target="_blank" xlink:href="http://en.cppreference.com/w/cpp/string/basic_string/to_string.html#" target="_top" xlink:title=" ">
<polygon fill="white" stroke="black" points="173,-0.5 173,-19.5 247,-19.5 247,-0.5 173,-0.5"/>
<text text-anchor="middle" x="210" y="-7.5" font-family="Helvetica,sans-Serif" font-size="10.00">std::to_string</text>
</a>
</g>
</g>
<!-- Node35&#45;&gt;Node36 -->
<g id="edge44" class="edge">
<title>Node35&#45;&gt;Node36</title>
<path fill="none" stroke="midnightblue" d="M109.22,-76.38C120.2,-64.02 140.74,-42.56 162,-29 164.91,-27.15 168.03,-25.41 171.22,-23.81"/>
<polygon fill="midnightblue" stroke="midnightblue" points="172.7,-26.98 180.33,-19.64 169.78,-20.62 172.7,-26.98"/>
</g>
<!-- Node37 -->
<g id="node37" class="node">
<title>Node37</title>
<g id="a_node37"><a xlink:href="../../db/d25/class_tree234.html#a521cc63186122762f279c4cfb8b93fd9" target="_top" xlink:title="In&#45;order traverse.">
<polygon fill="white" stroke="black" points="162,-38.5 162,-57.5 258,-57.5 258,-38.5 162,-38.5"/>
<text text-anchor="middle" x="210" y="-45.5" font-family="Helvetica,sans-Serif" font-size="10.00">Tree234::Traverse</text>
</a>
</g>
</g>
<!-- Node35&#45;&gt;Node37 -->
<g id="edge45" class="edge">
<title>Node35&#45;&gt;Node37</title>
<path fill="none" stroke="midnightblue" d="M119.32,-79.55C133.74,-74.48 154.31,-67.24 172.11,-60.98"/>
<polygon fill="midnightblue" stroke="midnightblue" points="173.38,-64.24 181.66,-57.62 171.06,-57.64 173.38,-64.24"/>
</g>
<!-- Node38 -->
<g id="node38" class="node">
<title>Node38</title>
<g id="a_node38"><a target="_blank" xlink:href="http://en.cppreference.com/w/cpp/io/manip/endl.html#" target="_top" xlink:title=" ">
<polygon fill="white" stroke="black" points="335.5,-38.5 335.5,-57.5 389.5,-57.5 389.5,-38.5 335.5,-38.5"/>
<text text-anchor="middle" x="362.5" y="-45.5" font-family="Helvetica,sans-Serif" font-size="10.00">std::endl</text>
</a>
</g>
</g>
<!-- Node37&#45;&gt;Node38 -->
<g id="edge46" class="edge">
<title>Node37&#45;&gt;Node38</title>
<path fill="none" stroke="midnightblue" d="M258.21,-48C279.94,-48 305.3,-48 325.46,-48"/>
<polygon fill="midnightblue" stroke="midnightblue" points="325.48,-51.5 335.48,-48 325.48,-44.5 325.48,-51.5"/>
</g>
</g>
</svg>
